<svg width="107" height="74" viewBox="0 0 107 74" fill="none" xmlns="http://www.w3.org/2000/svg">
<g clip-path="url(#clip0_75_140)">
<path d="M12.0045 7.77684C12.3145 7.77684 12.5659 7.52551 12.5659 7.21548C12.5659 6.90545 12.3145 6.65411 12.0045 6.65411C11.6945 6.65411 11.4431 6.90545 11.4431 7.21548C11.4431 7.52551 11.6945 7.77684 12.0045 7.77684Z" fill="white"/>
<path d="M14.1351 7.77684C14.4451 7.77684 14.6964 7.52551 14.6964 7.21548C14.6964 6.90545 14.4451 6.65411 14.1351 6.65411C13.825 6.65411 13.5737 6.90545 13.5737 7.21548C13.5737 7.52551 13.825 7.77684 14.1351 7.77684Z" fill="white"/>
<path d="M16.2656 7.77684C16.5757 7.77684 16.827 7.52551 16.827 7.21548C16.827 6.90545 16.5757 6.65411 16.2656 6.65411C15.9556 6.65411 15.7043 6.90545 15.7043 7.21548C15.7043 7.52551 15.9556 7.77684 16.2656 7.77684Z" fill="white"/>
<path d="M81.9263 8.53432H10.6405V8.93052H81.9263V8.53432Z" fill="white"/>
<path d="M81.9874 0.0464172H0.0349426V52.5324H81.9874V0.0464172Z" fill="#E6E6E6"/>
<path d="M81.9524 0H0V3.48165H81.9524V0Z" fill="#2AAE97"/>
<path d="M79.7117 6.28989H2.44608V26.298H79.7117V6.28989Z" fill="white"/>
<path d="M79.7606 29.5859H2.49493V49.594H79.7606V29.5859Z" fill="white"/>
<path d="M70.3538 10.7161H28.5375V12.5798H70.3538V10.7161Z" fill="#E6E6E6"/>
<path d="M43.447 15.3753H28.5375V17.239H43.447V15.3753Z" fill="#E6E6E6"/>
<path d="M58.24 20.0344H28.5375V21.8981H58.24V20.0344Z" fill="#E6E6E6"/>
<path d="M25.3925 39.4875C25.3948 40.8444 24.9998 42.1723 24.2563 43.3073C24.1005 43.5467 23.9297 43.776 23.7451 43.9939C23.312 44.5069 22.8076 44.9551 22.2473 45.3247C22.0949 45.4257 21.9382 45.5203 21.7773 45.6084C20.9398 46.0716 20.0154 46.3563 19.0624 46.4445C18.8458 46.4656 18.6256 46.4757 18.4035 46.4757C17.7946 46.4763 17.1882 46.397 16.6 46.2399C16.2665 46.1523 15.9404 46.039 15.6244 45.9012C15.4629 45.8314 15.305 45.7555 15.1508 45.6736C14.7799 45.4788 14.4275 45.2506 14.0981 44.9917C13.9448 44.8724 13.7971 44.7466 13.6548 44.6145C12.8037 43.8257 12.1623 42.8375 11.7886 41.7389C11.415 40.6403 11.3208 39.4659 11.5146 38.3218C11.7083 37.1777 12.1839 36.0999 12.8985 35.1856C13.613 34.2713 14.544 33.5493 15.6074 33.0848C16.6708 32.6204 17.8331 32.428 18.9895 32.5252C20.1458 32.6223 21.2597 33.0059 22.2307 33.6412C23.2017 34.2766 23.9992 35.1438 24.5512 36.1645C25.1032 37.1852 25.3924 38.3272 25.3925 39.4876V39.4875Z" fill="#2AAE97"/>
<path d="M18.8323 36.2252H17.9755V42.7481H18.8323V36.2252Z" fill="white"/>
<path d="M21.6653 39.0583H15.1424V39.9151H21.6653V39.0583Z" fill="white"/>
<path d="M69.3055 34.0121H27.4892V35.8758H69.3055V34.0121Z" fill="#E6E6E6"/>
<path d="M42.3987 38.6713H27.4892V40.535H42.3987V38.6713Z" fill="#E6E6E6"/>
<path d="M57.1917 43.3304H27.4892V45.1941H57.1917V43.3304Z" fill="#E6E6E6"/>
<path d="M5.42013 2.30786C5.73821 2.30786 5.99606 2.05 5.99606 1.73192C5.99606 1.41385 5.73821 1.15599 5.42013 1.15599C5.10205 1.15599 4.84419 1.41385 4.84419 1.73192C4.84419 2.05 5.10205 2.30786 5.42013 2.30786Z" fill="white"/>
<path d="M7.60627 2.30786C7.92435 2.30786 8.1822 2.05 8.1822 1.73192C8.1822 1.41385 7.92435 1.15599 7.60627 1.15599C7.28819 1.15599 7.03033 1.41385 7.03033 1.73192C7.03033 2.05 7.28819 2.30786 7.60627 2.30786Z" fill="white"/>
<path d="M3.22829 2.30786C3.54637 2.30786 3.80423 2.05 3.80423 1.73192C3.80423 1.41385 3.54637 1.15599 3.22829 1.15599C2.91021 1.15599 2.65236 1.41385 2.65236 1.73192C2.65236 2.05 2.91021 2.30786 3.22829 2.30786Z" fill="white"/>
<path d="M22.5936 21.9145C21.9828 21.5926 21.3452 21.3243 20.688 21.1126L20.6042 20.1856L17.2056 19.8194L16.7736 21.0043L15.554 21.462C15.5103 21.4785 15.4688 21.5002 15.4302 21.5264H15.4289C15.3608 21.5724 15.3028 21.6318 15.2585 21.701C15.2141 21.7702 15.1844 21.8477 15.171 21.9287C15.158 22.0093 15.1611 22.0917 15.1801 22.1711L15.2445 22.4354C15.3373 22.4908 15.4328 22.5437 15.5281 22.594L15.5888 22.6249C15.728 22.6971 15.8699 22.7655 16.0155 22.8286C16.0452 22.8415 16.0774 22.8544 16.1071 22.8673C16.1097 22.8686 16.1109 22.8686 16.1135 22.8699C16.1819 22.8983 16.2502 22.9253 16.3198 22.9511C16.5485 23.0385 16.7818 23.1134 17.0186 23.1755C17.623 23.3366 18.2458 23.418 18.8713 23.4179C19.0995 23.4179 19.3252 23.4075 19.5482 23.3856C20.0579 23.3386 20.561 23.237 21.049 23.0826C21.0503 23.0826 21.0516 23.0813 21.0528 23.0813C21.3611 22.9831 21.6622 22.8638 21.9541 22.7242C21.9554 22.7229 21.9579 22.7229 21.9593 22.7216C22.025 22.6907 22.0882 22.6572 22.1527 22.6249L22.1836 22.6095C22.2351 22.5824 22.2867 22.5553 22.3383 22.5269C22.4672 22.456 22.5936 22.3813 22.7186 22.3013C22.7534 22.2807 22.787 22.2588 22.8218 22.2356C22.8708 22.2033 22.9197 22.1698 22.9675 22.135C22.8475 22.0576 22.7225 21.9841 22.5936 21.9145Z" fill="#3F3D56"/>
<path d="M16.2154 22.4857L16.0026 21.5251H15.447C15.4414 21.5252 15.4358 21.5257 15.4302 21.5264H15.4289C15.2292 21.5433 15.0369 21.6098 14.8693 21.7198C14.7557 21.7924 14.6547 21.8829 14.5703 21.988C14.7353 22.1131 14.9067 22.2291 15.0834 22.34L15.0911 22.3439C15.1414 22.3748 15.193 22.4057 15.2446 22.4354C15.3374 22.4908 15.4328 22.5437 15.5282 22.594L15.5888 22.6249C15.728 22.6971 15.8699 22.7655 16.0156 22.8286C16.0452 22.8415 16.0774 22.8544 16.1071 22.8673C16.1097 22.8686 16.1109 22.8686 16.1135 22.8699C16.1819 22.8983 16.2502 22.9253 16.3198 22.9511L16.2154 22.4857Z" fill="#3F3D56"/>
<path d="M18.7715 19.2333C20.1233 19.2333 21.2192 18.1374 21.2192 16.7856C21.2192 15.4338 20.1233 14.3379 18.7715 14.3379C17.4197 14.3379 16.3238 15.4338 16.3238 16.7856C16.3238 18.1374 17.4197 19.2333 18.7715 19.2333Z" fill="#FFB8B8"/>
<path d="M17.1281 15.5934C17.3815 15.8933 17.8103 15.9779 18.2059 16.0126C19.1307 16.0637 20.0581 15.9879 20.9624 15.7875C21.0184 16.3306 20.8657 16.9161 21.1855 17.3629C21.3355 16.822 21.4227 16.2657 21.4454 15.7049C21.4693 15.4643 21.4379 15.2215 21.3536 14.9948C21.3085 14.8813 21.2324 14.7826 21.1341 14.7101C21.0357 14.6376 20.919 14.5942 20.7972 14.5847C20.9796 14.4463 21.1932 14.355 21.4192 14.3188L20.642 13.9282L20.8416 13.7233L19.4345 13.6372L19.842 13.3783C19.2287 13.294 18.6081 13.2744 17.9906 13.3199C17.7039 13.341 17.4041 13.3813 17.1718 13.5475C16.9395 13.7136 16.8052 14.0438 16.9495 14.2877C16.7689 14.3174 16.5989 14.3926 16.4555 14.5064C16.3122 14.6201 16.2003 14.7685 16.1303 14.9376C16.0419 15.2064 16.0206 15.4927 16.0682 15.7717C16.1212 16.2192 16.2252 16.6592 16.3781 17.083L17.1281 15.5934Z" fill="#2F2E41"/>
<path d="M25.6544 14.1322C25.311 13.1456 24.7565 12.2458 24.0295 11.4956C23.3026 10.7453 22.4208 10.1626 21.4456 9.78814C20.4703 9.41368 19.4251 9.25647 18.3829 9.32746C17.3406 9.39844 16.3264 9.69593 15.4109 10.1992C14.4955 10.7024 13.7008 11.3993 13.0823 12.2412C12.4639 13.0831 12.0365 14.0498 11.83 15.0738C11.6235 16.0979 11.6429 17.1547 11.8868 18.1705C12.1307 19.1862 12.5933 20.1366 13.2422 20.9553C13.3067 21.0365 13.3737 21.1177 13.4421 21.1964C13.4473 21.2015 13.4511 21.2067 13.4563 21.2118C13.6243 21.4055 13.8029 21.5897 13.9913 21.7637C14.0404 21.8088 14.0919 21.8552 14.1435 21.899C14.2414 21.9867 14.342 22.0705 14.4465 22.1505C14.4877 22.1827 14.5277 22.2149 14.5702 22.2459C14.7352 22.3709 14.9067 22.487 15.0834 22.5978L15.0911 22.6017C15.1414 22.6327 15.193 22.6636 15.2445 22.6933C15.3373 22.7487 15.4328 22.8016 15.5282 22.8518L15.5888 22.8828C15.728 22.955 15.8699 23.0233 16.0156 23.0865C16.0452 23.0994 16.0774 23.1123 16.1071 23.1252C16.1097 23.1265 16.1109 23.1265 16.1135 23.1278C16.1819 23.1561 16.2502 23.1832 16.3198 23.209C16.5485 23.2963 16.7818 23.3712 17.0186 23.4333C17.623 23.5944 18.2459 23.6759 18.8714 23.6757C19.0996 23.6757 19.3252 23.6654 19.5483 23.6435C20.0579 23.5964 20.561 23.4949 21.049 23.3405C21.0503 23.3405 21.0516 23.3392 21.0529 23.3392C21.3611 23.241 21.6623 23.1217 21.9541 22.9821C21.9554 22.9808 21.958 22.9808 21.9593 22.9795C22.025 22.9485 22.0882 22.915 22.1527 22.8828L22.1836 22.8673C22.2351 22.8402 22.2868 22.8132 22.3383 22.7848C22.4673 22.7139 22.5936 22.6391 22.7186 22.5592C22.7535 22.5385 22.787 22.5166 22.8218 22.4934C22.8708 22.4612 22.9198 22.4277 22.9675 22.3928C23.0306 22.349 23.0938 22.3039 23.1557 22.2575C23.1751 22.2433 23.1957 22.2291 23.215 22.2136C24.423 21.2968 25.3096 20.021 25.7478 18.5693C26.186 17.1175 26.1533 15.5643 25.6544 14.1322H25.6544ZM22.9778 21.9003C22.9353 21.9339 22.8914 21.9661 22.8476 21.9957C22.805 22.028 22.7625 22.0589 22.7186 22.0873C22.6812 22.1144 22.6438 22.1401 22.6052 22.1646L22.5936 22.1724C22.5652 22.1917 22.5369 22.2098 22.5085 22.2278C22.4015 22.2949 22.2932 22.3593 22.1836 22.4212C22.172 22.4277 22.1603 22.4341 22.1488 22.4406C22.0998 22.4676 22.0508 22.4934 22.0018 22.5192C21.9953 22.5231 21.9876 22.5257 21.9812 22.5295L21.9734 22.5334C21.9116 22.5656 21.8483 22.5966 21.7852 22.6262C21.5414 22.7436 21.2903 22.8453 21.0335 22.9305C21 22.9421 20.9665 22.9537 20.933 22.964C20.4711 23.1109 19.9948 23.2077 19.5122 23.2528C19.3007 23.2722 19.0867 23.2825 18.8714 23.2825C18.2797 23.2837 17.6906 23.2065 17.1192 23.053C16.826 22.9764 16.5386 22.8791 16.2592 22.7616C16.245 22.7551 16.2295 22.75 16.2154 22.7435C16.1999 22.7371 16.1857 22.7319 16.1715 22.7255C16.1561 22.719 16.1419 22.7126 16.1264 22.7049C16.0052 22.652 15.8853 22.594 15.768 22.5334L15.7113 22.5037C15.5681 22.429 15.4276 22.349 15.2909 22.2639C15.251 22.2394 15.2097 22.2136 15.171 22.1866C15.1608 22.1801 15.1517 22.1737 15.1414 22.1672C15.0498 22.1066 14.9583 22.0434 14.8693 21.9777C14.8088 21.9326 14.7481 21.8874 14.6888 21.841C14.5896 21.7662 14.4941 21.6863 14.4013 21.6038C14.3523 21.5625 14.3046 21.5174 14.2582 21.4749C14.0754 21.3061 13.9024 21.127 13.7399 20.9385C13.6858 20.8766 13.6329 20.8147 13.5826 20.7503C13.5712 20.7375 13.5604 20.7242 13.5504 20.7103C12.7127 19.6532 12.2088 18.3706 12.103 17.026C11.9972 15.6814 12.2944 14.3357 12.9565 13.1606C13.6186 11.9856 14.6156 11.0343 15.8206 10.4282C17.0255 9.82214 18.3836 9.58866 19.7218 9.75758C21.0599 9.92649 22.3174 10.4901 23.3339 11.3766C24.3504 12.2631 25.0799 13.4323 25.4292 14.7351C25.7785 16.0378 25.7319 17.4151 25.2953 18.6912C24.8587 19.9674 24.0519 21.0846 22.9778 21.9003Z" fill="#3F3D56"/>
<path d="M86.7792 48.6032C86.4358 47.6166 85.8813 46.7168 85.1544 45.9665C84.4275 45.2162 83.5456 44.6336 82.5704 44.2591C81.5952 43.8846 80.55 43.7274 79.5077 43.7984C78.4655 43.8694 77.4513 44.1669 76.5358 44.6701C75.6203 45.1734 74.8257 45.8702 74.2072 46.7121C73.5887 47.5541 73.1613 48.5207 72.9549 49.5448C72.7484 50.5689 72.7678 51.6256 73.0117 52.6414C73.2556 53.6572 73.7181 54.6076 74.3671 55.4262C74.4315 55.5074 74.4986 55.5887 74.5669 55.6673C74.572 55.6725 74.5759 55.6776 74.581 55.6828C74.7491 55.8764 74.9278 56.0606 75.1162 56.2346C75.1651 56.2797 75.2167 56.3262 75.2682 56.37C75.3663 56.4577 75.4668 56.5415 75.5712 56.6214C75.7752 56.7821 75.9878 56.9315 76.2082 57.0688L76.2159 57.0727C76.359 57.1616 76.5047 57.2441 76.653 57.3228L76.7136 57.3537C76.8528 57.4259 76.9946 57.4943 77.1403 57.5575C77.17 57.5703 77.2022 57.5832 77.2319 57.5961C77.2344 57.5974 77.2358 57.5974 77.2384 57.5987C77.5327 57.7211 77.8351 57.8232 78.1435 57.9043C78.7478 58.0654 79.3707 58.1468 79.9961 58.1467C80.2243 58.1467 80.45 58.1364 80.673 58.1144C81.1827 58.0674 81.6858 57.9658 82.1738 57.8114C82.1751 57.8114 82.1764 57.8102 82.1776 57.8102C82.4859 57.712 82.787 57.5926 83.0789 57.453C83.0802 57.4517 83.0828 57.4517 83.0841 57.4504C83.1498 57.4195 83.213 57.386 83.2774 57.3537L83.3084 57.3383C83.36 57.3112 83.4115 57.2841 83.4631 57.2558C83.592 57.1848 83.7184 57.1101 83.8435 57.0301C83.8783 57.0095 83.9118 56.9876 83.9466 56.9644C84.06 56.8896 84.1722 56.8096 84.2805 56.7284C84.2999 56.7142 84.3205 56.7001 84.3399 56.6846C85.5477 55.7677 86.4343 54.492 86.8725 53.0402C87.3107 51.5885 87.2781 50.0353 86.7792 48.6032Z" fill="white"/>
<path d="M82.3664 53.9247C82.9609 53.9247 83.4428 53.4428 83.4428 52.8483C83.4428 52.2538 82.9609 51.7719 82.3664 51.7719C81.7719 51.7719 81.2899 52.2538 81.2899 52.8483C81.2899 53.4428 81.7719 53.9247 82.3664 53.9247Z" fill="#2F2E41"/>
<path d="M82.6663 51.8015C82.8526 51.8015 83.0357 51.8499 83.1978 51.9418C83.3598 52.0338 83.4952 52.1663 83.5907 52.3262C83.6862 52.4862 83.7385 52.6682 83.7426 52.8545C83.7467 53.0408 83.7023 53.2249 83.6139 53.3889C83.7072 53.2721 83.7752 53.1372 83.8135 52.9927C83.8518 52.8483 83.8595 52.6974 83.8363 52.5497C83.813 52.4021 83.7593 52.2609 83.6785 52.1352C83.5977 52.0095 83.4915 51.9019 83.3669 51.8195C83.2422 51.737 83.1017 51.6815 82.9544 51.6563C82.8071 51.6311 82.6561 51.6369 82.5111 51.6733C82.3662 51.7097 82.2304 51.7759 82.1124 51.8677C81.9944 51.9595 81.8969 52.0748 81.8259 52.2064C81.9266 52.08 82.0544 51.978 82.1999 51.9079C82.3454 51.8378 82.5049 51.8014 82.6664 51.8015H82.6663Z" fill="#2F2E41"/>
<path d="M80.3548 52.846C82.1012 52.846 83.517 51.4302 83.517 49.6838C83.517 47.9374 82.1012 46.5217 80.3548 46.5217C78.6084 46.5217 77.1927 47.9374 77.1927 49.6838C77.1927 51.4302 78.6084 52.846 80.3548 52.846Z" fill="#2F2E41"/>
<path d="M77.873 47.7219C78.4179 47.1091 79.1795 46.732 79.9972 46.6701C80.8148 46.6082 81.6245 46.8665 82.2554 47.3903C82.2296 47.3656 82.2038 47.3409 82.1771 47.317C81.5525 46.7574 80.7311 46.4689 79.8937 46.5149C79.0563 46.5609 78.2715 46.9377 77.7119 47.5623C77.1523 48.187 76.8638 49.0084 76.9098 49.8458C76.9558 50.6832 77.3325 51.468 77.9572 52.0276C77.9632 52.033 77.9692 52.0383 77.9753 52.0436C78.0021 52.0675 78.0297 52.0901 78.0571 52.1129C77.463 51.5477 77.1118 50.7738 77.0775 49.9546C77.0431 49.1353 77.3284 48.3348 77.8731 47.7219H77.873Z" fill="#2F2E41"/>
<path d="M80.328 52.8192C81.4528 52.8192 82.3646 51.9074 82.3646 50.7826C82.3646 49.6578 81.4528 48.746 80.328 48.746C79.2032 48.746 78.2914 49.6578 78.2914 50.7826C78.2914 51.9074 79.2032 52.8192 80.328 52.8192Z" fill="#A0616A"/>
<path d="M83.9724 56.0889V56.7723C83.8473 56.8522 83.721 56.927 83.5921 56.9979C83.5405 57.0262 83.4889 57.0533 83.4374 57.0804L83.4064 57.0959C83.3419 57.1281 83.2787 57.1616 83.213 57.1926C83.2117 57.1939 83.2091 57.1939 83.2078 57.1952C82.916 57.3348 82.6149 57.4541 82.3066 57.5523C82.3053 57.5523 82.3041 57.5536 82.3028 57.5536C81.8148 57.7079 81.3116 57.8095 80.802 57.8566C80.5789 57.8785 80.3533 57.8888 80.1251 57.8888C79.4996 57.889 78.8768 57.8075 78.2724 57.6464C77.9641 57.5654 77.6617 57.4633 77.3673 57.3408C77.3647 57.3395 77.3634 57.3396 77.3608 57.3383C77.3312 57.3254 77.2989 57.3125 77.2693 57.2996C77.1236 57.2364 76.9818 57.1681 76.8425 57.0959L76.7819 57.0649C76.6336 56.9863 76.488 56.9038 76.3449 56.8148L76.3371 56.8109C76.1167 56.6736 75.9041 56.5243 75.7002 56.3635C75.5958 56.2836 75.4952 56.1998 75.3972 56.1121C75.3456 56.0683 75.2941 56.0219 75.2451 55.9768C75.0567 55.8028 74.8781 55.6186 74.71 55.4249C74.7323 55.2906 74.7651 55.1583 74.808 55.0291L74.8093 55.0278C74.817 55.0058 74.826 54.9843 74.8363 54.9634C74.8435 54.9448 74.8516 54.9268 74.8608 54.9092C75.0916 54.4773 75.5094 54.3703 76.0277 54.3471C76.3204 54.3342 76.644 54.3484 76.9857 54.3445C77.1662 54.3432 77.3531 54.3367 77.5401 54.32C78.7198 54.213 78.5058 53.5168 78.5586 53.1416C78.6115 52.778 78.939 53.0926 78.9609 53.1132L78.9621 53.1145C79.6297 53.4269 80.3683 53.5564 81.1024 53.4897C81.2288 53.4742 81.3551 53.4652 81.4814 53.4613C81.8141 53.4574 81.7419 53.5529 81.6272 53.6315C81.5715 53.6681 81.5133 53.7009 81.4531 53.7295C81.4531 53.7295 81.4002 54.0518 81.3461 54.534C81.2945 54.9956 82.179 55.2122 82.2525 55.229C82.254 55.23 82.2558 55.2304 82.2576 55.2302C82.5806 55.1465 82.9207 55.1554 83.2388 55.256H83.2401C83.4219 55.3229 83.5841 55.4341 83.712 55.5795C83.8399 55.725 83.9294 55.9001 83.9724 56.0889Z" fill="#2AAE97"/>
<path d="M77.3801 56.918C77.3801 57.0134 77.3776 57.1049 77.3737 57.1913C77.3725 57.2429 77.3699 57.2931 77.3673 57.3408C77.3647 57.3396 77.3634 57.3396 77.3608 57.3383C77.3312 57.3254 77.2989 57.3125 77.2693 57.2996C77.1236 57.2364 76.9818 57.1681 76.8425 57.0959L76.7819 57.0649C76.6336 56.9863 76.4879 56.9038 76.3449 56.8148C76.3487 56.7697 76.3552 56.7246 76.3616 56.6794C76.3758 56.5802 76.3874 56.4796 76.3952 56.3803C76.4458 55.6829 76.3194 54.9839 76.0277 54.3484V54.3471C76.0019 54.2955 75.9865 54.2671 75.9865 54.2671C75.9865 54.2671 76.3616 53.9448 76.8966 54.2671C76.9308 54.2872 76.961 54.3135 76.9857 54.3445C77.308 54.7248 77.3956 56.0038 77.3801 56.918Z" fill="#2F2E41"/>
<path d="M83.2349 56.7426C83.2298 56.887 83.222 57.0379 83.213 57.1913V57.1926C83.2118 57.1939 83.2091 57.1939 83.2079 57.1952C82.916 57.3348 82.6149 57.4541 82.3066 57.5523C82.3053 57.5523 82.3041 57.5536 82.3028 57.5536L82.2886 57.1913L82.2873 57.1436L82.219 55.3798C82.2171 55.3399 82.2234 55.3 82.2374 55.2626C82.2514 55.2251 82.2729 55.1909 82.3005 55.162C82.3281 55.1331 82.3612 55.1101 82.398 55.0943C82.4347 55.0786 82.4742 55.0704 82.5142 55.0704H83.1679C83.2001 55.0704 83.2233 55.1361 83.2388 55.2547V55.256C83.2705 55.7511 83.2692 56.2477 83.2349 56.7426Z" fill="#2F2E41"/>
<path d="M78.5862 48.2368V50.2739H79.0578L79.658 49.6308L79.5776 50.2739H81.6624L81.5335 49.6308L81.7914 50.2739H82.1238V48.2368H78.5862Z" fill="#2F2E41"/>
<path d="M78.2646 50.6486C78.3534 50.6486 78.4254 50.5167 78.4254 50.3539C78.4254 50.1911 78.3534 50.0591 78.2646 50.0591C78.1758 50.0591 78.1038 50.1911 78.1038 50.3539C78.1038 50.5167 78.1758 50.6486 78.2646 50.6486Z" fill="#A0616A"/>
<path d="M82.3916 50.6486C82.4803 50.6486 82.5523 50.5167 82.5523 50.3539C82.5523 50.1911 82.4803 50.0591 82.3916 50.0591C82.3028 50.0591 82.2308 50.1911 82.2308 50.3539C82.2308 50.5167 82.3028 50.6486 82.3916 50.6486Z" fill="#A0616A"/>
<path d="M84.4095 56.4706C84.3012 56.5518 84.189 56.6317 84.0755 56.7065C84.0407 56.7297 84.0072 56.7516 83.9724 56.7723C83.8473 56.8522 83.721 56.927 83.5921 56.9979C83.5405 57.0262 83.4889 57.0533 83.4374 57.0804V55.6596C83.4374 55.6596 83.6436 55.8246 83.9724 56.0992C84.0137 56.134 84.0562 56.1702 84.1014 56.2088C84.1967 56.2888 84.2999 56.3764 84.4095 56.4706Z" fill="#2AAE97"/>
<path d="M86.7792 48.6032C86.4358 47.6166 85.8813 46.7168 85.1544 45.9665C84.4275 45.2162 83.5456 44.6336 82.5704 44.2591C81.5952 43.8846 80.55 43.7274 79.5077 43.7984C78.4655 43.8694 77.4513 44.1669 76.5358 44.6701C75.6203 45.1734 74.8257 45.8702 74.2072 46.7121C73.5887 47.5541 73.1613 48.5207 72.9549 49.5448C72.7484 50.5689 72.7678 51.6256 73.0117 52.6414C73.2556 53.6572 73.7181 54.6076 74.3671 55.4262C74.4315 55.5074 74.4986 55.5887 74.5669 55.6673C74.572 55.6725 74.5759 55.6776 74.581 55.6828C74.7491 55.8764 74.9278 56.0606 75.1162 56.2346C75.1651 56.2797 75.2167 56.3262 75.2682 56.37C75.3663 56.4577 75.4668 56.5415 75.5712 56.6214C75.7752 56.7821 75.9878 56.9315 76.2082 57.0688L76.2159 57.0727C76.359 57.1616 76.5047 57.2441 76.653 57.3228L76.7136 57.3537C76.8528 57.4259 76.9946 57.4943 77.1403 57.5575C77.17 57.5703 77.2022 57.5832 77.2319 57.5961C77.2344 57.5974 77.2358 57.5974 77.2384 57.5987C77.5327 57.7211 77.8351 57.8232 78.1435 57.9043C78.7478 58.0654 79.3707 58.1468 79.9961 58.1467C80.2243 58.1467 80.45 58.1364 80.673 58.1144C81.1827 58.0674 81.6858 57.9658 82.1738 57.8114C82.1751 57.8114 82.1764 57.8102 82.1776 57.8102C82.4859 57.712 82.787 57.5926 83.0789 57.453C83.0802 57.4517 83.0828 57.4517 83.0841 57.4504C83.1498 57.4195 83.213 57.386 83.2774 57.3537L83.3084 57.3383C83.36 57.3112 83.4115 57.2841 83.4631 57.2558C83.592 57.1848 83.7184 57.1101 83.8435 57.0301C83.8783 57.0095 83.9118 56.9876 83.9466 56.9644C84.06 56.8896 84.1722 56.8096 84.2805 56.7284C84.2999 56.7142 84.3205 56.7001 84.3399 56.6846C85.5477 55.7677 86.4343 54.492 86.8725 53.0402C87.3107 51.5885 87.2781 50.0353 86.7792 48.6032ZM84.1026 56.3713C84.06 56.4048 84.0162 56.437 83.9724 56.4667C83.9298 56.4989 83.8873 56.5299 83.8435 56.5582C83.8061 56.5853 83.7687 56.6111 83.73 56.6356C83.6977 56.6575 83.6655 56.6781 83.6333 56.6988C83.5263 56.7658 83.418 56.8303 83.3084 56.8922C83.2968 56.8986 83.2852 56.9051 83.2735 56.9115C83.2246 56.9386 83.1756 56.9644 83.1266 56.9902C83.1201 56.994 83.1124 56.9966 83.106 57.0005L83.0982 57.0043C83.0363 57.0366 82.9732 57.0675 82.91 57.0972C82.6662 57.2146 82.4151 57.3162 82.1583 57.4014C82.1248 57.413 82.0913 57.4247 82.0578 57.435C81.5959 57.5819 81.1195 57.6787 80.6369 57.7238C80.4255 57.7431 80.2114 57.7534 79.9961 57.7534C79.4045 57.7546 78.8153 57.6775 78.244 57.5239C77.9508 57.4474 77.6634 57.35 77.384 57.2325C77.3544 57.2209 77.3247 57.208 77.2963 57.1964C77.2809 57.19 77.2667 57.1836 77.2512 57.1758C77.13 57.123 77.0101 57.0649 76.8928 57.0043L76.8361 56.9747C76.693 56.8999 76.5524 56.82 76.4157 56.7349C76.3655 56.7039 76.3152 56.6717 76.2662 56.6382C76.1115 56.5363 75.9606 56.4267 75.8136 56.312C75.7143 56.2372 75.619 56.1573 75.5261 56.0747C75.4771 56.0335 75.4294 55.9884 75.383 55.9458C75.2002 55.777 75.0272 55.5979 74.8647 55.4095C74.8106 55.3476 74.7577 55.2857 74.7074 55.2212C74.696 55.2085 74.6852 55.1951 74.6752 55.1813C73.8375 54.1242 73.3336 52.8415 73.2278 51.4969C73.122 50.1523 73.4191 48.8067 74.0812 47.6316C74.7433 46.4565 75.7404 45.5053 76.9453 44.8992C78.1503 44.2931 79.5084 44.0596 80.8465 44.2285C82.1847 44.3975 83.4422 44.9611 84.4587 45.8476C85.4752 46.7341 86.2047 47.9033 86.554 49.206C86.9033 50.5088 86.8567 51.886 86.4201 53.1622C85.9835 54.4383 85.1767 55.5555 84.1026 56.3713Z" fill="#3F3D56"/>
<path d="M86.3748 48.04C86.553 47.9754 86.7148 47.8725 86.849 47.7386C86.9831 47.6047 87.0862 47.443 87.1511 47.2649C87.2159 47.0868 87.241 46.8966 87.2244 46.7078C87.2078 46.519 87.15 46.3361 87.0552 46.172L90.0668 42.6853L87.6927 42.3763L85.1967 45.7347C84.9316 45.9124 84.741 46.1812 84.6608 46.4901C84.5807 46.7989 84.6166 47.1265 84.7618 47.4106C84.907 47.6948 85.1514 47.9158 85.4487 48.0318C85.746 48.1478 86.0755 48.1507 86.3748 48.04V48.04Z" fill="#FFB8B8"/>
<path d="M103.35 48.7768C103.475 48.6343 103.568 48.4661 103.62 48.2841C103.673 48.1021 103.686 47.9107 103.657 47.7234C103.628 47.5361 103.558 47.3575 103.452 47.2C103.347 47.0426 103.208 46.9102 103.046 46.8122L104.003 42.3055L101.774 43.1795L101.207 47.3252C101.06 47.6087 101.023 47.936 101.101 48.2453C101.18 48.5546 101.37 48.8242 101.634 49.0031C101.898 49.1821 102.219 49.2578 102.535 49.2161C102.851 49.1744 103.142 49.0181 103.35 48.7768Z" fill="#FFB8B8"/>
<path d="M92.5635 72.2644L90.9828 72.2643L90.2308 66.1674L92.5637 66.1676L92.5635 72.2644Z" fill="#FFB8B8"/>
<path d="M92.9666 73.7966L87.8699 73.7965V73.732C87.8699 73.4715 87.9212 73.2135 88.0209 72.9728C88.1206 72.7321 88.2667 72.5134 88.4509 72.3292C88.6351 72.145 88.8538 71.9989 89.0945 71.8992C89.3352 71.7995 89.5931 71.7482 89.8537 71.7482H89.8538L92.9667 71.7484L92.9666 73.7966Z" fill="#2F2E41"/>
<path d="M100.299 72.2644L98.7186 72.2643L97.9667 66.1674L100.3 66.1676L100.299 72.2644Z" fill="#FFB8B8"/>
<path d="M100.702 73.7966L95.6057 73.7965V73.732C95.6057 73.4715 95.657 73.2135 95.7567 72.9728C95.8564 72.7321 96.0025 72.5134 96.1867 72.3292C96.371 72.145 96.5897 71.9989 96.8303 71.8992C97.071 71.7995 97.329 71.7482 97.5895 71.7482H97.5896L100.703 71.7484L100.702 73.7966Z" fill="#2F2E41"/>
<path d="M92.7281 69.0808L90.4906 68.9913C90.3379 68.9847 90.194 68.9184 90.0899 68.8066C89.9857 68.6949 89.9297 68.5466 89.9339 68.3939L90.5643 47.7161L90.6054 47.7012C94.527 46.2826 97.7712 46.3899 100.524 48.0287L100.554 48.0471L100.932 68.1864C100.933 68.2635 100.92 68.3401 100.891 68.4118C100.863 68.4834 100.82 68.5487 100.766 68.6037C100.712 68.6588 100.648 68.7025 100.576 68.7323C100.505 68.7622 100.429 68.7775 100.352 68.7775H98.4651C98.3307 68.7773 98.2006 68.7305 98.0968 68.6451C97.993 68.5598 97.922 68.4411 97.8958 68.3093L95.3255 55.2345C95.3167 55.1893 95.292 55.1488 95.2559 55.1202C95.2198 55.0916 95.1747 55.0768 95.1287 55.0785C95.0826 55.0802 95.0388 55.0983 95.0049 55.1294C94.971 55.1606 94.9493 55.2029 94.9438 55.2486L93.3273 68.571C93.3095 68.7115 93.2412 68.8407 93.1352 68.9346C93.0292 69.0285 92.8927 69.0806 92.7511 69.0812C92.7435 69.0812 92.7358 69.0811 92.7281 69.0808Z" fill="#2F2E41"/>
<path d="M94.905 29.5823C96.6539 29.5823 98.0716 28.1645 98.0716 26.4156C98.0716 24.6667 96.6539 23.249 94.905 23.249C93.1561 23.249 91.7383 24.6667 91.7383 26.4156C91.7383 28.1645 93.1561 29.5823 94.905 29.5823Z" fill="#FFB8B8"/>
<path d="M87.445 45.5231C87.3351 45.4797 87.2411 45.4039 87.1754 45.3057L86.5635 44.3901C86.4975 44.2908 86.4636 44.1736 86.4663 44.0544C86.4691 43.9352 86.5084 43.8198 86.5789 43.7236L89.0456 40.3756L90.5909 32.9606C90.6798 32.7317 90.813 32.5225 90.9828 32.3451C91.1526 32.1677 91.3557 32.0254 91.5804 31.9265C91.8052 31.8276 92.0473 31.774 92.2928 31.7687C92.5384 31.7634 92.7825 31.8065 93.0114 31.8956C93.2402 31.9847 93.4493 32.118 93.6266 32.288C93.8038 32.4579 93.9459 32.6611 94.0446 32.886C94.1433 33.1109 94.1968 33.353 94.2019 33.5985C94.2069 33.8441 94.1636 34.0882 94.0743 34.317L93.3439 39.036C93.1224 40.4683 92.3883 41.7714 91.2779 42.7029L88.0308 45.4278C87.9683 45.4802 87.8955 45.5188 87.8172 45.5412C87.7388 45.5636 87.6566 45.5692 87.5759 45.5577C87.531 45.5514 87.4871 45.5397 87.445 45.5231Z" fill="#3F3D56"/>
<path d="M103.215 45.859C103.104 45.8991 102.983 45.9043 102.869 45.874L101.805 45.591C101.69 45.5601 101.587 45.4945 101.51 45.4032C101.434 45.3119 101.387 45.1993 101.376 45.0805L101.016 40.9376L97.2763 34.3507C97.1917 34.1201 97.1534 33.8751 97.1636 33.6296C97.1738 33.3842 97.2322 33.1432 97.3356 32.9204C97.4389 32.6976 97.5852 32.4973 97.766 32.3311C97.9468 32.1648 98.1586 32.0359 98.3893 31.9515C98.62 31.8672 98.8651 31.8292 99.1105 31.8396C99.3559 31.8501 99.5968 31.9088 99.8195 32.0124C100.042 32.116 100.242 32.2625 100.408 32.4435C100.574 32.6245 100.703 32.8365 100.787 33.0673L103.357 37.0921C104.137 38.3136 104.447 39.7768 104.229 41.2096L103.592 45.4005C103.58 45.481 103.551 45.5581 103.507 45.6267C103.462 45.6953 103.404 45.7538 103.336 45.7985C103.298 45.8234 103.258 45.8437 103.215 45.859Z" fill="#3F3D56"/>
<path d="M91.4413 32.0392C91.9852 31.4428 92.6561 30.976 93.4044 30.6734C94.1528 30.3709 94.9596 30.2402 95.7652 30.291C95.8182 30.2943 95.8709 30.298 95.9234 30.3021H95.9235C96.687 30.3624 97.4289 30.5851 98.0995 30.9553C98.7701 31.3254 99.3539 31.8344 99.812 32.4483C100.278 33.0708 100.605 33.7855 100.772 34.5447C100.94 35.3039 100.943 36.09 100.782 36.8506C100.168 39.7572 100.324 42.7738 101.233 45.6019L102.083 48.2397C102.11 48.3242 102.117 48.4139 102.104 48.5017C102.091 48.5896 102.059 48.6733 102.008 48.7465C101.958 48.8196 101.891 48.8802 101.814 48.9236C101.736 48.967 101.65 48.9921 101.561 48.9968L97.2183 49.2303L96.1069 47.3106V49.29L90.8284 49.5738C90.8179 49.5745 90.8074 49.5747 90.797 49.5747C90.7169 49.5747 90.6377 49.5581 90.5643 49.5259C90.491 49.4938 90.4251 49.4468 90.3708 49.3879C90.3165 49.329 90.2749 49.2595 90.2488 49.1838C90.2227 49.1081 90.2125 49.0278 90.2189 48.9479L90.8155 41.5497L90.0672 36.5249C89.9461 35.722 90.0066 34.9022 90.2444 34.1259C90.4823 33.3496 90.8912 32.6365 91.4413 32.0392Z" fill="#3F3D56"/>
<path d="M97.1058 29.4387C96.8126 29.6074 95.6537 29.7192 95.5711 29.3912L95.5694 29.384C95.5119 29.1436 95.5596 28.8927 95.5761 28.6461C95.5926 28.3995 95.5685 28.1287 95.4005 27.9474C95.0875 27.6094 94.5306 27.7886 94.0779 27.7031C93.8128 27.6439 93.5783 27.4902 93.4183 27.2706C93.2584 27.051 93.1839 26.7807 93.2089 26.5101C93.2153 26.4589 93.2255 26.4076 93.2368 26.3563C93.2651 26.2264 93.2629 26.0917 93.2304 25.9627C93.1979 25.8338 93.1359 25.7142 93.0494 25.6132C92.9629 25.5123 92.8541 25.4327 92.7317 25.3809C92.6092 25.329 92.4764 25.3063 92.3437 25.3144C91.8863 25.3405 91.3925 25.4791 91.014 25.1403C90.7213 24.8783 90.6499 24.1962 90.7785 23.825C90.9946 23.2012 92.379 22.8747 92.9834 22.6951C93.731 22.4791 94.5173 22.4324 95.2852 22.5584C96.0531 22.6844 96.7832 22.98 97.4226 23.4235C97.8044 23.6926 98.1609 24.0308 98.3236 24.4686C98.4864 24.9065 98.4079 25.4588 98.0409 25.7479C98.3254 26.049 98.5256 26.4196 98.6217 26.8225C98.7178 27.2255 98.7063 27.6466 98.5884 28.0437C98.4072 28.6277 97.5422 29.1875 97.1058 29.4387Z" fill="#2F2E41"/>
<path d="M106.456 74H78.9935C78.9593 74 78.9265 73.9864 78.9023 73.9622C78.8781 73.938 78.8645 73.9053 78.8645 73.8711C78.8645 73.8369 78.8781 73.8041 78.9023 73.7799C78.9265 73.7557 78.9593 73.7421 78.9935 73.7421H106.456C106.49 73.7421 106.523 73.7557 106.547 73.7799C106.571 73.8041 106.585 73.8369 106.585 73.8711C106.585 73.9053 106.571 73.938 106.547 73.9622C106.523 73.9864 106.49 74 106.456 74Z" fill="#CCCCCC"/>
</g>
<defs>
<clipPath id="clip0_75_140">
<rect width="106.585" height="74" fill="white"/>
</clipPath>
</defs>
</svg>
