<svg width="97" height="74" viewBox="0 0 97 74" fill="none" xmlns="http://www.w3.org/2000/svg">
<g clip-path="url(#clip0_5_396)">
<path d="M90.2388 63.791L90.4042 60.071C92.1289 59.1491 94.0526 58.6622 96.0081 58.6525C93.3167 60.8529 93.653 65.0947 91.8283 68.0538C91.2521 68.9723 90.4766 69.7494 89.5592 70.3275C88.6419 70.9056 87.6062 71.2699 86.5289 71.3933L84.2766 72.7723C83.9675 71.0494 84.0357 69.2799 84.4763 67.5859C84.917 65.8918 85.7196 64.3134 86.829 62.9594C87.4589 62.206 88.1811 61.5349 88.9787 60.962C89.5181 62.3844 90.2388 63.791 90.2388 63.791Z" fill="#F2F2F2"/>
<path d="M56.0843 73.6983C54.9371 73.6167 54.6379 73.843 52.9023 73.6983H49.7203L50.1342 66.0835L55.1436 68.0908L80.0375 68.7019L80.0229 68.7441C80.0116 68.7767 78.9064 72.0096 79.7703 73.2339L79.8061 73.2845L79.7362 73.2852L56.9 73.4946C56.6506 73.4969 56.3316 73.7159 56.0843 73.6983Z" fill="#F2F2F2"/>
<path d="M57.3755 73.7979C55.1594 73.6402 52.8648 74.5017 50.9496 73.5291L49.4187 73.6219L49.4144 73.609C49.4025 73.5737 48.6793 67.8834 50.1413 65.6772L50.2057 65.5801L50.2559 66.1026L49.774 73.191L50.8422 72.8345C53.4365 74.0556 56.522 73.2492 59.4913 73.2379L79.6991 73.1632C80.1224 73.1618 80.475 73.451 80.4863 73.8081L80.4874 73.843L58.5961 73.8413C58.1878 73.8413 57.781 73.8268 57.3755 73.7979Z" fill="#CCCCCC"/>
<path d="M78.6339 70.2377L55.8932 69.7857L55.8699 69.777L50.4971 67.7634L50.5987 67.4925L55.9483 69.4976L78.6397 69.9484L78.6339 70.2377Z" fill="#E6E6E6"/>
<path d="M78.5126 71.4553L55.7719 71.0034L55.7487 70.9947L50.3758 68.9811L50.4773 68.7102L55.8271 70.7152L78.5184 71.1661L78.5126 71.4553Z" fill="#E6E6E6"/>
<path d="M78.3912 72.6732L55.6505 72.2211L55.6274 72.2124L50.2544 70.1986L50.356 69.9277L55.7058 71.9329L78.397 72.3839L78.3912 72.6732Z" fill="#E6E6E6"/>
<path d="M57.5326 68.7805C55.4241 68.6381 53.3684 68.0581 51.4964 67.0774L49.9202 66.2414L49.9614 65.8281C49.9728 65.7674 50.0064 65.7132 50.0554 65.6757C50.1045 65.6383 50.1657 65.6203 50.2272 65.6253L50.3664 65.627L71.5742 65.9391C72.9622 65.9563 74.3376 66.206 75.6432 66.6776L80.264 68.3552L80.2615 68.3796C80.2227 68.769 79.8301 69.0699 79.3677 69.0645L58.4773 68.8197C58.1613 68.816 57.8464 68.8029 57.5326 68.7805Z" fill="#E6E6E6"/>
<path d="M80.2196 68.4447L80.2148 68.4445L54.7828 67.8617L54.7652 67.8536L50.1799 65.7302L50.2265 65.6592L50.3658 65.6609L54.8254 67.7272L80.0216 68.304L80.2235 68.3088L80.2196 68.4447Z" fill="#CCCCCC"/>
<path d="M60.4485 65.8095L60.1256 65.8049L52.8372 65.6971L52.4918 65.6923C54.1571 67.4653 57.8393 67.9089 63.2366 67.222L60.4485 65.8095Z" fill="#CCCCCC"/>
<path d="M80.9403 23.4042L81.3849 24.4385L80.6583 28.1115L73.2449 27.0808L73.3041 22.6019L73.4529 21.6209L80.9403 23.4042Z" fill="#FFB6B6"/>
<path d="M84.7704 71.0081H83.1349L82.3564 64.6997H84.7704V71.0081Z" fill="#FFB6B6"/>
<path d="M79.9054 73.1432C79.9056 73.3285 79.9793 73.5061 80.1103 73.6371C80.2413 73.7682 80.4189 73.8418 80.6042 73.842H83.7158L84.2521 72.7348L84.4604 73.842H85.6332L85.3035 69.8873L84.7705 69.8561L82.9793 69.7495L82.6906 69.7315V70.8518L80.2072 72.5675C80.1141 72.6319 80.038 72.7179 79.9854 72.8182C79.9329 72.9185 79.9054 73.03 79.9054 73.1432Z" fill="#2F2E41"/>
<path d="M69.6533 63.7763H68.0178L67.0557 54.4888L70.1287 54.3053L69.6533 63.7763Z" fill="#FFB6B6"/>
<path d="M64.7882 65.9114C64.7884 66.0967 64.8621 66.2743 64.9931 66.4053C65.1241 66.5363 65.3017 66.61 65.487 66.6102H68.5986L69.1349 65.503L69.3432 66.6102H70.516L70.1863 62.6555L69.7107 62.6276L67.8883 62.5177L67.5734 62.4997V63.62L65.09 65.3357C64.9969 65.4001 64.9208 65.4861 64.8682 65.5864C64.8157 65.6867 64.7882 65.7982 64.7882 65.9114Z" fill="#2F2E41"/>
<path d="M85.4646 65.568H85.4583L85.1437 55.3106C85.3473 54.918 85.4506 54.4811 85.4445 54.0389C85.4383 53.5967 85.3229 53.1628 85.1085 52.776L85.0635 52.6945L85.1803 52.1532C85.3302 51.4578 85.2614 50.7331 84.9833 50.0783L84.6898 40.5101C85.7382 33.7159 80.7421 29.285 80.7421 29.285L81.2013 25.724L73.1204 25.9077L73.2578 29.285L71.6511 34.8055C70.8055 43.044 65.1143 48.2222 65.9794 56.1005C65.9811 56.1231 65.9778 56.1459 65.9695 56.167C65.8817 56.4339 65.8508 56.7162 65.8788 56.9958C65.9068 57.2753 65.993 57.5459 66.132 57.7901C66.168 57.8524 66.1927 57.9206 66.2051 57.9915C66.3833 59.3726 66.4065 57.6256 66.6427 58.9945L66.5968 59.0177C66.4313 59.0748 66.3603 59.3041 66.4382 59.5297C66.5161 59.7554 66.7134 59.892 66.8788 59.8349L71.1987 59.8811C71.3641 59.824 71.4351 59.5947 71.3572 59.3691C71.2793 59.1434 71.0821 59.0068 70.9166 59.0639L70.6479 59.1998L71.0975 57.7288L71.2551 57.5816C71.3306 57.5111 71.3892 57.4245 71.4265 57.3281C71.4638 57.2318 71.4788 57.1283 71.4704 57.0253C71.462 56.9223 71.4305 56.8226 71.3781 56.7335C71.3257 56.6445 71.2539 56.5684 71.168 56.5111L71.6159 54.1206L71.5523 52.3127L71.6833 50.2616L77.3514 42.0484L79.6447 53.3934L81.9871 65.6822C81.9324 65.7315 81.8914 65.794 81.8679 65.8637C81.8443 65.9334 81.8391 66.008 81.8527 66.0804C81.8743 66.1814 81.9303 66.2718 82.0112 66.336C82.0921 66.4003 82.1928 66.4344 82.2961 66.4325H85.4761C85.5427 66.4324 85.6085 66.417 85.6682 66.3873C85.7279 66.3577 85.78 66.3147 85.8204 66.2616C85.8607 66.2085 85.8883 66.1469 85.9009 66.0814C85.9136 66.0159 85.9109 65.9484 85.8932 65.8842C85.8663 65.7917 85.8099 65.7107 85.7324 65.6536C85.655 65.5965 85.5609 65.5664 85.4646 65.568Z" fill="#2F2E41"/>
<path d="M82.6368 5.95038C82.6371 6.60527 82.4765 7.25022 82.1693 7.82859C81.8621 8.40696 81.4176 8.90108 80.8749 9.26758C80.3322 9.63407 79.7078 9.86172 79.0565 9.93056C78.4052 9.9994 77.747 9.90732 77.1396 9.66239C76.5323 9.41746 75.9943 9.02718 75.573 8.52581C75.1517 8.02444 74.8599 7.42731 74.7232 6.78684C74.5865 6.14637 74.6091 5.48213 74.7891 4.85245C74.9691 4.22277 75.3008 3.64689 75.7553 3.17536L75.7745 3.15618C75.8065 3.12256 75.8385 3.08896 75.8721 3.05694C75.8724 3.05694 75.8726 3.0569 75.8728 3.05682C75.873 3.05674 75.8731 3.05662 75.8733 3.05647C75.8734 3.05632 75.8736 3.05615 75.8736 3.05595C75.8737 3.05576 75.8737 3.05555 75.8737 3.05534C75.9196 3.02184 75.962 2.98377 76.0002 2.94172C76.5403 2.18699 77.1526 1.55415 78.6359 1.94951C80.7715 2.51871 82.6368 3.74029 82.6368 5.95038Z" fill="#2F2E41"/>
<path d="M60.6592 4.23765C60.6501 4.4517 60.6881 4.66514 60.7704 4.86293C60.8528 5.06072 60.9775 5.23806 61.1358 5.38244C61.2941 5.52682 61.4821 5.63473 61.6866 5.69859C61.8911 5.76244 62.1072 5.78068 62.3195 5.75201L72.6375 14.22L74.2135 11.4499L63.5757 3.9972C63.5039 3.64371 63.3049 3.32883 63.0164 3.11223C62.728 2.89564 62.3701 2.79238 62.0106 2.82202C61.6511 2.85166 61.315 3.01214 61.0659 3.27305C60.8168 3.53396 60.6721 3.87717 60.6592 4.23765V4.23765Z" fill="#FFB6B6"/>
<path d="M76.9942 16.7173C76.9942 16.7173 76.9911 16.4123 75.3508 16.424C73.3148 16.4386 67.7074 13.5155 68.1979 10.7626C67.9651 10.8678 67.7038 10.8926 67.4553 10.833C67.2068 10.7734 66.9852 10.6328 66.8254 10.4334L69.5552 7.80511C70.4118 7.86297 70.4206 8.43617 70.3472 8.76531L72.5411 9.63707L78.2551 12.9199L77.2461 16.2174L76.9942 16.7173Z" fill="#2AAE97"/>
<path d="M77.6502 10.231C79.5031 10.231 81.0051 8.72892 81.0051 6.87606C81.0051 5.0232 79.5031 3.52116 77.6502 3.52116C75.7974 3.52116 74.2953 5.0232 74.2953 6.87606C74.2953 8.72892 75.7974 10.231 77.6502 10.231Z" fill="#FFB7B7"/>
<path d="M73.0393 23.563C72.854 23.8103 72.7594 24.1138 72.7713 24.4226C72.7833 24.7314 72.901 25.0267 73.1049 25.259C73.1065 25.3574 73.1213 25.4526 73.2607 25.8052C73.279 25.8394 73.3004 25.8718 73.3247 25.902C73.3292 25.9094 73.3341 25.9165 73.3394 25.9233C73.4863 26.1133 73.6905 26.2507 73.9217 26.3153L80.0629 28.0294L80.8748 28.2558L81.0175 28.2951L81.0963 27.1863C81.2789 27.035 81.4012 26.8232 81.4412 26.5895C81.4813 26.3557 81.4363 26.1153 81.3144 25.9118L81.2012 25.7248L81.8606 23.9517L81.9246 23.7762L83.6059 19.2507L83.6075 18.9489L83.6108 18.6373L83.6272 16.4623C83.628 15.7768 83.4699 15.1004 83.1654 14.4863C82.8609 13.8721 82.4182 13.3369 81.8721 12.9226C81.3747 12.5425 80.8013 12.274 80.1908 12.1353L80.1777 12.1336L79.5134 11.2397L76.8184 11.5087L76.5954 11.9663L76.3247 12.5174L74.3712 13.6804L73.7036 15.2321L73.2525 16.2818C72.5538 16.7838 72.1371 17.4284 72.0174 18.196C71.7615 19.8265 72.9032 21.4585 73.0393 21.6455L73.0737 23.5171L73.0393 23.563Z" fill="#2AAE97"/>
<path d="M81.1613 7.75557C81.1309 7.75077 81.1005 7.74436 81.0701 7.73955C80.5468 7.64674 80.0235 7.55553 79.5017 7.46109L79.4537 6.27845L78.8216 7.33786C77.3797 7.81637 76.0306 7.54592 74.7615 6.94899C74.3429 6.75027 73.9367 6.52635 73.5452 6.27846C73.4163 4.27833 74.225 2.99788 75.7297 3.13217C75.7847 3.13707 75.8241 3.08097 75.8722 3.05694C75.8724 3.05694 75.8726 3.0569 75.8728 3.05682C75.873 3.05674 75.8731 3.05662 75.8733 3.05647C75.8734 3.05632 75.8735 3.05615 75.8736 3.05595C75.8737 3.05576 75.8737 3.05555 75.8737 3.05534C75.9554 3.01693 76.0386 2.98012 76.1218 2.94652C76.7733 2.69191 77.4837 2.62743 78.1704 2.76058C78.8571 2.89372 79.4919 3.21903 80.001 3.69868C81.0253 4.67651 81.4862 6.29125 81.1613 7.75557Z" fill="#2F2E41"/>
<path d="M81.0701 7.73955C81.0701 7.73955 80.0763 4.02996 75.8161 3.17376C75.8113 3.17218 75.7953 3.16577 75.7745 3.15618C75.7617 3.14817 75.7457 3.14016 75.7297 3.13217C75.7777 3.10496 75.8241 3.08097 75.8722 3.05694C75.8724 3.05694 75.8726 3.0569 75.8728 3.05682C75.873 3.05674 75.8731 3.05662 75.8733 3.05647C75.8734 3.05632 75.8736 3.05615 75.8736 3.05595C75.8737 3.05576 75.8738 3.05555 75.8737 3.05534C75.9154 3.01693 75.957 2.97852 76.0002 2.94172L76.1218 2.94652C76.1218 2.94652 80.3963 2.26958 81.0701 7.73955Z" fill="#FD6584"/>
<path d="M82.709 31.124C82.6301 31.1915 82.5342 31.2359 82.4317 31.2525C82.3293 31.2691 82.2242 31.2572 82.1281 31.218C81.9368 31.1369 81.767 31.0126 81.6317 30.855C81.0799 30.2761 80.6856 29.5655 80.4865 28.7909L80.6705 28.4635C80.5983 28.0597 80.6662 27.6434 80.8632 27.2836C81.0601 26.9238 81.3742 26.6422 81.7532 26.4855C81.9689 26.3941 82.208 26.3733 82.4362 26.4261C82.5494 26.4542 82.6529 26.5124 82.7357 26.5945C82.8185 26.6765 82.8777 26.7794 82.9069 26.8923C82.9778 27.2426 82.686 27.5588 82.3906 27.7599C81.8758 28.1092 81.2808 28.3221 80.6613 28.3786C81.4191 28.8057 82.0742 29.3936 82.5805 30.1009C82.6976 30.2485 82.7839 30.418 82.8344 30.5994C82.8587 30.6904 82.8599 30.786 82.838 30.8776C82.8161 30.9692 82.7718 31.0539 82.709 31.124Z" fill="#2F2E41"/>
<path d="M40.3024 73.961H96.6066C96.6544 73.961 96.7003 73.942 96.7341 73.9082C96.7679 73.8744 96.7869 73.8285 96.7869 73.7807C96.7869 73.7328 96.7679 73.687 96.7341 73.6531C96.7003 73.6193 96.6544 73.6003 96.6066 73.6003H40.3024C40.2546 73.6003 40.2087 73.6193 40.1749 73.6531C40.1411 73.687 40.1221 73.7328 40.1221 73.7807C40.1221 73.8285 40.1411 73.8744 40.1749 73.9082C40.2087 73.942 40.2546 73.961 40.3024 73.961Z" fill="#CCCCCC"/>
<path d="M55.2556 27.5921V27.6864C55.0528 27.4487 54.8459 27.2132 54.641 26.9776C54.555 26.8792 54.469 26.7809 54.3829 26.6826C54.0182 26.2687 53.6515 25.8563 53.2828 25.4452C52.912 25.0354 52.5412 24.6257 52.1663 24.218C52.0761 24.1197 51.986 24.0214 51.8938 23.923C51.82 23.8404 51.7399 23.7637 51.6541 23.6936C51.5676 23.6216 51.4682 23.5667 51.3612 23.5317C51.238 23.4976 51.1081 23.4962 50.9842 23.5277C50.8428 23.5604 50.7076 23.6117 50.5704 23.6547C50.429 23.7018 50.2897 23.7468 50.1484 23.7919C49.8656 23.8841 49.585 23.9763 49.3022 24.0685C49.2988 24.0699 49.2952 24.0706 49.2915 24.0706C49.2878 24.0705 49.2842 24.0698 49.2808 24.0684C49.2774 24.0669 49.2744 24.0648 49.2718 24.0622C49.2692 24.0596 49.2672 24.0565 49.2658 24.0531L49.2654 24.0521C49.2638 24.0482 49.263 24.044 49.2632 24.0398C49.2634 24.0356 49.2645 24.0315 49.2665 24.0278C49.2684 24.0241 49.2712 24.0209 49.2746 24.0183C49.2779 24.0158 49.2818 24.014 49.2859 24.0132C49.3556 23.9906 49.4272 23.9681 49.499 23.9456C49.7837 23.8513 50.0664 23.7592 50.3512 23.667C50.4925 23.6198 50.6339 23.5748 50.7753 23.5297C50.9064 23.4799 51.0448 23.4522 51.185 23.4478C51.4138 23.4642 51.6284 23.5649 51.7873 23.7305C51.8754 23.8124 51.9553 23.8984 52.0352 23.9865C52.1294 24.089 52.2236 24.1914 52.3179 24.2938C52.6969 24.7077 53.0731 25.1229 53.4467 25.5394C53.8216 25.9573 54.1931 26.376 54.5612 26.7952C54.5878 26.826 54.6144 26.8567 54.641 26.8874C54.848 27.121 55.0508 27.3566 55.2556 27.5921Z" fill="white"/>
<path d="M51.6223 24.071C51.5449 23.9713 51.4418 23.8947 51.324 23.8493L51.2075 23.8534C52.1218 25.2762 53.3197 26.4952 54.7264 27.4343C53.6917 26.3132 52.657 25.1921 51.6223 24.071Z" fill="white"/>
<path d="M70.7042 38.8572L66.0631 14.0073C65.9837 13.5977 65.7675 13.2272 65.4499 12.9565C65.1323 12.6859 64.7321 12.5312 64.3151 12.5178C64.2776 12.517 64.24 12.517 64.2025 12.5178L61.0409 12.6313L60.7007 12.6438L59.1228 12.7005L58.7825 12.7122L57.7676 12.7489L37.3019 13.4836C37.271 13.4853 37.2393 13.4852 37.2085 13.4844L32.6224 13.3885L30.9253 13.3535L30.8711 13.3526L29.6185 13.326L18.7034 13.0991L15.8096 13.0382L14.3826 13.009L14.0407 13.0015L12.4136 12.9682L12.0725 12.9607L10.4079 12.9265L10.0668 12.919L8.2379 12.8806L7.95102 12.8748L6.31977 12.8406L6.06207 12.8356H6.02455C5.59148 12.8373 5.17299 12.9922 4.84304 13.2727C4.51309 13.5532 4.29294 13.9413 4.2215 14.3684L0.0241081 40.1549C-0.0185161 40.4161 -0.00384107 40.6834 0.0671132 40.9384C0.138067 41.1934 0.263602 41.4299 0.435029 41.6316C0.606456 41.8332 0.819672 41.9952 1.05991 42.1063C1.30014 42.2173 1.56165 42.2749 1.82632 42.2748H25.9315C26.2863 42.2758 26.6315 42.3897 26.9172 42.6001L27.3743 42.9387C27.6892 43.1705 28.0698 43.2961 28.4609 43.2973C33.1165 42.0685 38.0112 42.0685 42.6668 43.2973C42.9069 43.2979 43.1446 43.2509 43.3664 43.159C43.5881 43.0671 43.7894 42.9321 43.9586 42.7619C44.248 42.4726 44.6342 42.3006 45.0428 42.279L69.0045 41.0164C69.2644 41.0028 69.5183 40.9338 69.7493 40.8141C69.9804 40.6944 70.1831 40.5267 70.3441 40.3223C70.505 40.1178 70.6204 39.8814 70.6825 39.6287C70.7446 39.376 70.752 39.113 70.7042 38.8572V38.8572Z" fill="#CCCCCC"/>
<path d="M64.1376 34.9821C64.1068 35.8242 63.743 36.6196 63.1259 37.1935C62.5089 37.7674 61.6892 38.0728 60.8471 38.0426C59.4557 37.9934 57.7953 37.9689 55.9931 38.0065C50.1079 38.1323 42.7141 38.9423 38.2665 41.8552C37.7075 42.2222 37.047 42.4034 36.379 42.373C36.3298 42.3701 36.2821 42.3672 36.2329 42.3629C35.5404 42.2996 34.8879 42.0104 34.3758 41.5399C31.9257 39.2981 26.3066 36.5832 13.4441 36.3923C13.3905 36.3923 13.3385 36.3894 13.2864 36.3865C12.8698 36.3603 12.4624 36.2523 12.0876 36.0685C11.7128 35.8848 11.3779 35.629 11.102 35.3158C10.8261 35.0025 10.6146 34.638 10.4797 34.2429C10.3447 33.8479 10.289 33.4302 10.3156 33.0136L11.5797 12.9511L11.7692 9.94414L12.1018 4.68373C12.1354 4.15396 12.3693 3.65684 12.7562 3.29336C13.143 2.92988 13.6538 2.72731 14.1846 2.7268H14.1976L21.8604 2.77163C25.0887 2.91772 27.7626 3.32897 29.882 4.00538C30.6059 4.22988 31.3102 4.51335 31.9879 4.85296C32.9134 5.30166 33.7449 5.92262 34.438 6.68261C34.8697 7.1681 35.4586 7.48608 36.1013 7.5808C36.201 7.59568 36.3014 7.60486 36.4022 7.60828C36.9949 7.6328 37.5798 7.46541 38.0698 7.13098C43.0757 3.77686 53.2769 3.5223 58.9104 3.66694C59.6983 3.68531 60.4511 3.99631 61.0222 4.53935C61.5933 5.08238 61.9418 5.81857 61.9999 6.6045L62.2284 9.59703L62.4555 12.5809L63.7659 29.8258L64.1304 34.6234C64.1393 34.7428 64.1417 34.8625 64.1376 34.9821Z" fill="#F2F2F2"/>
<path d="M15.3504 9.78647C19.9682 8.31316 25.12 8.70321 29.4948 10.7788C30.743 11.3679 31.9219 12.094 33.0096 12.9437C33.3174 13.1852 33.7552 12.7532 33.4442 12.5091C29.4261 9.3925 24.3774 7.91199 19.3125 8.36499C17.9113 8.49038 16.528 8.7683 15.187 9.19383C14.8117 9.31359 14.9721 9.90717 15.3504 9.78647H15.3504Z" fill="#3F3D56"/>
<path d="M40.7607 13.1821C45.054 10.9254 50.1952 10.4333 54.8633 11.7143C56.1941 12.0786 57.4802 12.59 58.6978 13.2389C59.0467 13.4251 59.3575 12.8947 59.008 12.7083C54.5591 10.3343 49.2185 9.78782 44.3601 11.1112C43.0048 11.481 41.6939 11.9974 40.4505 12.6514C40.1002 12.8355 40.4105 13.3661 40.7607 13.1821Z" fill="#3F3D56"/>
<path d="M40.7607 17.2794C45.054 15.0227 50.1952 14.5306 54.8633 15.8116C56.1941 16.1759 57.4802 16.6873 58.6979 17.3362C59.0467 17.5224 59.3575 16.992 59.0081 16.8055C54.5591 14.4316 49.2185 13.8851 44.3601 15.2084C43.0048 15.5783 41.6939 16.0947 40.4505 16.7487C40.1002 16.9328 40.4105 17.4634 40.7607 17.2794L40.7607 17.2794Z" fill="#3F3D56"/>
<path d="M59.1584 21.1568C59.1617 21.1041 59.1489 21.0516 59.1219 21.0062C59.0949 20.9607 59.0549 20.9245 59.007 20.9021C55.4429 19.0359 51.4019 18.2789 47.404 18.7287C47.3789 18.7307 47.3558 18.7348 47.3288 18.7368H47.3277C47.3031 18.739 47.2787 18.7426 47.2545 18.7478C44.8767 19.0214 42.5699 19.7324 40.4506 20.8449C40.4044 20.8725 40.3661 20.9115 40.3396 20.9583C40.313 21.0051 40.2991 21.0579 40.2991 21.1117V28.7551C40.2999 28.8022 40.3114 28.8484 40.3326 28.8904C40.3539 28.9323 40.3844 28.9689 40.4219 28.9973C40.4594 29.0257 40.5029 29.0452 40.549 29.0543C40.5952 29.0635 40.6428 29.062 40.6883 29.05C40.7826 29.0229 40.8768 28.9968 40.9731 28.9718C43.1156 28.3918 45.3151 28.0478 47.5324 27.9458C47.5795 27.9437 47.6266 27.9417 47.6758 27.9397C49.4817 27.8622 51.2909 27.9272 53.0866 28.1343C53.1242 28.1364 53.1617 28.1404 53.199 28.1463C53.2912 28.1564 53.3855 28.1674 53.4778 28.1794C53.5149 28.1834 53.55 28.1874 53.5841 28.1935C53.9431 28.2386 54.2992 28.2897 54.6562 28.3449C55.1717 28.4271 55.6872 28.5188 56.2027 28.6197C56.2348 28.6257 56.2679 28.6338 56.301 28.6398C57.1285 28.8043 57.9519 28.9948 58.7713 29.2054C58.8169 29.2172 58.8646 29.2185 58.9108 29.2091C58.957 29.1998 59.0005 29.1801 59.0379 29.1515C59.0754 29.1229 59.1059 29.0862 59.1271 29.0441C59.1483 29.002 59.1597 28.9557 59.1604 28.9086V21.1689C59.1607 21.1648 59.1601 21.1606 59.1584 21.1568Z" fill="#3F3D56"/>
<path d="M47.8858 19.1455C47.6607 19.0352 47.4026 19.0126 47.1616 19.0819C47.0552 19.1218 46.9578 19.1824 46.875 19.2603C46.7922 19.3382 46.7256 19.4317 46.6793 19.5355C46.5958 19.7345 46.5423 19.9448 46.5205 20.1595C46.5078 20.2439 46.507 20.3505 46.5919 20.3899C46.6227 20.4011 46.656 20.4037 46.6881 20.3973C46.7203 20.3909 46.7501 20.3759 46.7743 20.3538C46.8182 20.3106 46.8543 20.2602 46.8811 20.2048C47.0285 19.9755 47.2313 19.787 47.4708 19.6568C47.7103 19.5266 47.9788 19.4588 48.2514 19.4598L48.4783 19.5502C48.2998 19.3895 48.1005 19.2533 47.8858 19.1455Z" fill="#FF6582"/>
<path d="M50.3415 20.9072C50.1654 20.648 49.9568 20.3712 49.63 20.2866C49.2516 20.1886 48.8629 20.3833 48.5332 20.5754C47.5526 21.1465 46.6031 21.7692 45.6887 22.4409L45.6897 22.451L47.8123 22.3207C48.3235 22.2893 48.8522 22.2536 49.304 22.0383C49.4662 21.9366 49.6475 21.8691 49.8367 21.84C49.9541 21.8463 50.0691 21.8759 50.175 21.9269C50.281 21.9779 50.3757 22.0494 50.4539 22.1373C51.4321 23.0645 51.7152 24.4824 52.8127 25.297C52.1143 23.7667 51.2876 22.2981 50.3415 20.9072Z" fill="white"/>
<path d="M47.6761 27.9396C47.627 27.9416 47.5798 27.9437 47.5327 27.9457C47.1906 27.8228 46.8403 27.7142 46.4859 27.62C46.2564 27.5585 46.0229 27.5032 45.7893 27.4561C45.525 27.3988 45.2587 27.3537 44.9924 27.3147C44.4854 27.241 43.9743 27.1979 43.4621 27.1857C43.4582 27.1861 43.4543 27.1857 43.4505 27.1845C43.4468 27.1833 43.4434 27.1814 43.4405 27.1788C43.4376 27.1761 43.4353 27.173 43.4337 27.1694C43.4321 27.1658 43.4313 27.162 43.4313 27.158C43.4313 27.1541 43.4321 27.1503 43.4337 27.1467C43.4353 27.1431 43.4376 27.14 43.4405 27.1373C43.4434 27.1347 43.4468 27.1328 43.4505 27.1316C43.4543 27.1304 43.4582 27.13 43.4621 27.1304C43.5276 27.1304 43.5932 27.1324 43.6567 27.1365C44.17 27.1555 44.6818 27.2055 45.1891 27.2861C45.4533 27.3291 45.7176 27.3803 45.9799 27.4377C46.2175 27.491 46.4551 27.5504 46.6887 27.6159C47.0226 27.7101 47.3517 27.818 47.6761 27.9396Z" fill="white"/>
<path d="M53.5844 28.1936C53.5496 28.1875 53.5147 28.1834 53.4779 28.1793C53.3365 28.0625 53.1931 27.9519 53.0436 27.8433C52.8571 27.7081 52.6646 27.5811 52.4679 27.4623C52.0324 27.1979 51.5776 26.9664 51.1076 26.7698C50.3644 26.4604 49.5952 26.2177 48.809 26.0446C47.9122 25.8481 47.0044 25.7058 46.0905 25.6185C45.1768 25.5242 44.259 25.4669 43.3412 25.4095C43.3023 25.4075 43.3002 25.3501 43.3412 25.3522C43.4559 25.3604 43.5707 25.3665 43.6874 25.3747C44.6154 25.4321 45.5435 25.4976 46.4654 25.6021C47.3795 25.7001 48.2862 25.8575 49.1798 26.0733C49.9427 26.2613 50.6873 26.517 51.4047 26.8374C51.8173 27.0228 52.2169 27.2357 52.601 27.4745C52.8448 27.6282 53.0804 27.7921 53.3058 27.9662C53.4001 28.04 53.4943 28.1137 53.5844 28.1936Z" fill="white"/>
<path d="M53.1993 28.1465C53.162 28.1405 53.1243 28.1364 53.0866 28.1342C53.0436 28.0994 52.9985 28.0666 52.9535 28.0338C52.6381 27.8081 52.309 27.6021 51.968 27.4172C51.6584 27.2489 51.3405 27.0964 51.0154 26.9603C50.2726 26.65 49.5033 26.4072 48.7168 26.2351C47.82 26.0387 46.9122 25.8964 45.9983 25.809C45.0846 25.7148 44.1668 25.6574 43.249 25.6001C43.2101 25.596 43.2101 25.5406 43.249 25.5427C43.3658 25.5509 43.4805 25.557 43.5952 25.5652C44.5233 25.6226 45.4513 25.6881 46.3732 25.7926C47.2873 25.8906 48.194 26.048 49.0876 26.2638C49.8506 26.4515 50.5952 26.7072 51.3124 27.028C51.5829 27.1509 51.8472 27.284 52.1053 27.4295C52.4881 27.6397 52.8538 27.8794 53.1993 28.1465Z" fill="white"/>
<path d="M56.3009 28.6402C56.2682 28.6341 56.2353 28.6259 56.2026 28.6198C56.1657 28.5808 56.1309 28.5399 56.096 28.4989C55.9199 28.2961 55.7458 28.0912 55.5736 27.8843C54.8956 27.0771 54.2523 26.2454 53.6459 25.3972C53.1255 24.672 52.6318 23.9324 52.1647 23.1785C51.9414 22.8221 51.7263 22.4615 51.5153 22.0969C51.3514 21.8142 51.1916 21.5308 51.0359 21.2467C50.9908 21.1647 50.9478 21.0828 50.9048 21.0008C50.8044 20.8082 50.704 20.6136 50.5975 20.4231C50.4817 20.1897 50.3117 19.9874 50.1017 19.8331C49.9968 19.7628 49.8753 19.7212 49.7493 19.7122C49.5717 19.7129 49.397 19.758 49.2413 19.8433C48.0951 20.3771 47.0139 21.0404 46.0188 21.8203C45.0468 22.5762 44.168 23.4448 43.4006 24.4077C43.376 24.4364 43.3227 24.4098 43.3453 24.379C43.4375 24.2643 43.5317 24.1496 43.6259 24.0369C44.3635 23.1645 45.194 22.3752 46.1027 21.683C46.1048 21.681 46.1089 21.6789 46.1109 21.6769C46.1908 21.6134 46.2707 21.5519 46.3527 21.4925C46.8601 21.1189 47.3881 20.7742 47.9343 20.46C48.2129 20.2981 48.4976 20.1445 48.7885 19.9991C48.8602 19.9622 48.934 19.9253 49.0077 19.8905C49.0815 19.8536 49.1553 19.8188 49.229 19.7839C49.375 19.7095 49.5346 19.6656 49.6981 19.6549C50.2677 19.6467 50.5606 20.2203 50.7634 20.6075C50.8269 20.7284 50.8925 20.8492 50.956 20.9701C51.2019 21.427 51.4579 21.8818 51.7243 22.3304C51.8861 22.609 52.0541 22.8856 52.2241 23.1601C52.4679 23.5514 52.7178 23.9386 52.978 24.3238C52.978 24.324 52.978 24.3243 52.9781 24.3245C52.9782 24.3248 52.9784 24.325 52.9786 24.3252C52.9787 24.3254 52.979 24.3255 52.9792 24.3257C52.9794 24.3258 52.9797 24.3258 52.98 24.3258H52.9801C53.2812 24.7806 53.5947 25.2272 53.9184 25.6718C54.4735 26.4318 55.0553 27.1748 55.6638 27.9007C55.8728 28.1506 56.0852 28.3971 56.3009 28.6402Z" fill="white"/>
<path d="M48.992 19.5924L48.9353 19.6172C48.8055 19.398 48.6236 19.2143 48.4056 19.0824C48.1877 18.9504 47.9406 18.8744 47.6862 18.861C46.8475 18.8014 46.1107 19.3604 46.0437 20.1069C46.0165 20.4143 46.1055 20.7207 46.2931 20.9657L46.2405 20.9968C46.0451 20.7417 45.9525 20.4225 45.9808 20.1024C46.0505 19.325 46.8178 18.7429 47.6912 18.805C47.9561 18.8189 48.2135 18.8981 48.4404 19.0355C48.6673 19.1729 48.8568 19.3642 48.992 19.5924Z" fill="#FF6582"/>
<path d="M44.8476 21.1028C44.6275 21.0071 44.3877 20.9651 44.1482 20.9804C43.9086 20.9956 43.6761 21.0677 43.4699 21.1905C44.2227 21.306 44.9689 21.4611 45.7055 21.655C45.4005 21.4959 45.162 21.2467 44.8476 21.1028Z" fill="white"/>
<path d="M43.4657 21.1899L43.3828 21.2498C43.4108 21.2288 43.44 21.2092 43.4699 21.1905L43.4657 21.1899Z" fill="white"/>
<path d="M45.962 21.5377C45.929 21.5049 45.8961 21.4721 45.8629 21.4393C45.6078 21.1618 45.3008 20.9371 44.9591 20.778C44.7851 20.7047 44.5985 20.6662 44.4098 20.6646C44.2148 20.6692 44.0219 20.7066 43.8394 20.7754C43.7535 20.8059 43.6695 20.8406 43.5868 20.8775C43.4923 20.9198 43.3995 20.965 43.3071 21.0105C43.1337 21.0959 42.9625 21.1851 42.7935 21.278C42.4574 21.4629 42.1318 21.662 41.8167 21.8751C41.6534 21.9856 41.4934 22.0998 41.3369 22.2176C41.1912 22.327 41.0485 22.4393 40.9088 22.5546C40.8789 22.5791 40.8342 22.5394 40.8641 22.5149C40.901 22.4843 40.9382 22.454 40.9755 22.424C41.0807 22.3393 41.1876 22.2563 41.2962 22.1748C41.4943 22.0261 41.6975 21.8831 41.9058 21.7458C42.2297 21.5322 42.5647 21.3332 42.911 21.1486C43.084 21.0564 43.2594 20.9681 43.4372 20.8837C43.4908 20.8582 43.5452 20.8333 43.6001 20.8097C43.7255 20.7534 43.855 20.7065 43.9873 20.6693C44.1772 20.6149 44.3758 20.5976 44.5723 20.6182C44.7604 20.6422 44.9429 20.6984 45.1119 20.7844C45.4469 20.9721 45.7491 21.213 46.0066 21.4978C46.0336 21.5247 45.9891 21.5647 45.962 21.5377Z" fill="white"/>
<path d="M15.3504 13.8838C19.9682 12.4104 25.12 12.8005 29.4948 14.8761C30.743 15.4652 31.9219 16.1913 33.0096 17.0409C33.3174 17.2824 33.7552 16.8505 33.4442 16.6064C29.4261 13.4898 24.3774 12.0093 19.3125 12.4623C17.9113 12.5877 16.528 12.8656 15.187 13.2911C14.8117 13.4109 14.9721 14.0045 15.3504 13.8838L15.3504 13.8838Z" fill="#3F3D56"/>
<path d="M15.3504 17.981C19.9682 16.5077 25.12 16.8978 29.4948 18.9734C30.743 19.5625 31.9219 20.2886 33.0096 21.1382C33.3174 21.3797 33.7552 20.9477 33.4442 20.7036C29.4261 17.5871 24.3774 16.1066 19.3125 16.5596C17.9113 16.685 16.528 16.9629 15.187 17.3884C14.8117 17.5082 14.9721 18.1017 15.3504 17.981L15.3504 17.981Z" fill="#3F3D56"/>
<path d="M15.3504 22.0783C19.9682 20.605 25.12 20.9951 29.4948 23.0707C30.743 23.6598 31.9219 24.3859 33.0096 25.2355C33.3174 25.477 33.7552 25.045 33.4442 24.8009C29.4261 21.6844 24.3774 20.2038 19.3125 20.6568C17.9113 20.7822 16.528 21.0602 15.187 21.4857C14.8117 21.6054 14.9721 22.199 15.3504 22.0783L15.3504 22.0783Z" fill="#3F3D56"/>
<path d="M15.3504 26.1756C19.9682 24.7023 25.12 25.0924 29.4948 27.1679C30.743 27.7571 31.9219 28.4832 33.0096 29.3328C33.3174 29.5743 33.7552 29.1423 33.4442 28.8982C29.4261 25.7816 24.3774 24.3011 19.3125 24.7541C17.9113 24.8795 16.528 25.1574 15.187 25.583C14.8117 25.7027 14.9721 26.2963 15.3504 26.1756L15.3504 26.1756Z" fill="#3F3D56"/>
<path d="M15.3504 30.2729C19.9682 28.7996 25.12 29.1896 29.4948 31.2652C30.743 31.8544 31.9219 32.5805 33.0096 33.4301C33.3174 33.6716 33.7552 33.2396 33.4442 32.9955C29.4261 29.8789 24.3774 28.3984 19.3125 28.8514C17.9113 28.9768 16.528 29.2547 15.187 29.6803C14.8117 29.8 14.9721 30.3936 15.3504 30.2729H15.3504Z" fill="#3F3D56"/>
<path d="M31.9879 4.85295V14.6781C31.9879 14.8733 31.6465 15.0368 31.1866 15.0816C31.1827 15.0814 31.1787 15.0819 31.175 15.0831C31.0984 15.0889 31.0174 15.0932 30.9349 15.0932C30.6813 15.0978 30.429 15.0567 30.19 14.9717C30.1683 14.963 30.1466 14.9529 30.125 14.9442C30.1047 14.9326 30.083 14.9225 30.0628 14.911C29.9485 14.843 29.882 14.7634 29.882 14.6781V4.00538C30.6059 4.22988 31.3102 4.51335 31.9879 4.85295Z" fill="#2AAE97"/>
<path d="M36.4019 7.13174H36.101V42.1676H36.4019V7.13174Z" fill="#E6E6E6"/>
<path d="M69.1217 31.1162C69.3351 31.0967 69.5416 31.0307 69.7266 30.9227C69.9117 30.8148 70.0709 30.6676 70.1929 30.4915C70.3149 30.3154 70.3968 30.1146 70.4329 29.9034C70.4689 29.6923 70.4582 29.4757 70.4016 29.2691L76.6466 26.3539L80.4064 20.2721L77.4511 19.0789L74.9147 23.9798L68.4951 28.2578C68.1543 28.376 67.8687 28.6151 67.6925 28.9298C67.5162 29.2445 67.4615 29.613 67.5388 29.9653C67.616 30.3177 67.8198 30.6294 68.1116 30.8416C68.4033 31.0537 68.7627 31.1514 69.1217 31.1162V31.1162Z" fill="#FFB6B6"/>
<path d="M82.7256 14.4459C82.7256 14.4459 83.4615 14.6861 82.6537 16.1137C82.007 17.2566 78.8567 23.8398 77.5709 25.1324C77.7062 25.3492 77.7655 25.6049 77.7395 25.8591C77.7136 26.1133 77.6037 26.3516 77.4274 26.5366L74.459 24.181C74.4023 23.3243 74.9692 23.2393 75.3052 23.2682L75.9881 20.848L78.3699 14.8776L82.1967 14.2628L82.7256 14.4459Z" fill="#2AAE97"/>
<path d="M82.7897 3.2555C82.93 2.68806 83.9482 2.26908 82.2041 1.47687C81.7808 1.28461 81.7984 0.622491 81.4403 0.325972C81.0823 0.0294535 80.558 -0.108016 80.1418 0.0992388C79.7702 0.284317 79.5608 0.703155 79.5162 1.1159C79.4948 1.53132 79.5427 1.9474 79.6581 2.34706L79.6243 2.39646C80.3151 2.92512 81.006 3.45377 81.6969 3.98241C81.9508 4.17668 82.2826 4.38009 82.5671 4.23433C82.8892 4.06931 82.7028 3.60682 82.7897 3.2555Z" fill="#2F2E41"/>
</g>
<defs>
<clipPath id="clip0_5_396">
<rect width="96.7869" height="74" fill="white"/>
</clipPath>
</defs>
</svg>
