<svg width="93" height="74" viewBox="0 0 93 74" fill="none" xmlns="http://www.w3.org/2000/svg">
<g clip-path="url(#clip0_5_351)">
<path d="M82.2825 36.1813C82.2825 36.846 82.2645 37.506 82.2286 38.1613C82.0979 40.6114 81.7175 43.0418 81.0931 45.4146C81.0921 45.4156 81.0921 45.4156 81.0931 45.4166C81.0112 45.7304 80.9242 46.0433 80.8323 46.3531C80.8283 46.3681 80.8243 46.3821 80.8193 46.3961C80.6834 46.8608 80.5381 47.3213 80.3835 47.7774V47.7784C77.9543 54.9444 73.3413 61.1693 67.1924 65.5788C61.0435 69.9882 53.6677 72.3606 46.1012 72.3627C28.987 72.3627 14.6494 60.4818 10.8853 44.5171C10.2419 41.7852 9.91787 38.9879 9.91984 36.1813C9.91984 35.6236 9.9325 35.0689 9.95782 34.5172C10.2577 27.7725 12.4484 21.248 16.2796 15.6889C16.3255 15.6209 16.3725 15.553 16.4205 15.486C22.9591 6.12384 33.8155 0 46.1012 0C63.4642 0 77.9698 12.2297 81.474 28.5453C81.4745 28.5458 81.4749 28.5465 81.4749 28.5473C81.7008 29.5987 81.8801 30.6662 82.0127 31.7496C82.1931 33.22 82.2832 34.7 82.2825 36.1813Z" fill="#F2F2F2"/>
<path d="M91.7043 66.5278C91.434 67.5048 91.0121 68.4333 90.4539 69.2794C89.2066 71.1655 87.4215 72.6077 85.4595 73.7621C85.3236 73.8431 85.1856 73.922 85.0477 74H83.6714L83.6234 73.89V73.889L83.5675 73.7621L83.5605 73.7471L83.5575 73.7621L83.5025 74H82.8269C82.7709 73.921 82.7159 73.8421 82.6619 73.7621C82.583 73.6452 82.507 73.5272 82.4351 73.4073C82.308 73.1975 82.1945 72.9799 82.0952 72.7556C82.0832 72.7306 82.0732 72.7057 82.0633 72.6807L82.1082 72.6317L81.9213 71.8141L82.2971 71.7521L81.8853 70.4818C81.9003 70.4348 81.9173 70.3879 81.9353 70.3409C82.1662 69.7562 82.6 69.3194 83.1147 68.9526C83.6444 68.5738 84.2611 68.2699 84.8278 67.9541C85.0937 67.8052 85.3556 67.6483 85.6104 67.4824V67.4814C85.9363 67.2705 86.2524 67.0449 86.5589 66.8047C86.5642 66.8014 86.5692 66.7977 86.5739 66.7937C86.5782 66.7907 86.5822 66.7873 86.5859 66.7837C87.96 65.7102 89.1228 64.3908 90.0152 62.8927C90.0153 62.8927 90.0154 62.8927 90.0155 62.8926C90.0157 62.8926 90.0158 62.8925 90.0159 62.8924C90.016 62.8923 90.016 62.8922 90.0161 62.8921C90.0161 62.892 90.0162 62.8918 90.0162 62.8917C90.0461 62.8437 90.0741 62.7958 90.1021 62.7468V62.7458C90.4675 62.1173 90.782 61.4605 91.0426 60.7818V60.7808C91.0626 60.7308 91.0806 60.6809 91.0996 60.6309C91.1256 60.6749 91.1506 60.7188 91.1746 60.7628C91.1747 60.7628 91.1748 60.7628 91.1749 60.7629C91.1751 60.7629 91.1752 60.763 91.1753 60.7631C91.1754 60.7632 91.1754 60.7633 91.1755 60.7634C91.1755 60.7636 91.1756 60.7637 91.1756 60.7638C92.1451 62.4979 92.237 64.5868 91.7043 66.5278Z" fill="#F0F0F0"/>
<path d="M91.1756 60.7638C91.1853 61.6893 91.089 62.6128 90.8887 63.5164C90.7987 63.9299 90.6866 64.3383 90.5529 64.7398C90.2933 65.5253 89.9541 66.2822 89.5404 66.9986C89.5174 67.0376 89.4954 67.0756 89.4714 67.1135V67.1145C89.2947 67.4126 89.1028 67.7015 88.8967 67.9801C88.5848 68.4239 88.1995 68.8113 87.7573 69.1255C87.3961 69.3641 86.9877 69.522 86.5599 69.5883C86.48 69.6033 86.398 69.6143 86.3151 69.6243C85.9842 69.6632 85.6424 69.6782 85.3146 69.7482C85.1485 69.781 84.9869 69.833 84.8328 69.9031C84.3051 70.148 84.0082 70.6607 83.8783 71.2084C83.8553 71.3044 83.8373 71.4013 83.8233 71.4983C83.7144 72.2429 83.8343 73.0165 83.7724 73.7621C83.7654 73.8411 83.7564 73.921 83.7454 74H83.6714L83.6234 73.8901V73.8891C83.6284 73.8471 83.6324 73.8051 83.6364 73.7621C83.6604 73.3958 83.6634 73.0284 83.6454 72.6617C83.6414 72.4968 83.6384 72.3309 83.6404 72.1649C83.6424 72.032 83.6474 71.8991 83.6574 71.7671V71.7661C83.6644 71.6842 83.6724 71.6032 83.6834 71.5223C83.7152 71.2744 83.7762 71.0311 83.8653 70.7976C83.9523 70.5571 84.0891 70.3376 84.2669 70.1536C84.4447 69.9696 84.6593 69.8253 84.8968 69.7302C85.0419 69.6758 85.1913 69.634 85.3436 69.6053C85.6784 69.5413 86.0242 69.5253 86.361 69.4833C86.397 69.4793 86.433 69.4743 86.468 69.4683C86.513 69.4613 86.5569 69.4533 86.6009 69.4453C87.0416 69.3671 87.4579 69.1867 87.8163 68.9186C88.2422 68.5814 88.6126 68.1794 88.9137 67.7272C89.0776 67.4923 89.2336 67.2525 89.3785 67.0056C89.3785 67.0055 89.3785 67.0053 89.3786 67.0052C89.3786 67.0051 89.3787 67.005 89.3788 67.0049C89.3789 67.0048 89.379 67.0047 89.3791 67.0047C89.3792 67.0046 89.3793 67.0046 89.3795 67.0046C89.3865 66.9926 89.3935 66.9816 89.4005 66.9696L89.4015 66.9676C90.0231 65.9053 90.4769 64.7533 90.7468 63.5524C90.7558 63.5084 90.7658 63.4644 90.7758 63.4205C90.9613 62.5534 91.0508 61.6685 91.0426 60.7818V60.7808C91.0426 60.7388 91.0416 60.6979 91.0406 60.6559C91.0386 60.5699 91.1716 60.5509 91.1735 60.6369C91.1745 60.6789 91.1755 60.7208 91.1746 60.7628C91.1747 60.7628 91.1748 60.7628 91.1749 60.7629C91.1751 60.7629 91.1752 60.763 91.1753 60.7631C91.1754 60.7632 91.1754 60.7633 91.1755 60.7634C91.1755 60.7636 91.1756 60.7637 91.1756 60.7638Z" fill="white"/>
<path d="M89.4144 67.0865C89.7952 67.2799 90.2325 67.3317 90.648 67.2325C91.0635 67.1334 91.4302 66.8897 91.6826 66.5452C91.7335 66.4753 91.6273 66.393 91.5763 66.463C91.3419 66.7843 91.0002 67.0112 90.6131 67.1027C90.226 67.1943 89.8189 67.1444 89.4654 66.9622C89.3885 66.9227 89.3379 67.0472 89.4144 67.0865Z" fill="white"/>
<path d="M86.6137 69.4852C86.3354 68.6575 86.3793 67.7553 86.7366 66.9586C86.7721 66.8796 86.6478 66.8288 86.6123 66.9076C86.242 67.7374 86.1983 68.6763 86.4898 69.537C86.5176 69.619 86.6414 69.5667 86.6137 69.4852V69.4852Z" fill="white"/>
<path d="M90.8144 63.4327C90.6514 63.3886 90.502 63.3047 90.3795 63.1885C90.257 63.0723 90.1652 62.9275 90.1125 62.7671C90.0857 62.6848 89.962 62.7372 89.9886 62.819C90.0477 62.9959 90.1492 63.1557 90.2842 63.2843C90.4193 63.413 90.5838 63.5066 90.7634 63.557C90.7799 63.5632 90.7982 63.5628 90.8145 63.556C90.8308 63.5492 90.8438 63.5365 90.851 63.5204C90.8577 63.5039 90.8576 63.4854 90.8507 63.469C90.8439 63.4526 90.8308 63.4396 90.8144 63.4327Z" fill="white"/>
<path d="M85.6104 67.4814V67.4824C85.5794 68.1961 85.4902 68.9061 85.3436 69.6053V69.6063C85.3356 69.6542 85.3246 69.7012 85.3146 69.7482C85.0733 70.8295 84.7352 71.8869 84.3041 72.9076C84.1852 73.1954 84.0606 73.4803 83.9303 73.7621C83.8943 73.8421 83.8573 73.921 83.8194 74H83.6714L83.6234 73.8901V73.8891L83.5675 73.7621L83.5605 73.7471L83.5575 73.7621L83.5025 74H82.0732L81.7954 73.7621L81.3906 73.4153L81.9563 72.7976L82.0492 72.6957L82.0632 72.6807L82.1082 72.6317L81.9213 71.8141L82.2971 71.7522L81.8853 70.4818L81.6904 69.8811L81.6415 69.7302L81.3566 68.8517L80.4971 69.0126L80.3571 68.5228C80.6148 67.9256 80.8292 67.3107 80.9988 66.6828C80.9998 66.6778 81.0018 66.6738 81.0028 66.6688C81.4569 64.9775 81.5931 63.2165 81.4046 61.4755V61.4745C81.3986 61.4185 81.3916 61.3615 81.3836 61.3066V61.3046C81.2979 60.583 81.1535 59.8697 80.9518 59.1717C80.9378 59.1187 80.9218 59.0667 80.9068 59.0147C80.9528 59.0347 80.9978 59.0537 81.0438 59.0737L81.0448 59.0747H81.0468C81.1197 59.1067 81.1927 59.1407 81.2636 59.1767C82.9688 60.0052 84.2231 61.5604 84.9357 63.3535C84.9377 63.3585 84.9397 63.3625 84.9417 63.3675C85.3136 64.3075 85.5352 65.3001 85.5984 66.309C85.6224 66.6993 85.6264 67.0906 85.6104 67.4814Z" fill="#F0F0F0"/>
<path d="M83.0168 74H82.8588C82.8089 73.919 82.7549 73.8401 82.7009 73.7621C82.615 73.6412 82.5263 73.5229 82.435 73.4073C82.3561 73.3074 82.2771 73.2084 82.1982 73.1095C82.1162 73.0065 82.0353 72.9036 81.9563 72.7976L82.0493 72.6957C82.0642 72.7157 82.0792 72.7357 82.0952 72.7556C82.3511 73.0925 82.6279 73.4163 82.8648 73.7621C82.9178 73.8401 82.9688 73.919 83.0168 74Z" fill="white"/>
<path d="M80.8737 59.0706C80.8996 59.1036 80.9266 59.1375 80.9516 59.1715C81.1465 59.4244 81.3308 59.6853 81.5043 59.9541C81.8135 60.4285 82.088 60.9245 82.3259 61.4384C82.3449 61.4783 82.3639 61.5193 82.3819 61.5603C82.8909 62.6831 83.2227 63.878 83.3654 65.1025C83.3674 65.1145 83.3684 65.1255 83.3694 65.1374C83.4023 65.4233 83.4237 65.7102 83.4333 65.998C83.4652 66.5401 83.4116 67.0838 83.2744 67.6092C83.2544 67.6781 83.2324 67.7461 83.2085 67.8121C83.1483 67.9737 83.073 68.1293 82.9836 68.2768C82.9193 68.3845 82.8478 68.4876 82.7697 68.5857C82.7227 68.6456 82.6737 68.7046 82.6218 68.7616C82.5918 68.7946 82.5608 68.8275 82.5298 68.8605C82.5038 68.8855 82.4788 68.9115 82.4528 68.9365C82.183 69.1984 81.8851 69.4412 81.6413 69.7301L81.6902 69.881C81.9251 69.5832 82.2279 69.3363 82.5008 69.0764C82.6721 68.9153 82.828 68.7387 82.9666 68.5487C82.9846 68.5227 83.0036 68.4967 83.0205 68.4697C83.1132 68.3344 83.1931 68.1909 83.2594 68.0409C83.2934 67.966 83.3244 67.889 83.3524 67.8091C83.5157 67.2923 83.59 66.7516 83.5723 66.2099C83.569 65.8629 83.5484 65.5163 83.5103 65.1714C83.5063 65.1265 83.5013 65.0825 83.4953 65.0375C83.3939 64.2166 83.2091 63.4081 82.9436 62.6247C82.6076 61.6309 82.1453 60.6843 81.5683 59.8082C81.4034 59.5573 81.2285 59.3125 81.0436 59.0736C81.0196 59.0406 80.9946 59.0086 80.9686 58.9756C80.9156 58.9077 80.8207 59.0026 80.8737 59.0706Z" fill="white"/>
<path d="M83.4477 65.1841C83.8683 65.1092 84.2486 64.8873 84.5206 64.558C84.7927 64.2286 84.9388 63.8133 84.9329 63.3862C84.9325 63.3688 84.9254 63.3522 84.913 63.34C84.9006 63.3277 84.884 63.3207 84.8665 63.3205C84.8491 63.3203 84.8323 63.3269 84.8196 63.3388C84.8069 63.3508 84.7994 63.3672 84.7986 63.3846C84.8048 63.7823 84.6686 64.1692 84.4147 64.4753C84.1607 64.7815 83.8056 64.9868 83.4136 65.0541C83.3284 65.0689 83.3631 65.1987 83.4477 65.1841Z" fill="white"/>
<path d="M82.6558 68.7855C81.9352 68.2922 81.4271 67.5454 81.2327 66.6941C81.2135 66.6098 81.0836 66.644 81.1028 66.7282C81.3067 67.6137 81.8371 68.3898 82.588 68.9015C82.6596 68.9502 82.727 68.8339 82.6558 68.7855H82.6558Z" fill="white"/>
<path d="M82.3657 61.4239C82.2091 61.4867 82.0392 61.5097 81.8714 61.4907C81.7037 61.4717 81.5433 61.4113 81.4046 61.315C81.3337 61.2654 81.2664 61.3817 81.3369 61.431C81.4906 61.5367 81.6678 61.6032 81.8531 61.6246C82.0384 61.646 82.2261 61.6217 82.3999 61.5538C82.4168 61.5488 82.4312 61.5375 82.4401 61.5222C82.4489 61.507 82.4517 61.489 82.4478 61.4718C82.4432 61.4546 82.432 61.4399 82.4166 61.4309C82.4013 61.422 82.383 61.4194 82.3657 61.4239Z" fill="white"/>
<path d="M63.299 15.6893H0.0992774C0.0727487 15.6887 0.0475022 15.6778 0.0289463 15.6588C0.0103903 15.6399 0 15.6144 0 15.5878C0 15.5613 0.0103903 15.5358 0.0289463 15.5169C0.0475022 15.4979 0.0727487 15.4869 0.0992774 15.4864H63.299C63.3256 15.4869 63.3508 15.4979 63.3694 15.5169C63.3879 15.5358 63.3983 15.5613 63.3983 15.5878C63.3983 15.6144 63.3879 15.6399 63.3694 15.6588C63.3508 15.6778 63.3256 15.6887 63.299 15.6893Z" fill="#CACACA"/>
<path d="M2.33362 14.2686C2.9367 14.2686 3.4256 13.7688 3.4256 13.1523C3.4256 12.5358 2.9367 12.036 2.33362 12.036C1.73055 12.036 1.24165 12.5358 1.24165 13.1523C1.24165 13.7688 1.73055 14.2686 2.33362 14.2686Z" fill="#00B9B9"/>
<path d="M6.10589 14.2686C6.70897 14.2686 7.19786 13.7688 7.19786 13.1523C7.19786 12.5358 6.70897 12.036 6.10589 12.036C5.50281 12.036 5.01392 12.5358 5.01392 13.1523C5.01392 13.7688 5.50281 14.2686 6.10589 14.2686Z" fill="#00B9B9"/>
<path d="M9.87815 14.2686C10.4812 14.2686 10.9701 13.7688 10.9701 13.1523C10.9701 12.5358 10.4812 12.036 9.87815 12.036C9.27507 12.036 8.78618 12.5358 8.78618 13.1523C8.78618 13.7688 9.27507 14.2686 9.87815 14.2686Z" fill="#2AAE97"/>
<path d="M61.0385 12.3127H58.3589C58.3058 12.3137 58.2552 12.3355 58.218 12.3735C58.1808 12.4114 58.16 12.4624 58.16 12.5155C58.16 12.5687 58.1808 12.6197 58.218 12.6576C58.2552 12.6955 58.3058 12.7174 58.3589 12.7184H61.0385C61.0916 12.7174 61.1422 12.6955 61.1794 12.6576C61.2166 12.6197 61.2374 12.5687 61.2374 12.5155C61.2374 12.4624 61.2166 12.4114 61.1794 12.3735C61.1422 12.3355 61.0916 12.3137 61.0385 12.3127Z" fill="#00B9B9"/>
<path d="M61.0385 13.0743H58.3589C58.3058 13.0753 58.2552 13.0972 58.218 13.1351C58.1808 13.173 58.16 13.224 58.16 13.2772C58.16 13.3303 58.1808 13.3813 58.218 13.4192C58.2552 13.4572 58.3058 13.479 58.3589 13.4801H61.0385C61.0916 13.479 61.1422 13.4572 61.1794 13.4192C61.2166 13.3813 61.2374 13.3303 61.2374 13.2772C61.2374 13.224 61.2166 13.173 61.1794 13.1351C61.1422 13.0972 61.0916 13.0753 61.0385 13.0743Z" fill="#00B9B9"/>
<path d="M61.0385 13.8349H58.3589C58.3058 13.8359 58.2552 13.8578 58.218 13.8957C58.1808 13.9336 58.16 13.9846 58.16 14.0378C58.16 14.0909 58.1808 14.1419 58.218 14.1798C58.2552 14.2178 58.3058 14.2396 58.3589 14.2407H61.0385C61.0916 14.2396 61.1422 14.2178 61.1794 14.1798C61.2166 14.1419 61.2374 14.0909 61.2374 14.0378C61.2374 13.9846 61.2166 13.9336 61.1794 13.8957C61.1422 13.8578 61.0916 13.8359 61.0385 13.8349Z" fill="#00B9B9"/>
<path d="M16.6574 19.8248H13.8198C12.2195 22.9754 11.0929 26.345 10.4766 29.8246H16.6574C16.8544 29.825 17.0495 29.7864 17.2315 29.7112C17.4136 29.636 17.579 29.5255 17.7183 29.3863C17.8575 29.247 17.968 29.0816 18.0432 28.8995C18.1184 28.7175 18.1569 28.5224 18.1566 28.3254V21.323C18.1561 20.9256 17.9979 20.5447 17.7169 20.2638C17.4358 19.9829 17.0547 19.825 16.6574 19.8248Z" fill="#CCCCCC"/>
<path d="M37.6775 19.8248H24.8212C24.4238 19.825 24.0428 19.9829 23.7617 20.2638C23.4806 20.5447 23.3225 20.9256 23.3219 21.323V28.3254C23.3224 28.7229 23.4805 29.1039 23.7616 29.385C24.0426 29.666 24.4237 29.8241 24.8212 29.8246H37.6775C38.075 29.8241 38.456 29.666 38.7371 29.385C39.0182 29.1039 39.1763 28.7229 39.1768 28.3254V21.323C39.1762 20.9256 39.0181 20.5447 38.737 20.2638C38.4559 19.9829 38.0749 19.825 37.6775 19.8248Z" fill="#CCCCCC"/>
<path d="M58.6977 19.8248H45.8413C45.444 19.825 45.0629 19.9829 44.7819 20.2638C44.5008 20.5447 44.3426 20.9256 44.3421 21.323V28.3254C44.3426 28.7229 44.5007 29.1039 44.7817 29.385C45.0628 29.666 45.4439 29.8241 45.8413 29.8246H58.6977C59.0952 29.8241 59.4762 29.666 59.7573 29.385C60.0383 29.1039 60.1964 28.7229 60.1969 28.3254V21.323C60.1964 20.9256 60.0383 20.5447 59.7572 20.2638C59.4761 19.9829 59.0951 19.825 58.6977 19.8248Z" fill="#CCCCCC"/>
<path d="M16.6574 34.5172H9.95782C9.93283 35.0689 9.92017 35.6236 9.91984 36.1814C9.91787 38.9879 10.2419 41.7852 10.8853 44.5171H16.6574C17.0548 44.5166 17.4359 44.3585 17.7169 44.0774C17.998 43.7964 18.1561 43.4153 18.1566 43.0178V36.0154C18.1561 35.6181 17.9979 35.2371 17.7168 34.9563C17.4358 34.6754 17.0547 34.5175 16.6574 34.5172Z" fill="#CCCCCC"/>
<path d="M37.6775 34.5172H24.8212C24.4238 34.5175 24.0428 34.6754 23.7617 34.9563C23.4806 35.2371 23.3225 35.6181 23.3219 36.0154V43.0178C23.3224 43.4153 23.4805 43.7964 23.7616 44.0774C24.0426 44.3585 24.4237 44.5166 24.8212 44.5171H37.6775C38.075 44.5166 38.456 44.3585 38.7371 44.0774C39.0182 43.7964 39.1763 43.4153 39.1768 43.0178V36.0154C39.1762 35.6181 39.0181 35.2371 38.737 34.9563C38.4559 34.6754 38.0749 34.5175 37.6775 34.5172Z" fill="#CCCCCC"/>
<path d="M58.6977 34.5172H45.8413C45.444 34.5175 45.0629 34.6754 44.7819 34.9563C44.5008 35.2371 44.3426 35.6181 44.3421 36.0154V43.0178C44.3426 43.4153 44.5007 43.7964 44.7817 44.0774C45.0628 44.3585 45.4439 44.5166 45.8413 44.5171H58.6977C58.7387 44.5171 58.7797 44.5151 58.8206 44.5111C58.9813 44.4993 59.1387 44.4604 59.2864 44.3961C59.5541 44.2815 59.7828 44.0916 59.9445 43.8493C60.1061 43.6071 60.1939 43.323 60.1969 43.0318V36.0154C60.1964 35.6181 60.0383 35.2371 59.7572 34.9563C59.4761 34.6754 59.0951 34.5175 58.6977 34.5172Z" fill="#CCCCCC"/>
<path d="M16.9257 31.497C18.5684 31.497 19.9001 30.1653 19.9001 28.5226C19.9001 26.8799 18.5684 25.5482 16.9257 25.5482C15.283 25.5482 13.9513 26.8799 13.9513 28.5226C13.9513 30.1653 15.283 31.497 16.9257 31.497Z" fill="#7CE656"/>
<path d="M16.5199 30.0706C16.4686 30.0706 16.4179 30.0587 16.372 30.0357C16.326 30.0127 16.2861 29.9794 16.2553 29.9383L15.4438 28.8563C15.4178 28.8215 15.3988 28.782 15.388 28.7399C15.3772 28.6978 15.3748 28.654 15.381 28.611C15.3871 28.568 15.4017 28.5266 15.4238 28.4892C15.446 28.4518 15.4752 28.4192 15.51 28.3931C15.5448 28.367 15.5843 28.3481 15.6264 28.3373C15.6685 28.3265 15.7123 28.3241 15.7553 28.3303C15.7983 28.3364 15.8397 28.351 15.8771 28.3731C15.9145 28.3953 15.9471 28.4245 15.9732 28.4593L16.5041 29.1671L17.8676 27.1219C17.8917 27.0857 17.9226 27.0545 17.9587 27.0303C17.9949 27.0061 18.0354 26.9892 18.078 26.9807C18.1206 26.9721 18.1645 26.9721 18.2072 26.9805C18.2499 26.9889 18.2904 27.0057 18.3266 27.0298C18.3628 27.0539 18.3939 27.0849 18.4181 27.121C18.4422 27.1572 18.4591 27.1977 18.4676 27.2404C18.4761 27.283 18.4761 27.3269 18.4676 27.3696C18.4591 27.4122 18.4423 27.4528 18.4182 27.4889L16.7953 29.9233C16.7659 29.9673 16.7264 30.0037 16.6801 30.0293C16.6338 30.0549 16.582 30.069 16.5291 30.0705C16.5261 30.0706 16.523 30.0706 16.5199 30.0706Z" fill="white"/>
<path d="M38.6145 31.7968C40.2572 31.7968 41.5889 30.4652 41.5889 28.8225C41.5889 27.1797 40.2572 25.8481 38.6145 25.8481C36.9718 25.8481 35.6401 27.1797 35.6401 28.8225C35.6401 30.4652 36.9718 31.7968 38.6145 31.7968Z" fill="#7CE656"/>
<path d="M38.2088 30.3705C38.1574 30.3705 38.1067 30.3585 38.0608 30.3355C38.0149 30.3126 37.9749 30.2792 37.9441 30.2381L37.1326 29.1562C37.1066 29.1214 37.0876 29.0818 37.0768 29.0398C37.066 28.9977 37.0636 28.9539 37.0698 28.9109C37.0759 28.8678 37.0905 28.8265 37.1126 28.7891C37.1348 28.7517 37.1641 28.719 37.1988 28.693C37.2336 28.6669 37.2731 28.6479 37.3152 28.6372C37.3573 28.6264 37.4011 28.624 37.4441 28.6301C37.4871 28.6363 37.5285 28.6508 37.5659 28.673C37.6033 28.6951 37.6359 28.7244 37.662 28.7592L38.1929 29.4669L39.5564 27.4217C39.6051 27.3488 39.6808 27.2982 39.7668 27.2811C39.8528 27.2639 39.9421 27.2816 40.015 27.3303C40.088 27.3789 40.1386 27.4545 40.1559 27.5405C40.1731 27.6265 40.1555 27.7158 40.107 27.7888L38.4841 30.2231C38.4547 30.2672 38.4152 30.3035 38.3689 30.3291C38.3226 30.3548 38.2709 30.3689 38.218 30.3704C38.2149 30.3704 38.2118 30.3705 38.2088 30.3705Z" fill="white"/>
<path d="M81.0892 44.8504L80.1582 35.8387L79.9125 32.1297L82.5184 31.6585C82.5184 31.6585 82.9086 34.2083 83.25 35.7045C83.5868 37.1811 82.8012 44.6525 82.7804 44.8496C82.9717 45.0207 83.1067 45.2459 83.1673 45.4954C83.2279 45.7449 83.2113 46.0069 83.1198 46.2467C83.0282 46.4866 82.866 46.693 82.6546 46.8387C82.4432 46.9843 82.1926 47.0624 81.9359 47.0625C81.6791 47.0626 81.4284 46.9848 81.2169 46.8394C81.0053 46.6939 80.8429 46.4876 80.7512 46.2478C80.6594 46.0081 80.6426 45.7461 80.703 45.4966C80.7633 45.247 80.898 45.0217 81.0892 44.8504Z" fill="#A0616A"/>
<path d="M74.4199 71.6755L73.1276 71.9709L71.3731 67.1268L73.2804 66.6907L74.4199 71.6755Z" fill="#A0616A"/>
<path d="M74.6535 71.1783L74.3236 71.2533L74.2896 71.2613L72.7814 71.0154L72.7375 71.0084L72.1078 71.76C71.6776 71.8584 71.3041 72.1237 71.0695 72.4974C70.8348 72.8711 70.7582 73.3228 70.8564 73.753L70.8584 73.762L70.8694 73.806L71.0613 73.762L75.0363 72.8524L74.6535 71.1783Z" fill="#2F2E41"/>
<path d="M82.1242 72.5204H80.7985L80.1679 67.407L82.1244 67.4071L82.1242 72.5204Z" fill="#A0616A"/>
<path d="M82.0896 72.0878L81.9737 72.0409L80.6744 71.5121L80.6324 71.4951L79.8518 72.0878C79.6333 72.0878 79.417 72.1307 79.2151 72.2143C79.0132 72.2978 78.8298 72.4203 78.6752 72.5747C78.5207 72.7292 78.3981 72.9125 78.3145 73.1144C78.2308 73.3162 78.1877 73.5325 78.1877 73.751V73.805L81.8468 73.806H82.4625V72.0878H82.0896Z" fill="#2F2E41"/>
<path d="M80.1079 45.1534L81.2229 55.746C81.2229 55.746 82.7072 66.3523 82.4284 67.8157C82.1497 69.2792 82.4981 69.4882 82.4981 69.4882L79.9546 69.3071C79.9546 69.3071 80.0243 68.4011 79.6062 67.983C79.1881 67.5649 79.3971 66.3105 79.3971 66.3105L74.4631 49.056L71.4665 58.1154C71.4665 58.1154 73.3596 65.4621 73.2899 65.6015C73.2202 65.7409 74.4893 68.7999 74.4893 68.7999L71.6499 69.7414C71.6499 69.7414 71.9984 68.6264 71.5106 68.278C71.0227 67.9295 70.6046 68.2083 71.0227 67.5811C71.4409 66.9539 67.7283 62.3478 67.81 59.3792C67.8345 58.4862 67.8642 57.5281 67.8999 56.5465C68.0887 51.3519 68.4452 45.4986 69.0971 45.1534C70.2818 44.5262 80.1079 45.1534 80.1079 45.1534Z" fill="#2F2E41"/>
<path d="M74.8274 23.7061C76.342 23.7061 77.5699 22.4782 77.5699 20.9636C77.5699 19.449 76.342 18.2212 74.8274 18.2212C73.3128 18.2212 72.085 19.449 72.085 20.9636C72.085 22.4782 73.3128 23.7061 74.8274 23.7061Z" fill="#A0616A"/>
<path d="M83.9844 37.7159L80.2605 38.6612L80.2863 37.6159L80.0037 37.3161L79.439 34.3579L78.8394 26.6992L80.8972 27.7906L80.8997 27.7925C81.259 28.1878 81.5596 28.6328 81.792 29.1138C82.5678 30.6908 83.313 34.1645 83.7031 36.1821C83.7165 36.2244 83.7423 36.2617 83.7773 36.289C83.9708 36.4667 84.0971 36.7056 84.1348 36.9656C84.1725 37.2256 84.1194 37.4906 83.9844 37.7159V37.7159Z" fill="#FF3483"/>
<path d="M61.9781 41.105C61.9781 41.105 67.1182 35.6859 67.1661 35.5838C67.5252 32.8571 68.5579 31.6544 68.7127 31.7849L71.3781 32.7083C71.3781 32.7083 70.5853 35.2189 70.0485 36.7102C69.5356 38.1352 63.624 41.6157 63.5253 41.7875C63.6313 42.0214 63.6637 42.2819 63.6183 42.5346C63.573 42.7873 63.452 43.0202 63.2713 43.2026C63.0907 43.3851 62.8589 43.5084 62.6067 43.5562C62.3545 43.604 62.0936 43.5742 61.8588 43.4706C61.6239 43.367 61.426 43.1945 61.2912 42.9759C61.1565 42.7574 61.0913 42.5031 61.1042 42.2467C61.1171 41.9903 61.2076 41.7439 61.3636 41.54C61.5197 41.3361 61.7339 41.1844 61.9781 41.105Z" fill="#A0616A"/>
<path d="M72.6585 27.1924C72.6585 27.1924 70.3508 26.0614 69.4557 28.2827C68.965 29.5368 67.71 32.5803 67.0846 34.4538C67.0805 34.4658 67.0748 34.4771 67.0676 34.4874C66.9003 34.736 66.8101 35.0283 66.8081 35.3279C66.8083 35.3497 66.806 35.3715 66.8013 35.3928C66.8013 35.3928 69.3373 35.8868 70.0916 37.2161L70.3908 36.8915L70.4439 36.664L72.6585 27.1924Z" fill="#2AAE97"/>
<path d="M81.0557 46.3079C75.7446 47.4047 68.7062 45.519 68.7062 45.519L70.5838 37.3802L69.9163 28.8629C69.8348 27.8213 70.428 26.845 71.3509 26.499L72.6253 26.0217L73.6786 24.5136L76.6874 24.6124L77.8902 26.1956L78.8394 26.6991L80.8972 27.7905L80.9062 27.7951V27.7996L80.2605 34.0635L79.871 37.8404C79.871 37.8404 81.0539 42.0882 80.8111 42.6515C80.5684 43.214 80.7794 42.9423 80.8383 43.243C80.8972 43.5437 81.0774 43.5627 81.1046 44.155C81.1327 44.7465 81.0557 46.3079 81.0557 46.3079Z" fill="#2AAE97"/>
<path d="M77.8025 19.9871C77.5857 19.7733 77.912 19.2072 77.8504 18.9091C77.7797 18.5673 77.403 18.5573 77.3132 18.22C77.2165 17.8571 76.8299 17.6596 76.4725 17.5446C75.5562 17.2514 74.5785 17.2066 73.6392 17.4148C73.2236 17.5163 72.8143 17.6424 72.4135 17.7924C72.1369 17.8898 72.4037 17.6248 72.127 17.7222C72.0223 17.7455 71.9299 17.8069 71.8676 17.8943C71.8179 17.9883 71.885 18.1387 71.9896 18.1197C71.6519 18.2686 71.3142 18.4175 70.9764 18.5665C71.1659 18.7649 71.3553 18.9633 71.5447 19.1617C71.2754 19.0851 70.9883 19.4061 71.0945 19.6652C71.1372 19.747 71.1992 19.8171 71.275 19.8696C71.3509 19.9222 71.4383 19.9554 71.5299 19.9666C71.8341 20.0258 71.6034 20.3153 71.9133 20.3097C72.2231 20.3041 74.3839 19.6689 74.5346 19.9397C74.6418 20.1326 74.63 20.388 74.7832 20.5469C74.9792 20.7502 75.3213 20.6759 75.5707 20.5435C75.8202 20.4112 76.0731 20.2293 76.3537 20.261C76.6466 20.2942 76.8682 20.8355 76.9403 21.1213C77.0124 21.4071 76.9669 21.7079 76.921 21.9991C76.8607 22.3815 76.2569 22.764 76.1966 23.1464C76.8667 23.3317 77.5855 22.7421 77.8504 21.7168C77.824 21.0687 78.2642 20.4426 77.8025 19.9871Z" fill="#2F2E41"/>
<path d="M59.4038 45.9895C61.0465 45.9895 62.3782 44.6578 62.3782 43.0151C62.3782 41.3724 61.0465 40.0408 59.4038 40.0408C57.7611 40.0408 56.4294 41.3724 56.4294 43.0151C56.4294 44.6578 57.7611 45.9895 59.4038 45.9895Z" fill="#7CE656"/>
<path d="M58.998 44.5632C58.9467 44.5632 58.896 44.5512 58.8501 44.5282C58.8041 44.5053 58.7642 44.4719 58.7334 44.4308L57.9219 43.3488C57.8958 43.3141 57.8769 43.2745 57.8661 43.2324C57.8553 43.1904 57.8529 43.1466 57.8591 43.1035C57.8652 43.0605 57.8798 43.0192 57.9019 42.9818C57.924 42.9444 57.9533 42.9117 57.9881 42.8857C58.0228 42.8596 58.0624 42.8406 58.1045 42.8298C58.1466 42.8191 58.1904 42.8167 58.2334 42.8228C58.2764 42.829 58.3178 42.8435 58.3552 42.8657C58.3926 42.8878 58.4252 42.9171 58.4513 42.9518L58.9822 43.6596L60.3457 41.6144C60.3697 41.5782 60.4007 41.5471 60.4368 41.5229C60.4729 41.4986 60.5135 41.4818 60.5561 41.4732C60.5987 41.4647 60.6426 41.4646 60.6853 41.473C60.728 41.4814 60.7685 41.4982 60.8047 41.5223C60.8409 41.5464 60.872 41.5775 60.8961 41.6136C60.9203 41.6497 60.9371 41.6903 60.9457 41.7329C60.9542 41.7756 60.9542 41.8195 60.9457 41.8621C60.9372 41.9048 60.9204 41.9453 60.8963 41.9815L59.2733 44.4158C59.244 44.4599 59.2045 44.4962 59.1582 44.5218C59.1119 44.5474 59.0601 44.5616 59.0072 44.5631C59.0042 44.5631 59.0011 44.5632 58.998 44.5632Z" fill="white"/>
<path d="M91.4474 73.8811C91.4475 73.8967 91.4444 73.9122 91.4385 73.9266C91.4325 73.9411 91.4237 73.9542 91.4127 73.9653C91.4016 73.9763 91.3885 73.9851 91.374 73.991C91.3596 73.997 91.3441 74 91.3285 74H63.3139C63.2824 74 63.2521 73.9875 63.2298 73.9652C63.2075 73.9428 63.195 73.9126 63.195 73.8811C63.195 73.8495 63.2075 73.8193 63.2298 73.7969C63.2521 73.7746 63.2824 73.7621 63.3139 73.7621H91.3285C91.3441 73.7621 91.3596 73.7651 91.374 73.7711C91.3885 73.777 91.4016 73.7858 91.4127 73.7968C91.4237 73.8079 91.4325 73.821 91.4385 73.8355C91.4444 73.8499 91.4475 73.8654 91.4474 73.8811Z" fill="#CCCCCC"/>
</g>
<defs>
<clipPath id="clip0_5_351">
<rect width="92.0276" height="74" fill="white"/>
</clipPath>
</defs>
</svg>
