<svg width="115" height="82" viewBox="0 0 115 82" fill="none" xmlns="http://www.w3.org/2000/svg">
<g clip-path="url(#clip0_5_319)" filter="url(#filter0_d_5_319)">
<path d="M75.9435 52.4595H37.6566C34.4383 52.4595 31.8202 50.5127 31.8202 48.1197V19.6503C31.8202 17.2573 34.4383 15.3105 37.6566 15.3105H75.9435C79.1617 15.3105 81.7799 17.2573 81.7799 19.6503V48.1197C81.7799 50.5127 79.1617 52.4595 75.9435 52.4595ZM37.6566 16.0048C34.9489 16.0048 32.754 17.637 32.754 19.6503V48.1197C32.754 50.133 34.9489 51.7651 37.6566 51.7651H64.4756C73.5168 51.7651 80.8461 46.3152 80.8461 39.5924V19.6503C80.8461 17.637 78.6511 16.0048 75.9435 16.0048H37.6566V16.0048Z" fill="#F2F2F2"/>
<path d="M41.7843 18.9653C39.9722 18.9653 38.498 20.0615 38.498 21.4089V25.2336C38.498 26.5811 39.9722 27.6772 41.7843 27.6772H46.9279C48.74 27.6772 50.2142 26.5811 50.2142 25.2336V21.4089C50.2142 20.0615 48.74 18.9653 46.9279 18.9653H41.7843Z" fill="#F2F2F2"/>
<path d="M41.7843 29.7325C39.9722 29.7325 38.498 30.8286 38.498 32.176V36.0008C38.498 37.3482 39.9722 38.4443 41.7843 38.4443H46.9279C48.74 38.4443 50.2142 37.3482 50.2142 36.0008V32.176C50.2142 30.8286 48.74 29.7325 46.9279 29.7325H41.7843Z" fill="#F2F2F2"/>
<path d="M41.7843 40.4996C39.9722 40.4996 38.498 41.5957 38.498 42.9431V46.7679C38.498 48.1153 39.9722 49.2114 41.7843 49.2114H46.9279C48.74 49.2114 50.2142 48.1153 50.2142 46.7679V42.9431C50.2142 41.5957 48.74 40.4996 46.9279 40.4996H41.7843Z" fill="#F2F2F2"/>
<path d="M45.1952 9.63385C42.9119 9.63385 41.0545 11.015 41.0545 12.7128V17.5321C41.0545 19.2299 42.9119 20.6111 45.1952 20.6111H51.6764C53.9597 20.6111 55.8171 19.2299 55.8171 17.5321V12.7128C55.8171 11.015 53.9597 9.63385 51.6764 9.63385H45.1952Z" fill="#2AAE97"/>
<path d="M66.5329 23.1017C64.2496 23.1017 62.3921 24.4829 62.3921 26.1807V30.9999C62.3921 32.6978 64.2496 34.0789 66.5329 34.0789H73.0141C75.2973 34.0789 77.1548 32.6978 77.1548 30.9999V26.1807C77.1548 24.4829 75.2973 23.1017 73.0141 23.1017H66.5329Z" fill="#2AAE97"/>
<path d="M57.2563 71.6096L55.9397 71.6013L55.3568 67.737L57.3001 67.7491L57.2563 71.6096Z" fill="#A0616A"/>
<path d="M53.0389 73.1664C53.0361 73.4074 53.2973 73.6057 53.6225 73.608L56.2404 73.6242L56.6987 72.9335L56.867 73.6277L57.8547 73.6344L57.6053 71.1582L57.2617 71.1412L55.8599 71.0693L55.4077 71.0468L55.3998 71.7474L53.2969 72.808C53.1369 72.8888 53.0405 73.0227 53.0389 73.1664H53.0389Z" fill="#2F2E41"/>
<path d="M63.9554 71.6096L62.6387 71.6013L62.0559 67.737L63.9991 67.7491L63.9554 71.6096Z" fill="#A0616A"/>
<path d="M59.7379 73.1664C59.7351 73.4074 59.9963 73.6057 60.3216 73.608L62.9394 73.6242L63.3977 72.9335L63.566 73.6277L64.5538 73.6344L64.3043 71.1582L63.9607 71.1412L62.559 71.0693L62.1067 71.0468L62.0988 71.7474L59.9959 72.808C59.8359 72.8888 59.7395 73.0227 59.7379 73.1664Z" fill="#2F2E41"/>
<path d="M52.0896 40.3664L57.4267 40.4917L62.4828 41.3272C62.4828 41.3272 61.9772 41.7867 63.6626 43.0399C63.6626 43.0399 65.9098 45.9641 64.3368 48.8047L63.6626 60.1673C63.6626 60.1673 65.6282 68.1771 64.1264 70.7264L62.1415 70.8186L58.7828 60.2597L57.1458 48.8883L56.3593 60.0837C56.3593 60.0837 59.3682 67.7681 57.4682 70.8186L55.3184 70.7264L51.6402 60.0837C51.6402 60.0837 50.0671 47.8021 50.2919 45.4628C50.5166 43.1235 52.0896 40.3664 52.0896 40.3664H52.0896Z" fill="#2F2E41"/>
<path d="M70.0127 22.4118C69.2831 22.5522 68.8448 23.1059 69.0337 23.6484C69.1203 23.897 69.3242 24.0992 69.5892 24.2328L69.5892 24.2342L69.4857 26.0983L71.4041 26.7585L71.5573 23.8899L71.5439 23.8902C71.7102 23.6699 71.7677 23.4037 71.6758 23.1397C71.4869 22.5972 70.7423 22.2713 70.0127 22.4118V22.4118Z" fill="#A0616A"/>
<path d="M59.2904 29.0647C58.8874 28.7677 58.6536 28.3649 58.6449 27.927C58.6331 27.3395 59.0291 26.8063 59.704 26.5007C60.4812 26.1487 61.4531 26.1843 62.18 26.5913L68.2043 29.964L69.2778 25.1053L71.5824 25.657L71.0325 31.9837C70.994 32.4263 70.6576 32.8161 70.1327 33.0266C69.6077 33.237 68.9849 33.2318 68.4665 33.0125L59.7605 29.3294C59.5856 29.2554 59.4281 29.1662 59.2904 29.0647V29.0647Z" fill="#3F3D56"/>
<path d="M50.1045 19.694C50.4896 20.1757 50.2766 20.7984 49.6288 21.0847C49.332 21.216 48.9956 21.2528 48.6809 21.2089L48.6797 21.21L46.9881 22.5879L45.0007 22.0524L47.608 19.9351L47.6172 19.9423C47.7077 19.6988 47.919 19.4796 48.2342 19.3403C48.882 19.0539 49.7194 19.2123 50.1045 19.694Z" fill="#A0616A"/>
<path d="M50.8351 29.9738L41.1653 28.0316C40.5895 27.9159 40.1422 27.5936 39.9687 27.1693C39.7952 26.745 39.9255 26.292 40.3171 25.9576L45.9171 21.1768L48.076 21.9916L44.2379 26.0039L51.7095 26.7626C52.611 26.8542 53.335 27.3377 53.5536 27.9946C53.7435 28.5649 53.5198 29.1509 52.9552 29.5619C52.5344 29.8684 51.987 30.0319 51.4195 30.0319C51.2257 30.0319 51.0294 30.0128 50.8351 29.9738H50.8351Z" fill="#3F3D56"/>
<path d="M64.6212 42.038L51.0991 42.4992C50.7277 42.0799 50.8283 41.4493 51.3484 40.6597C53.3121 37.6783 51.8207 32.0381 50.8175 29.1013C50.536 28.2773 51.2916 27.4581 52.4293 27.3735L53.7043 27.2787L54.8828 24.6036H59.0104L60.7227 26.0582L63.6288 27.3709C63.0998 31.4223 60.846 37.1432 64.0568 40.0122C64.7591 40.6397 64.9582 41.3183 64.6212 42.038Z" fill="#3F3D56"/>
<path d="M56.4216 24.6653C58.642 24.6653 60.4419 23.3269 60.4419 21.6759C60.4419 20.0248 58.642 18.6864 56.4216 18.6864C54.2012 18.6864 52.4012 20.0248 52.4012 21.6759C52.4012 23.3269 54.2012 24.6653 56.4216 24.6653Z" fill="#A0616A"/>
<path d="M60.971 19.7623C61.5303 18.2459 55.4339 16.9455 54.2492 18.1667C54.0845 17.9931 53.4757 17.8877 53.1963 17.9409C52.917 17.9942 52.6821 18.1273 52.4529 18.2562C52.1377 18.4362 51.8111 18.6226 51.6178 18.8814C51.4229 19.1392 51.3929 19.4907 51.655 19.7144C51.8627 19.8923 52.2277 20.8375 52.54 20.8844C52.7577 20.9174 52.9411 20.944 53.0986 20.9632C53.239 20.8109 53.597 20.6196 53.5712 20.4353C53.7832 20.5397 53.7058 20.7233 53.663 20.911C53.5207 21.536 50.314 26.3743 52.1506 24.9486C52.3326 25.0284 52.5575 25.103 52.8167 25.1712C53.2565 24.678 53.6175 24.0964 53.8553 23.4882L53.857 23.4995C53.9388 24.028 54.4583 24.4617 55.1455 24.6098C57.9024 25.2036 60.1325 24.3322 60.8996 22.7607C60.6188 22.3368 60.4964 22.3828 60.5216 22.3702C60.8721 22.1945 61.354 22.3094 61.5046 22.6031C61.5491 22.6897 61.5894 22.7636 61.6244 22.8193C62.0241 21.7562 62.4994 21.9097 60.971 19.7623H60.971Z" fill="#2F2E41"/>
<path d="M59.0691 18.6621L58.7875 17.5916C58.7638 17.5016 58.7413 17.404 58.7959 17.3217C58.866 17.2161 59.0462 17.1723 59.2031 17.1891C59.3599 17.206 59.4772 17.3125 59.6332 17.333C60.1757 17.4043 60.8927 17.0059 61.0871 18.0138C61.1681 18.4341 62.07 18.4785 62.3712 18.8391C62.6723 19.1998 62.7093 19.7204 62.2983 20.0151C61.97 20.2504 61.4428 20.2775 61.0164 20.1573C60.5901 20.0371 60.2479 19.7943 59.949 19.5382C59.6501 19.2822 59.3794 19.0051 59.0347 18.7832" fill="#2F2E41"/>
<path d="M61.1857 20.2904C60.0856 20.1761 59.3358 19.8786 58.957 19.4062C58.4613 18.7878 58.7933 18.1069 58.8077 18.0782L59.0402 18.1425C59.0371 18.1488 58.7359 18.7721 59.1714 19.3133C59.5102 19.7344 60.1995 20.0017 61.22 20.1077L61.1857 20.2904Z" fill="#2AAE97"/>
<path d="M66.3482 8.72313C63.1141 8.72313 60.4826 6.76639 60.4826 4.36156C60.4826 1.95674 63.1141 0 66.3482 0C69.5823 0 72.2138 1.95674 72.2138 4.36156C72.2138 6.76639 69.5823 8.72313 66.3482 8.72313ZM66.3482 1.74463C64.4075 1.74463 62.8288 2.9185 62.8288 4.36156C62.8288 5.80463 64.4075 6.9785 66.3482 6.9785C68.2889 6.9785 69.8676 5.80463 69.8676 4.36156C69.8676 2.9185 68.2889 1.74463 66.3482 1.74463Z" fill="#2AAE97"/>
<path d="M75.3729 11.6872C75.0854 11.6872 74.7972 11.6093 74.571 11.4512L69.0656 7.61485C68.5925 7.2856 68.5684 6.73359 69.0118 6.38219C69.454 6.02952 70.1964 6.01206 70.6695 6.34216L76.1749 10.1785C76.648 10.5078 76.6721 11.0598 76.2287 11.4112C75.9979 11.5948 75.6857 11.6872 75.3729 11.6872Z" fill="#2AAE97"/>
<path d="M100.254 71.5117C100.653 71.5302 100.874 71.1617 100.572 70.947L100.542 70.8582C100.546 70.8511 100.55 70.844 100.554 70.8369C100.957 70.1217 102.324 70.1267 102.724 70.8429C103.079 71.4786 103.531 72.1154 103.642 72.7876C103.692 73.0843 103.67 73.3866 103.581 73.6777C104.413 72.3267 104.851 70.8515 104.851 69.3679C104.851 68.9952 104.823 68.6224 104.767 68.2506C104.721 67.9465 104.657 67.6442 104.575 67.3447C104.13 65.7257 103.166 64.1837 101.776 62.8958C101.107 62.6241 100.55 62.1994 100.213 61.6903C100.092 61.5067 99.9973 61.3092 99.9525 61.108C100.029 61.1154 100.239 60.254 100.182 60.2012C100.288 60.0816 100.478 60.0221 100.593 59.9054C101.169 59.3249 101.962 59.4263 102.377 60.2151C103.261 60.5471 103.27 61.0977 102.727 61.6273C102.382 61.9642 102.334 62.4201 102.031 62.7808C102.062 62.8104 102.095 62.8392 102.126 62.8689C102.698 63.4141 103.192 64.0001 103.609 64.6158C103.491 63.9316 103.665 63.1072 103.962 62.5759C104.299 61.9704 104.932 61.4605 105.489 60.9371C106.158 60.3084 107.53 60.5828 107.648 61.3798C107.649 61.3875 107.65 61.3952 107.651 61.4029C107.569 61.4376 107.488 61.4745 107.408 61.5134C106.957 61.7355 107.113 62.2562 107.648 62.3176L107.66 62.319C107.63 62.5406 107.579 62.7604 107.504 62.9764C108.219 65.0316 106.676 65.7802 104.473 65.8138C104.424 65.8323 104.377 65.8509 104.328 65.8685C104.551 66.3358 104.73 66.8152 104.862 67.3011C104.98 67.7304 105.063 68.1643 105.109 68.6002C105.166 69.15 105.161 69.7027 105.099 70.2516L105.103 70.2321C105.261 69.6276 105.702 69.0629 106.343 68.6716C107.298 68.0883 108.647 67.8735 109.677 67.4047C110.173 67.1791 110.809 67.4707 110.722 67.8982L110.718 67.9186C110.564 67.965 110.415 68.0188 110.27 68.079C110.187 68.1138 110.106 68.1506 110.027 68.1896C109.575 68.4117 109.732 68.9324 110.267 68.9938L110.279 68.9952C110.288 68.9961 110.295 68.997 110.304 68.998C110.041 69.4625 109.674 69.8937 109.215 70.2655C108.768 72.0596 106.849 72.2298 104.796 71.7074H104.795C104.57 72.4343 104.242 73.1446 103.821 73.8215H100.342C100.329 73.7927 100.318 73.7631 100.307 73.7343C100.628 73.7492 100.953 73.7352 101.269 73.6917C101.011 73.4561 100.753 73.2188 100.495 72.9832C100.489 72.9786 100.484 72.974 100.479 72.9693C100.348 72.8488 100.216 72.7292 100.085 72.6086L100.085 72.6085C100.076 72.2385 100.136 71.8696 100.254 71.5117L100.254 71.5117Z" fill="#F2F2F2"/>
<path d="M4 73.8292C4 73.9239 4.10233 74 4.22976 74H110.473C110.601 74 110.703 73.9239 110.703 73.8292C110.703 73.7344 110.601 73.6583 110.473 73.6583H4.22976C4.10233 73.6583 4 73.7344 4 73.8292Z" fill="#CCCCCC"/>
</g>
<defs>
<filter id="filter0_d_5_319" x="0" y="0" width="114.73" height="82" filterUnits="userSpaceOnUse" color-interpolation-filters="sRGB">
<feFlood flood-opacity="0" result="BackgroundImageFix"/>
<feColorMatrix in="SourceAlpha" type="matrix" values="0 0 0 0 0 0 0 0 0 0 0 0 0 0 0 0 0 0 127 0" result="hardAlpha"/>
<feOffset dy="4"/>
<feGaussianBlur stdDeviation="2"/>
<feComposite in2="hardAlpha" operator="out"/>
<feColorMatrix type="matrix" values="0 0 0 0 0 0 0 0 0 0 0 0 0 0 0 0 0 0 0.45 0"/>
<feBlend mode="normal" in2="BackgroundImageFix" result="effect1_dropShadow_5_319"/>
<feBlend mode="normal" in="SourceGraphic" in2="effect1_dropShadow_5_319" result="shape"/>
</filter>
<clipPath id="clip0_5_319">
<rect width="106.73" height="74" fill="white" transform="translate(4)"/>
</clipPath>
</defs>
</svg>
