<svg width="67" height="74" viewBox="0 0 67 74" fill="none" xmlns="http://www.w3.org/2000/svg">
<g clip-path="url(#clip0_23_115)">
<path d="M63.178 69.7494C62.7647 69.8947 62.321 69.9311 61.8896 69.8551C61.4582 69.7791 61.0536 69.5933 60.7149 69.3155C59.8522 68.5914 59.5813 67.3985 59.3616 66.2939L58.7107 63.0266L60.0735 63.9651C61.0536 64.6399 62.0557 65.3364 62.7343 66.314C63.413 67.2915 63.7091 68.6259 63.1639 69.6835" fill="#E6E6E6"/>
<path d="M63.0615 73.7051C63.1994 72.7003 63.3413 71.6827 63.2445 70.6671C63.1585 69.7652 62.8835 68.8844 62.3232 68.162C62.0259 67.7794 61.664 67.4515 61.254 67.1932C61.147 67.1258 61.0487 67.2952 61.1551 67.3623C61.8646 67.8107 62.4133 68.4727 62.7222 69.253C63.0634 70.1208 63.1181 71.0668 63.0589 71.9885C63.0233 72.546 62.948 73.0996 62.872 73.6529C62.8659 73.6779 62.8696 73.7043 62.8823 73.7267C62.895 73.7492 62.9158 73.7659 62.9405 73.7734C62.9655 73.7802 62.9922 73.7768 63.0148 73.764C63.0374 73.7512 63.054 73.7299 63.061 73.705L63.0615 73.7051Z" fill="#F2F2F2"/>
<path d="M58.1221 57.0165H1.10556V-1.19209e-06H58.1221V57.0165Z" fill="white"/>
<path d="M80.3603 110.887H23.3438V53.8703H80.3603V110.887ZM24.1862 110.044H79.5179V54.7127H24.1862V110.044Z" fill="#E5E5E5"/>
<path d="M48.0214 8.92026H23.3309V9.68939H48.0214V8.92026Z" fill="#E5E5E5"/>
<path d="M48.0214 10.92H23.3309V11.6891H48.0214V10.92Z" fill="#E5E5E5"/>
<path d="M48.0214 12.9197H23.3309V13.6888H48.0214V12.9197Z" fill="#E5E5E5"/>
<path d="M48.0214 26.0914H23.3309V26.8606H48.0214V26.0914Z" fill="#E5E5E5"/>
<path d="M48.0214 28.0912H23.3309V28.8603H48.0214V28.0912Z" fill="#E5E5E5"/>
<path d="M48.0214 30.0909H23.3309V30.86H48.0214V30.0909Z" fill="#E5E5E5"/>
<path d="M48.0214 43.2626H23.3309V44.0318H48.0214V43.2626Z" fill="#E5E5E5"/>
<path d="M48.0214 45.2623H23.3309V46.0315H48.0214V45.2623Z" fill="#E5E5E5"/>
<path d="M48.0214 47.2621H23.3309V48.0312H48.0214V47.2621Z" fill="#E5E5E5"/>
<path d="M13.4467 15.0482C13.0249 14.8259 12.5846 14.6407 12.1308 14.4945L12.073 13.8543L9.72614 13.6015L9.42788 14.4197L8.58567 14.7357C8.55553 14.7472 8.52684 14.7621 8.5002 14.7802H8.49929C8.45229 14.812 8.41226 14.853 8.38164 14.9008C8.35103 14.9485 8.33047 15.002 8.32123 15.058C8.31223 15.1137 8.31436 15.1706 8.32749 15.2254L8.372 15.4079C8.43609 15.4462 8.50198 15.4827 8.56784 15.5174L8.60971 15.5388C8.70587 15.5886 8.80381 15.6358 8.9044 15.6794C8.92487 15.6883 8.94713 15.6972 8.96761 15.7061C8.96939 15.707 8.97026 15.707 8.97204 15.7079C9.01925 15.7275 9.06642 15.7462 9.1145 15.764C9.27243 15.8243 9.43351 15.876 9.59703 15.9189C10.0144 16.0302 10.4445 16.0864 10.8764 16.0863C11.034 16.0863 11.1898 16.0792 11.3438 16.064C11.6957 16.0316 12.0432 15.9614 12.3801 15.8548C12.381 15.8548 12.3819 15.8539 12.3828 15.8539C12.5956 15.7861 12.8036 15.7037 13.0051 15.6073C13.006 15.6064 13.0078 15.6064 13.0087 15.6056C13.0541 15.5842 13.0977 15.561 13.1422 15.5388L13.1636 15.5281C13.1992 15.5094 13.2348 15.4907 13.2704 15.4711C13.3594 15.4221 13.4467 15.3705 13.533 15.3153C13.5571 15.3011 13.5802 15.2859 13.6043 15.2699C13.6381 15.2476 13.6719 15.2245 13.7049 15.2005C13.6221 15.147 13.5357 15.0963 13.4467 15.0482Z" fill="#3F3D56"/>
<path d="M9.04237 15.4426L8.89548 14.7794H8.51175C8.50788 14.7794 8.50402 14.7797 8.50019 14.7802H8.49928C8.36138 14.7919 8.22858 14.8378 8.11291 14.9138C8.03445 14.9639 7.96469 15.0264 7.90637 15.099C8.02031 15.1853 8.13873 15.2655 8.26071 15.342L8.26605 15.3447C8.30074 15.3661 8.33639 15.3874 8.372 15.4079C8.43608 15.4462 8.50198 15.4827 8.56784 15.5174L8.6097 15.5388C8.70586 15.5886 8.8038 15.6358 8.90439 15.6794C8.92487 15.6883 8.94713 15.6972 8.9676 15.7061C8.96938 15.707 8.97025 15.707 8.97204 15.7079C9.01925 15.7275 9.06641 15.7462 9.11449 15.764L9.04237 15.4426Z" fill="#3F3D56"/>
<path d="M10.8074 13.1968C11.7409 13.1968 12.4976 12.4401 12.4976 11.5066C12.4976 10.5731 11.7409 9.81641 10.8074 9.81641C9.87397 9.81641 9.11725 10.5731 9.11725 11.5066C9.11725 12.4401 9.87397 13.1968 10.8074 13.1968Z" fill="#FFB8B8"/>
<path d="M9.67265 10.6833C9.84762 10.8904 10.1437 10.9488 10.4169 10.9728C11.0555 11.0081 11.6959 10.9558 12.3203 10.8174C12.359 11.1924 12.2535 11.5967 12.4744 11.9052C12.5779 11.5317 12.6381 11.1476 12.6538 10.7604C12.6703 10.5942 12.6486 10.4265 12.5904 10.27C12.5593 10.1916 12.5068 10.1235 12.4388 10.0734C12.3709 10.0234 12.2903 9.99334 12.2062 9.9868C12.3321 9.89127 12.4796 9.82821 12.6357 9.80319L12.099 9.53349L12.2369 9.392L11.2652 9.33254L11.5467 9.15376C11.1231 9.09556 10.6946 9.08204 10.2682 9.11341C10.069 9.1135 9.8735 9.16783 9.70279 9.27058C9.54236 9.3853 9.44967 9.6133 9.54926 9.78173C9.42457 9.8022 9.30718 9.85417 9.2082 9.93271C9.10922 10.0112 9.03193 10.1138 8.98365 10.2305C8.92259 10.4161 8.90785 10.6138 8.94071 10.8064C8.97732 11.1154 9.04913 11.4193 9.15476 11.712L9.67265 10.6833Z" fill="#2F2E41"/>
<path d="M15.5602 9.67439C15.3231 8.99312 14.9402 8.37178 14.4382 7.8537C13.9363 7.33561 13.3274 6.93326 12.6539 6.67469C11.9805 6.41612 11.2588 6.30756 10.5391 6.35658C9.81939 6.4056 9.11905 6.61102 8.48691 6.95851C7.85476 7.30601 7.30602 7.78721 6.87895 8.36857C6.45189 8.94993 6.15677 9.61745 6.01419 10.3246C5.87162 11.0317 5.88501 11.7614 6.05342 12.4629C6.22184 13.1643 6.54124 13.8205 6.98934 14.3858C7.03386 14.4419 7.08015 14.498 7.12736 14.5523C7.13093 14.5559 7.13358 14.5595 7.13715 14.563C7.25319 14.6967 7.37653 14.8239 7.50661 14.9441C7.54047 14.9752 7.57608 15.0073 7.61168 15.0375C7.67932 15.0981 7.74879 15.1559 7.82091 15.2111C7.84938 15.2334 7.87698 15.2557 7.90637 15.277C8.02031 15.3634 8.13873 15.4435 8.26071 15.5201L8.26605 15.5227C8.30074 15.5441 8.33639 15.5655 8.372 15.586C8.43608 15.6242 8.50198 15.6607 8.56784 15.6955L8.6097 15.7168C8.70586 15.7667 8.8038 15.8139 8.90439 15.8575C8.92487 15.8664 8.94713 15.8753 8.9676 15.8842C8.96938 15.8851 8.97025 15.8851 8.97203 15.886C9.01924 15.9056 9.06641 15.9243 9.11449 15.9421C9.27242 16.0024 9.4335 16.0541 9.59702 16.097C10.0144 16.2082 10.4445 16.2645 10.8764 16.2644C11.034 16.2644 11.1898 16.2572 11.3438 16.2421C11.6957 16.2096 12.0431 16.1395 12.3801 16.0329C12.381 16.0329 12.3819 16.032 12.3828 16.032C12.5956 15.9642 12.8036 15.8818 13.0051 15.7854C13.006 15.7845 13.0078 15.7845 13.0087 15.7836C13.0541 15.7622 13.0977 15.7391 13.1422 15.7168L13.1636 15.7061C13.1992 15.6875 13.2348 15.6688 13.2704 15.6492C13.3594 15.6002 13.4467 15.5486 13.533 15.4934C13.5571 15.4791 13.5802 15.464 13.6043 15.448C13.6381 15.4257 13.6719 15.4026 13.7049 15.3785C13.7485 15.3483 13.7921 15.3171 13.8348 15.285C13.8482 15.2752 13.8625 15.2655 13.8758 15.2548C14.7099 14.6217 15.3221 13.7407 15.6247 12.7383C15.9273 11.7358 15.9047 10.6632 15.5602 9.67439V9.67439ZM13.712 15.0384C13.6826 15.0616 13.6524 15.0838 13.6221 15.1043C13.5927 15.1266 13.5633 15.1479 13.533 15.1675C13.5072 15.1862 13.4814 15.204 13.4547 15.2209L13.4467 15.2263C13.4271 15.2396 13.4075 15.2521 13.3879 15.2646C13.314 15.3109 13.2392 15.3554 13.1636 15.3981L13.1395 15.4115C13.1057 15.4302 13.0719 15.448 13.0381 15.4658C13.0336 15.4684 13.0282 15.4702 13.0238 15.4729L13.0185 15.4756C12.9757 15.4978 12.9321 15.5192 12.8885 15.5397C12.7201 15.6207 12.5468 15.6909 12.3694 15.7498C12.3463 15.7578 12.3231 15.7658 12.3 15.7729C11.9811 15.8744 11.6521 15.9412 11.3189 15.9724C11.1729 15.9857 11.0251 15.9928 10.8764 15.9928C10.4679 15.9937 10.061 15.9404 9.6665 15.8344C9.46402 15.7815 9.26557 15.7143 9.07267 15.6332C9.06285 15.6287 9.05216 15.6251 9.04237 15.6207C9.03172 15.6162 9.0219 15.6127 9.01212 15.6082C9.00142 15.6038 8.99164 15.5993 8.98095 15.594C8.89726 15.5575 8.81445 15.5174 8.73346 15.4756L8.6943 15.4551C8.59544 15.4035 8.49841 15.3483 8.40404 15.2895C8.37643 15.2726 8.34796 15.2548 8.32122 15.2361C8.31414 15.2316 8.30788 15.2272 8.30075 15.2227C8.23754 15.1809 8.17433 15.1373 8.11291 15.0918C8.07109 15.0607 8.02922 15.0295 7.98827 14.9975C7.91972 14.9458 7.85382 14.8906 7.78974 14.8337C7.75592 14.8052 7.72296 14.774 7.69093 14.7446C7.56469 14.6281 7.4452 14.5044 7.33303 14.3743C7.29564 14.3315 7.25913 14.2888 7.22439 14.2443C7.2165 14.2355 7.20906 14.2263 7.20213 14.2167C6.62368 13.4867 6.27575 12.6011 6.20271 11.6726C6.12966 10.7441 6.33482 9.81488 6.79202 9.00347C7.24922 8.19206 7.93773 7.5352 8.76976 7.11668C9.60178 6.69817 10.5396 6.53694 11.4636 6.65358C12.3876 6.77023 13.256 7.15944 13.9579 7.77159C14.6598 8.38374 15.1635 9.19109 15.4047 10.0907C15.646 10.9902 15.6138 11.9413 15.3123 12.8225C15.0108 13.7037 14.4537 14.4751 13.712 15.0384L13.712 15.0384Z" fill="#3F3D56"/>
<path d="M15.5603 26.8456C15.3231 26.1643 14.9402 25.543 14.4383 25.0249C13.9363 24.5068 13.3274 24.1044 12.654 23.8459C11.9805 23.5873 11.2588 23.4787 10.5391 23.5278C9.81942 23.5768 9.11908 23.7822 8.48693 24.1297C7.85479 24.4772 7.30605 24.9584 6.87898 25.5398C6.45192 26.1211 6.15681 26.7886 6.01423 27.4958C5.87165 28.2029 5.88503 28.9326 6.05345 29.634C6.22187 30.3355 6.54127 30.9917 6.98937 31.557C7.03388 31.6131 7.08018 31.6692 7.12734 31.7235C7.13091 31.7271 7.13356 31.7306 7.13713 31.7342C7.2532 31.8679 7.37656 31.9951 7.50663 32.1152C7.54045 32.1464 7.57606 32.1784 7.61166 32.2087C7.67935 32.2693 7.74877 32.3271 7.82089 32.3823C7.9617 32.4933 8.10852 32.5964 8.26069 32.6913L8.26604 32.6939C8.36485 32.7554 8.46544 32.8123 8.56786 32.8667L8.60968 32.888C8.70584 32.9379 8.80378 32.9851 8.90437 33.0287C8.92485 33.0376 8.94711 33.0465 8.96758 33.0554C8.96936 33.0563 8.97027 33.0563 8.97206 33.0572C9.17532 33.1417 9.38414 33.2122 9.59705 33.2682C10.0144 33.3794 10.4445 33.4357 10.8764 33.4355C11.034 33.4355 11.1898 33.4284 11.3438 33.4133C11.6957 33.3808 12.0431 33.3107 12.3801 33.2041C12.381 33.2041 12.3819 33.2032 12.3827 33.2032C12.5956 33.1354 12.8036 33.053 13.0051 32.9566C13.006 32.9557 13.0078 32.9557 13.0087 32.9548C13.054 32.9334 13.0977 32.9103 13.1422 32.888L13.1636 32.8773C13.1992 32.8586 13.2348 32.8399 13.2704 32.8203C13.3594 32.7714 13.4467 32.7197 13.533 32.6645C13.5571 32.6503 13.5802 32.6352 13.6043 32.6191C13.6826 32.5675 13.7601 32.5123 13.8348 32.4562C13.8482 32.4464 13.8624 32.4366 13.8758 32.4259C14.7099 31.7928 15.3221 30.9119 15.6247 29.9094C15.9273 28.907 15.9047 27.8344 15.5603 26.8456V26.8456Z" fill="white"/>
<path d="M12.5131 30.5202C12.9236 30.5202 13.2564 30.1874 13.2564 29.7769C13.2564 29.3664 12.9236 29.0336 12.5131 29.0336C12.1026 29.0336 11.7698 29.3664 11.7698 29.7769C11.7698 30.1874 12.1026 30.5202 12.5131 30.5202Z" fill="#2F2E41"/>
<path d="M12.7202 29.0541C12.8488 29.0541 12.9753 29.0875 13.0872 29.151C13.1991 29.2145 13.2925 29.306 13.3585 29.4164C13.4244 29.5269 13.4606 29.6526 13.4634 29.7812C13.4662 29.9098 13.4356 30.037 13.3746 30.1502C13.439 30.0696 13.4859 29.9764 13.5123 29.8767C13.5388 29.7769 13.5441 29.6727 13.5281 29.5708C13.512 29.4688 13.4749 29.3713 13.4191 29.2845C13.3633 29.1977 13.29 29.1234 13.2039 29.0665C13.1178 29.0096 13.0209 28.9712 12.9191 28.9538C12.8174 28.9364 12.7131 28.9404 12.613 28.9656C12.5129 28.9907 12.4192 29.0364 12.3377 29.0998C12.2562 29.1631 12.1889 29.2428 12.1399 29.3336C12.2094 29.2464 12.2977 29.1759 12.3981 29.1275C12.4986 29.0791 12.6087 29.054 12.7203 29.0541L12.7202 29.0541Z" fill="#2F2E41"/>
<path d="M11.1241 29.7753C12.33 29.7753 13.3076 28.7977 13.3076 27.5918C13.3076 26.3858 12.33 25.4082 11.1241 25.4082C9.91813 25.4082 8.94052 26.3858 8.94052 27.5918C8.94052 28.7977 9.91813 29.7753 11.1241 29.7753Z" fill="#2F2E41"/>
<path d="M9.41033 26.237C9.78657 25.8139 10.3125 25.5535 10.8771 25.5107C11.4417 25.468 12.0008 25.6463 12.4364 26.008C12.4186 25.991 12.4008 25.9739 12.3824 25.9574C11.9511 25.571 11.3839 25.3718 10.8057 25.4036C10.2274 25.4353 9.68548 25.6955 9.29906 26.1268C8.91265 26.5582 8.71341 27.1254 8.74517 27.7036C8.77694 28.2818 9.03711 28.8238 9.46845 29.2102C9.4726 29.2139 9.47676 29.2176 9.48093 29.2213C9.49944 29.2377 9.5185 29.2533 9.53746 29.2691C9.12723 28.8788 8.88467 28.3444 8.86097 27.7787C8.83726 27.213 9.03427 26.6602 9.41042 26.237L9.41033 26.237Z" fill="#2F2E41"/>
<path d="M11.1055 29.7568C11.8822 29.7568 12.5118 29.1272 12.5118 28.3505C12.5118 27.5738 11.8822 26.9442 11.1055 26.9442C10.3288 26.9442 9.69922 27.5738 9.69922 28.3505C9.69922 29.1272 10.3288 29.7568 11.1055 29.7568Z" fill="#A0616A"/>
<path d="M13.6221 32.0146V32.4865C13.5357 32.5417 13.4485 32.5933 13.3594 32.6423C13.3238 32.6619 13.2882 32.6806 13.2526 32.6993L13.2312 32.71C13.1867 32.7322 13.1431 32.7554 13.0977 32.7767C13.0968 32.7776 13.095 32.7776 13.0941 32.7785C12.8926 32.8749 12.6847 32.9573 12.4718 33.0251C12.4709 33.0251 12.47 33.026 12.4691 33.026C12.1322 33.1326 11.7847 33.2028 11.4328 33.2352C11.2788 33.2504 11.123 33.2575 10.9654 33.2575C10.5335 33.2576 10.1034 33.2013 9.68609 33.0901C9.47319 33.0341 9.26437 32.9636 9.0611 32.8791C9.05932 32.8782 9.05841 32.8782 9.05662 32.8773C9.03615 32.8684 9.01389 32.8595 8.99341 32.8506C8.89282 32.807 8.79488 32.7598 8.69872 32.71L8.6569 32.6886C8.55448 32.6343 8.45389 32.5773 8.35508 32.5159L8.34973 32.5132C8.19757 32.4184 8.05074 32.3153 7.90993 32.2043C7.83781 32.1491 7.76839 32.0912 7.7007 32.0307C7.6651 32.0004 7.6295 31.9683 7.59568 31.9372C7.4656 31.8171 7.34224 31.6898 7.22617 31.5561C7.24156 31.4634 7.26419 31.372 7.29385 31.2828L7.29472 31.2819C7.30005 31.2667 7.30629 31.2519 7.31341 31.2374C7.31833 31.2246 7.32397 31.2121 7.33033 31.2C7.48969 30.9018 7.77817 30.8279 8.13607 30.8118C8.33817 30.8029 8.56161 30.8127 8.79758 30.8101C8.92221 30.8092 9.05127 30.8047 9.18039 30.7931C9.995 30.7193 9.84724 30.2385 9.88372 29.9794C9.92023 29.7284 10.1464 29.9456 10.1615 29.9598L10.1624 29.9607C10.6234 30.1765 11.1334 30.2659 11.6403 30.2198C11.7275 30.2091 11.8148 30.2029 11.902 30.2002C12.1317 30.1975 12.0819 30.2634 12.0026 30.3177C11.9642 30.343 11.924 30.3656 11.8825 30.3854C11.8825 30.3854 11.8459 30.608 11.8086 30.9409C11.7729 31.2597 12.3837 31.4092 12.4344 31.4208C12.4355 31.4215 12.4367 31.4218 12.438 31.4217C12.661 31.3639 12.8958 31.37 13.1155 31.4395H13.1164C13.2419 31.4857 13.3539 31.5624 13.4422 31.6629C13.5305 31.7633 13.5924 31.8842 13.6221 32.0146Z" fill="#2AAE97"/>
<path d="M9.06998 32.5871C9.06998 32.653 9.06824 32.7162 9.06555 32.7758C9.06468 32.8115 9.0629 32.8462 9.06112 32.8791C9.05933 32.8782 9.05842 32.8782 9.05664 32.8773C9.03616 32.8684 9.0139 32.8595 8.99343 32.8506C8.89284 32.807 8.79489 32.7598 8.69874 32.71L8.65692 32.6886C8.5545 32.6343 8.45391 32.5773 8.35509 32.5159C8.35775 32.4847 8.36222 32.4536 8.36665 32.4224C8.37643 32.3538 8.38448 32.2844 8.38982 32.2158C8.42483 31.7342 8.33754 31.2516 8.13608 30.8127V30.8118C8.11826 30.7762 8.1076 30.7566 8.1076 30.7566C8.1076 30.7566 8.36665 30.5341 8.73612 30.7566C8.75972 30.7705 8.78056 30.7886 8.79758 30.8101C9.02016 31.0727 9.08068 31.9559 9.06998 32.5871Z" fill="#2F2E41"/>
<path d="M13.1128 32.466C13.1093 32.5657 13.1039 32.6699 13.0977 32.7758V32.7767C13.0968 32.7776 13.095 32.7776 13.0941 32.7785C12.8926 32.8749 12.6847 32.9573 12.4718 33.0251C12.4709 33.0251 12.4701 33.026 12.4691 33.026L12.4594 32.7758L12.4585 32.7429L12.4113 31.525C12.41 31.4974 12.4144 31.4699 12.424 31.444C12.4337 31.4182 12.4485 31.3945 12.4676 31.3746C12.4866 31.3546 12.5095 31.3387 12.5349 31.3278C12.5603 31.317 12.5876 31.3113 12.6152 31.3113H13.0665C13.0888 31.3113 13.1048 31.3567 13.1155 31.4386V31.4395C13.1374 31.7814 13.1365 32.1243 13.1128 32.466Z" fill="#2F2E41"/>
<path d="M9.90274 26.5926V27.9993H10.2284L10.6428 27.5552L10.5874 27.9993H12.027L11.938 27.5552L12.116 27.9993H12.3455V26.5926H9.90274Z" fill="#2F2E41"/>
<path d="M9.68072 28.258C9.74204 28.258 9.79174 28.1669 9.79174 28.0545C9.79174 27.942 9.74204 27.8509 9.68072 27.8509C9.61941 27.8509 9.5697 27.942 9.5697 28.0545C9.5697 28.1669 9.61941 28.258 9.68072 28.258Z" fill="#A0616A"/>
<path d="M12.5305 28.258C12.5918 28.258 12.6415 28.1669 12.6415 28.0545C12.6415 27.942 12.5918 27.8509 12.5305 27.8509C12.4691 27.8509 12.4194 27.942 12.4194 28.0545C12.4194 28.1669 12.4691 28.258 12.5305 28.258Z" fill="#A0616A"/>
<path d="M13.9239 32.2782C13.8491 32.3342 13.7716 32.3894 13.6933 32.4411C13.6693 32.4571 13.6461 32.4722 13.6221 32.4865C13.5357 32.5417 13.4485 32.5933 13.3594 32.6423C13.3238 32.6619 13.2882 32.6806 13.2526 32.6993V31.7182C13.2526 31.7182 13.395 31.8321 13.6221 32.0218C13.6506 32.0458 13.6799 32.0707 13.7111 32.0974C13.777 32.1526 13.8482 32.2132 13.9239 32.2782Z" fill="#2AAE97"/>
<path d="M15.5603 26.8456C15.3231 26.1643 14.9402 25.543 14.4383 25.0249C13.9363 24.5068 13.3274 24.1044 12.654 23.8459C11.9805 23.5873 11.2588 23.4787 10.5391 23.5278C9.81942 23.5768 9.11908 23.7822 8.48693 24.1297C7.85479 24.4772 7.30605 24.9584 6.87898 25.5398C6.45192 26.1211 6.15681 26.7886 6.01423 27.4958C5.87165 28.2029 5.88503 28.9326 6.05345 29.634C6.22187 30.3355 6.54127 30.9917 6.98937 31.557C7.03388 31.6131 7.08018 31.6692 7.12734 31.7235C7.13091 31.7271 7.13356 31.7306 7.13713 31.7342C7.2532 31.8679 7.37656 31.9951 7.50663 32.1152C7.54045 32.1464 7.57606 32.1784 7.61166 32.2087C7.67935 32.2693 7.74877 32.3271 7.82089 32.3823C7.9617 32.4933 8.10852 32.5964 8.26069 32.6913L8.26604 32.6939C8.36485 32.7554 8.46544 32.8123 8.56786 32.8667L8.60968 32.888C8.70584 32.9379 8.80378 32.9851 8.90437 33.0287C8.92485 33.0376 8.94711 33.0465 8.96758 33.0554C8.96936 33.0563 8.97027 33.0563 8.97206 33.0572C9.17532 33.1417 9.38414 33.2122 9.59705 33.2682C10.0144 33.3794 10.4445 33.4357 10.8764 33.4355C11.034 33.4355 11.1898 33.4284 11.3438 33.4133C11.6957 33.3808 12.0431 33.3107 12.3801 33.2041C12.381 33.2041 12.3819 33.2032 12.3827 33.2032C12.5956 33.1354 12.8036 33.053 13.0051 32.9566C13.006 32.9557 13.0078 32.9557 13.0087 32.9548C13.054 32.9334 13.0977 32.9103 13.1422 32.888L13.1636 32.8773C13.1992 32.8586 13.2348 32.8399 13.2704 32.8203C13.3594 32.7714 13.4467 32.7197 13.533 32.6645C13.5571 32.6503 13.5802 32.6352 13.6043 32.6191C13.6826 32.5675 13.7601 32.5123 13.8348 32.4562C13.8482 32.4464 13.8624 32.4366 13.8758 32.4259C14.7099 31.7928 15.3221 30.9119 15.6247 29.9094C15.9273 28.907 15.9047 27.8344 15.5603 26.8456V26.8456ZM13.712 32.2096C13.6826 32.2328 13.6523 32.255 13.6221 32.2755C13.5927 32.2977 13.5633 32.3191 13.5331 32.3387C13.5072 32.3574 13.4814 32.3752 13.4547 32.3921C13.4324 32.4072 13.4102 32.4215 13.3879 32.4357C13.314 32.482 13.2393 32.5265 13.1636 32.5693L13.1395 32.5826C13.1057 32.6013 13.0719 32.6191 13.038 32.6369C13.0336 32.6396 13.0282 32.6414 13.0238 32.6441L13.0184 32.6467C12.9757 32.669 12.9321 32.6904 12.8885 32.7108C12.7201 32.7919 12.5467 32.8621 12.3694 32.921C12.3463 32.929 12.3231 32.937 12.3 32.9441C11.981 33.0455 11.6521 33.1124 11.3189 33.1435C11.1729 33.1569 11.025 33.164 10.8764 33.164C10.4678 33.1648 10.061 33.1116 9.66647 33.0055C9.464 32.9527 9.26555 32.8854 9.07265 32.8043C9.05218 32.7963 9.0317 32.7874 9.0121 32.7794C9.00145 32.7749 8.99162 32.7705 8.98093 32.7652C8.89725 32.7286 8.81448 32.6886 8.73345 32.6467L8.69428 32.6263C8.59547 32.5746 8.4984 32.5194 8.40402 32.4607C8.36933 32.4393 8.33459 32.417 8.30077 32.3939C8.19392 32.3236 8.08976 32.2479 7.98826 32.1686C7.9197 32.117 7.85384 32.0618 7.78972 32.0048C7.7559 31.9763 7.72295 31.9452 7.69091 31.9158C7.56468 31.7992 7.44519 31.6756 7.33301 31.5454C7.29563 31.5027 7.25911 31.46 7.22437 31.4155C7.21648 31.4067 7.20905 31.3974 7.20212 31.3879C6.62366 30.6579 6.27573 29.7722 6.20269 28.8437C6.12965 27.9153 6.33481 26.9861 6.79201 26.1746C7.2492 25.3632 7.93772 24.7064 8.76974 24.2879C9.60176 23.8693 10.5396 23.7081 11.4636 23.8248C12.3876 23.9414 13.256 24.3306 13.9579 24.9428C14.6598 25.5549 15.1635 26.3623 15.4047 27.2618C15.6459 28.1614 15.6138 29.1124 15.3123 29.9937C15.0108 30.8749 14.4537 31.6463 13.712 32.2096V32.2096Z" fill="#3F3D56"/>
<path d="M10.9044 47.8762C11.9776 47.8762 12.8476 47.0062 12.8476 45.933C12.8476 44.8598 11.9776 43.9897 10.9044 43.9897C9.83118 43.9897 8.96118 44.8598 8.96118 45.933C8.96118 47.0062 9.83118 47.8762 10.9044 47.8762Z" fill="#2F2E41"/>
<path d="M9.38762 44.8852C9.70164 44.5712 9.76528 44.1257 9.52977 43.8902C9.29425 43.6547 8.84878 43.7184 8.53476 44.0324C8.22075 44.3464 8.15711 44.7919 8.39262 45.0274C8.62813 45.2629 9.07361 45.1992 9.38762 44.8852Z" fill="#2F2E41"/>
<path d="M12.9297 44.2681C13.0606 43.9619 12.8356 43.5721 12.4272 43.3977C12.0188 43.2232 11.5817 43.3301 11.4508 43.6364C11.32 43.9427 11.545 44.3324 11.9534 44.5069C12.3618 44.6813 12.7989 44.5744 12.9297 44.2681Z" fill="#2F2E41"/>
<path d="M13.2288 49.7023L12.9998 49.342C12.9027 49.125 12.7235 48.9553 12.5015 48.8702C12.2795 48.785 12.0328 48.7913 11.8154 48.8876C11.5981 48.984 11.4277 49.1626 11.3418 49.3843C11.2558 49.6059 11.2612 49.8527 11.3568 50.0704L11.4219 50.3038L11.496 50.5687C11.7959 50.5308 12.0919 50.4662 12.3803 50.3756C12.3812 50.3755 12.382 50.3751 12.3826 50.3745C12.5958 50.3071 12.8039 50.2245 13.0055 50.1276C13.0066 50.1265 13.0077 50.1265 13.0088 50.1254C13.0537 50.104 13.0975 50.0816 13.1424 50.0592C13.1497 50.0559 13.1568 50.0521 13.1637 50.0479C13.1996 50.03 13.2355 50.0109 13.2703 49.9918C13.3062 49.9727 13.341 49.9525 13.3747 49.9312L13.2288 49.7023Z" fill="#CACACA"/>
<path d="M10.966 48.046C11.8769 48.046 12.6152 47.3077 12.6152 46.3968C12.6152 45.486 11.8769 44.7477 10.966 44.7477C10.0552 44.7477 9.31686 45.486 9.31686 46.3968C9.31686 47.3077 10.0552 48.046 10.966 48.046Z" fill="#FFB6B6"/>
<path d="M13.3477 49.6316C13.1658 49.3291 12.94 49.0552 12.6777 48.819C12.498 48.6585 12.2655 48.5698 12.0245 48.5699H9.70137C9.5675 48.5698 9.43505 48.5972 9.31219 48.6504C9.18933 48.7035 9.07868 48.7813 8.98707 48.8789C8.89545 48.9765 8.82483 49.0919 8.77956 49.2179C8.73428 49.3439 8.71533 49.4778 8.72385 49.6114C8.72892 49.6867 8.74249 49.7613 8.76429 49.8336C8.78085 49.886 8.80148 49.937 8.826 49.9862L8.94047 50.2152C8.94946 50.2185 8.95844 50.223 8.96738 50.2264C8.96962 50.2275 8.97078 50.2275 8.97187 50.2286C9.01899 50.2477 9.06618 50.2668 9.1144 50.2847C9.27233 50.3451 9.43344 50.3968 9.59702 50.4396C9.86033 50.5103 10.1291 50.5588 10.4005 50.5844C10.5588 50.599 10.7171 50.6068 10.8764 50.6068C11.0347 50.6068 11.1895 50.599 11.3444 50.5844C11.3949 50.5799 11.4454 50.5743 11.4959 50.5687C11.7959 50.5308 12.0918 50.4662 12.3803 50.3757C12.3811 50.3755 12.3819 50.3751 12.3825 50.3745C12.5958 50.3071 12.8039 50.2245 13.0054 50.1276C13.0065 50.1265 13.0076 50.1265 13.0088 50.1254C13.0537 50.1041 13.0975 50.0816 13.1423 50.0592C13.1497 50.0559 13.1568 50.0521 13.1637 50.0479C13.1995 50.03 13.2355 50.0109 13.2703 49.9918C13.3062 49.9727 13.341 49.9525 13.3746 49.9312C13.4106 49.9121 13.4442 49.8908 13.479 49.8695C13.4364 49.7853 13.3926 49.7068 13.3477 49.6316Z" fill="#CACACA"/>
<path d="M10.1222 48.8706C9.90724 48.7701 9.66118 48.7587 9.43784 48.8391C9.2145 48.9194 9.03206 49.0849 8.93039 49.2994L8.72385 49.6114L8.6251 49.7606L8.47473 49.9873C8.50613 50.0042 8.53644 50.021 8.56789 50.0378L8.60937 50.0592C8.70593 50.1085 8.80353 50.1557 8.90458 50.1994C8.91576 50.2051 8.92815 50.2095 8.94047 50.2152C8.94946 50.2185 8.95845 50.223 8.96738 50.2264C8.96962 50.2275 8.97078 50.2275 8.97187 50.2286C9.019 50.2477 9.06618 50.2668 9.1144 50.2847C9.27233 50.3451 9.43345 50.3968 9.59702 50.4396C9.86033 50.5103 10.1291 50.5587 10.4005 50.5844L10.4791 50.3184L10.5555 50.0648C10.6561 49.8489 10.667 49.602 10.5857 49.3781C10.5045 49.1543 10.3378 48.9718 10.1222 48.8706Z" fill="#CACACA"/>
<path d="M9.23312 45.3595C9.60999 45.6193 10.0573 45.7575 10.515 45.7557C10.3517 45.8689 10.1659 45.9454 9.97019 45.9798C10.5787 46.1103 11.2077 46.1139 11.8177 45.9902C11.9532 45.9684 12.0841 45.9235 12.2044 45.8574C12.2644 45.8239 12.3166 45.7781 12.3577 45.7231C12.3989 45.6681 12.4279 45.6051 12.4431 45.5381C12.4836 45.3065 12.3032 45.0962 12.1157 44.9544C11.8286 44.7406 11.4976 44.5934 11.1466 44.5232C10.7956 44.4531 10.4334 44.4618 10.0862 44.5488C9.85492 44.5954 9.6444 44.7144 9.48519 44.8885C9.40815 44.9771 9.36164 45.0882 9.35253 45.2053C9.34343 45.3224 9.3722 45.4393 9.43462 45.5387L9.23312 45.3595Z" fill="#2F2E41"/>
<path d="M15.5609 44.0167C15.3238 43.3354 14.9409 42.714 14.439 42.1958C13.937 41.6776 13.3281 41.2752 12.6546 41.0166C11.9811 40.758 11.2594 40.6494 10.5396 40.6984C9.81988 40.7474 9.11948 40.9528 8.48729 41.3003C7.85509 41.6478 7.30631 42.1291 6.87922 42.7105C6.45214 43.2919 6.15703 43.9595 6.01447 44.6666C5.8719 45.3738 5.88533 46.1036 6.0538 46.8051C6.22228 47.5065 6.54175 48.1628 6.98993 48.7281C7.03366 48.7842 7.08084 48.8403 7.12797 48.8942C7.13067 48.8982 7.13368 48.9019 7.13696 48.9054C7.25318 49.0391 7.37682 49.1661 7.50729 49.2859C7.54094 49.3173 7.57574 49.3499 7.61169 49.3802C7.67898 49.4408 7.74858 49.498 7.82152 49.553C7.84957 49.5754 7.87763 49.5979 7.90684 49.6192C8.02016 49.7056 8.13913 49.7853 8.26035 49.8628C8.26243 49.8628 8.26442 49.8636 8.26594 49.865C8.30074 49.8863 8.33669 49.9076 8.37258 49.9278C8.40623 49.948 8.44103 49.9682 8.47473 49.9873C8.50613 50.0042 8.53643 50.021 8.56789 50.0378L8.60937 50.0592C8.70593 50.1085 8.80353 50.1557 8.90458 50.1994C8.91575 50.2051 8.92814 50.2095 8.94047 50.2152C8.94946 50.2185 8.95844 50.223 8.96738 50.2264C8.96962 50.2275 8.97077 50.2275 8.97186 50.2286C9.01899 50.2477 9.06617 50.2668 9.1144 50.2847C9.27233 50.3451 9.43344 50.3968 9.59702 50.4396C9.86033 50.5103 10.1291 50.5587 10.4005 50.5844C10.5588 50.599 10.7171 50.6068 10.8764 50.6068C11.0347 50.6068 11.1895 50.599 11.3444 50.5844C11.3949 50.5799 11.4454 50.5743 11.4959 50.5687C11.7959 50.5308 12.0918 50.4662 12.3803 50.3756C12.3811 50.3755 12.3819 50.3751 12.3825 50.3745C12.5957 50.307 12.8039 50.2245 13.0054 50.1276C13.0065 50.1265 13.0076 50.1265 13.0088 50.1254C13.0537 50.104 13.0974 50.0816 13.1423 50.0592C13.1497 50.0559 13.1568 50.0521 13.1636 50.0479C13.1995 50.03 13.2355 50.0109 13.2703 49.9918C13.3062 49.9727 13.341 49.9525 13.3746 49.9312C13.4106 49.9121 13.4442 49.8908 13.479 49.8695C13.497 49.8583 13.515 49.847 13.5329 49.8358C13.5576 49.8212 13.58 49.8066 13.6047 49.7898C13.6384 49.7685 13.6721 49.7449 13.7046 49.7213C13.7484 49.691 13.7922 49.6596 13.8348 49.6271C13.8492 49.6177 13.863 49.6076 13.8763 49.5968C14.7098 48.9632 15.3215 48.0823 15.6241 47.0801C15.9266 46.0779 15.9045 45.0056 15.5609 44.0167L15.5609 44.0167ZM13.7125 49.3802C13.6833 49.4037 13.653 49.4262 13.6227 49.4464C13.5924 49.4688 13.5632 49.4902 13.5329 49.5104C13.5071 49.5283 13.4813 49.5463 13.4544 49.5631C13.4519 49.5652 13.4493 49.5671 13.4465 49.5687C13.4274 49.5822 13.4072 49.5945 13.3881 49.6069C13.3746 49.6147 13.3612 49.6237 13.3477 49.6316C13.3084 49.6563 13.2691 49.6798 13.2288 49.7023C13.2074 49.7157 13.185 49.7281 13.1637 49.7404C13.1558 49.7449 13.1479 49.7494 13.1401 49.7539C13.1053 49.773 13.0716 49.7898 13.0379 49.8078C13.0335 49.8111 13.0279 49.8123 13.0245 49.8156C13.0224 49.8157 13.0204 49.8165 13.0189 49.8179C12.9762 49.8403 12.9325 49.8616 12.8887 49.8818C12.7202 49.9629 12.5466 50.033 12.3691 50.0917C12.3466 50.0996 12.3231 50.1085 12.3006 50.1153C12.0144 50.2061 11.7201 50.2692 11.4218 50.3038C11.3882 50.3083 11.3534 50.3117 11.3186 50.315C11.1727 50.3285 11.0257 50.3352 10.8764 50.3352C10.744 50.3352 10.6104 50.3296 10.4791 50.3184C10.2046 50.2956 9.93271 50.2482 9.66662 50.177C9.46407 50.1242 9.26564 50.0567 9.07292 49.975C9.06279 49.9705 9.0527 49.9671 9.04262 49.9626C9.03139 49.9581 9.0224 49.9548 9.01232 49.9503C9.00109 49.9458 8.9921 49.9413 8.98086 49.9357C8.90793 49.9043 8.83499 49.8695 8.7643 49.8336C8.75416 49.828 8.74408 49.8235 8.73399 49.8179L8.6947 49.7977C8.67113 49.7853 8.64757 49.773 8.62511 49.7606C8.54992 49.7202 8.47583 49.6765 8.40405 49.6316C8.37708 49.6147 8.34793 49.5968 8.32097 49.5788L8.30075 49.5653C8.23789 49.5227 8.17509 49.4801 8.11333 49.434C8.07179 49.4026 8.02916 49.3723 7.98877 49.3398C7.92033 49.2881 7.85408 49.2332 7.79013 49.1759C7.75643 49.1479 7.72278 49.1164 7.69138 49.0872C7.565 48.9708 7.44546 48.8471 7.33337 48.7169C7.29633 48.6743 7.25928 48.6316 7.22449 48.5867C7.21665 48.5777 7.20991 48.5688 7.20202 48.5587C6.62343 47.8287 6.27539 46.9429 6.20227 46.0143C6.12916 45.0857 6.33428 44.1563 6.79149 43.3448C7.2487 42.5332 7.93727 41.8762 8.76938 41.4576C9.60149 41.039 10.5394 40.8777 11.4636 40.9943C12.3877 41.1109 13.2562 41.5002 13.9583 42.1124C14.6603 42.7246 15.1641 43.532 15.4053 44.4317C15.6466 45.3314 15.6145 46.2826 15.313 47.1639C15.0115 48.0452 14.4543 48.8168 13.7125 49.3802H13.7125Z" fill="#3F3D56"/>
<path d="M19.174 19.7849C17.447 18.3276 15.3337 17.4038 13.0912 17.1257C10.8487 16.8476 8.57379 17.2273 6.54317 18.2186C4.51256 19.2099 2.81384 20.77 1.65373 22.7091C0.493625 24.6482 -0.0778577 26.8827 0.00882673 29.1407C0.0955112 31.3987 0.836624 33.5828 2.14199 35.4273C3.44735 37.2718 5.26067 38.6971 7.36131 39.5297C9.46195 40.3624 11.7593 40.5666 13.9739 40.1174C16.1884 39.6682 18.2247 38.585 19.8349 36.9997L34.133 49.0643C34.3506 49.2473 34.632 49.3365 34.9153 49.3123C35.1986 49.2882 35.4608 49.1527 35.6444 48.9356C35.828 48.7184 35.918 48.4373 35.8946 48.154C35.8713 47.8706 35.7366 47.608 35.52 47.4238L35.5184 47.4224L21.2203 35.3578C22.8813 32.9739 23.5922 30.0557 23.2136 27.175C22.8351 24.2943 21.3944 21.6587 19.174 19.7849ZM18.2522 34.196C17.1384 35.5161 15.658 36.4763 13.9985 36.955C12.3389 37.4338 10.5746 37.4097 8.92877 36.8858C7.2829 36.3619 5.82935 35.3617 4.75193 34.0117C3.67452 32.6616 3.02162 31.0224 2.87581 29.3014C2.73 27.5803 3.09783 25.8546 3.93277 24.3426C4.76772 22.8305 6.03228 21.6001 7.56656 20.8067C9.10083 20.0134 10.8359 19.6928 12.5524 19.8856C14.2688 20.0783 15.8896 20.7758 17.2097 21.8896C18.9798 23.3833 20.0842 25.519 20.2797 27.8269C20.4752 30.1348 19.7459 32.4258 18.2522 34.196Z" fill="#3F3D56"/>
<path opacity="0.3" d="M5.94584 35.2386C4.27049 33.8248 3.18808 31.8327 2.91354 29.6578C2.63901 27.4829 3.19243 25.2842 4.46391 23.4985C4.29693 23.6666 4.13551 23.8427 3.97964 24.0268C3.24004 24.9033 2.68034 25.9169 2.33247 27.0097C1.9846 28.1026 1.85538 29.2532 1.95219 30.3959C2.04901 31.5387 2.36996 32.6512 2.89671 33.6699C3.42347 34.6886 4.14572 35.5936 5.02223 36.3332C5.89874 37.0728 6.91233 37.6325 8.00515 37.9804C9.09797 38.3283 10.2486 38.4575 11.3914 38.3607C12.5341 38.2639 13.6466 37.9429 14.6653 37.4161C15.684 36.8894 16.589 36.1671 17.3286 35.2906C17.4841 35.1063 17.6306 34.9176 17.768 34.7244C16.2216 36.2782 14.1474 37.1936 11.9573 37.2888C9.76717 37.3841 7.62133 36.6523 5.94584 35.2386Z" fill="black"/>
<path d="M47.9989 49.5154C48.1106 49.379 48.191 49.2198 48.2346 49.049C48.2781 48.8782 48.2836 48.7 48.2508 48.5268C48.2179 48.3536 48.1475 48.1898 48.0445 48.0467C47.9415 47.9037 47.8084 47.785 47.6545 47.699L45.0483 37.0317L43.1471 37.6386L45.9613 48.2331C45.834 48.5012 45.8094 48.8066 45.8922 49.0916C45.975 49.3765 46.1594 49.6212 46.4106 49.7793C46.6618 49.9373 46.9622 49.9978 47.2549 49.9491C47.5476 49.9005 47.8124 49.7462 47.9989 49.5154H47.9989Z" fill="#FFB6B6"/>
<path d="M46.6519 42.6921L45.2625 43.8907L43.3186 45.5664L42.4601 41.1737L42.3703 40.7169L42.2996 40.3544L44.2692 36.9236L45.9111 37.0177L46.0234 37.0245L46.0256 37.0493L46.0514 37.2793L46.3881 40.3072L46.396 40.3802L46.6519 42.6921Z" fill="#3F3D56"/>
<path d="M37.5703 72.5087L36.1945 72.5086L35.5399 67.2015L37.5707 67.2016L37.5703 72.5087Z" fill="#FFB6B6"/>
<path d="M37.9213 73.8424L33.4848 73.8422V73.7861C33.4848 73.3282 33.6668 72.889 33.9906 72.5651C34.3144 72.2413 34.7536 72.0594 35.2116 72.0593H35.2117L37.9214 72.0595L37.9213 73.8424Z" fill="#2F2E41"/>
<path d="M51.9357 72.6209L50.5599 72.6208L49.9053 67.3137L51.9361 67.3138L51.9357 72.6209Z" fill="#FFB6B6"/>
<path d="M52.2867 73.9546L47.8502 73.9545V73.8984C47.8502 73.4404 48.0321 73.0012 48.356 72.6774C48.6798 72.3535 49.119 72.1716 49.577 72.1716H49.5771L52.2868 72.1717L52.2867 73.9546Z" fill="#2F2E41"/>
<path d="M53.0355 70.5083L49.3319 71.0694L43.9438 52.8343L38.2212 71.1816L34.0687 70.6205L39.4557 49.2968V47.6134L40.1852 45.0882L40.1088 44.4047L39.578 39.6249L39.348 37.552L39.333 37.4181C39.3205 37.3057 39.3503 37.1927 39.4165 37.1011C39.4828 37.0094 39.5808 36.9458 39.6914 36.9224L41.4197 36.5588H44.2445L45.9111 37.0178L46.0256 37.0492L46.0772 37.0638L46.0514 37.2793L45.6609 40.5542L45.6396 40.7337L45.2625 43.8907L45.1794 44.5832C48.4341 46.94 48.5463 49.2968 48.5463 49.2968L53.0355 70.5083Z" fill="#2F2E41"/>
<path d="M42.4908 35.1389C44.0131 35.1389 45.2472 33.9048 45.2472 32.3824C45.2472 30.8601 44.0131 29.6259 42.4908 29.6259C40.9684 29.6259 39.7343 30.8601 39.7343 32.3824C39.7343 33.9048 40.9684 35.1389 42.4908 35.1389Z" fill="#FFB6B6"/>
<path d="M45.3859 43.9498L39.9331 44.6629L40.035 45.4418L45.4878 44.7288L45.3859 43.9498Z" fill="#3F3D56"/>
<path d="M32.6189 44.8977C32.6711 44.9314 32.7205 44.9692 32.7667 45.0107L38.16 43.6359L38.528 42.3347L40.5642 42.6334L40.1367 45C40.1021 45.1912 40.0065 45.3661 39.8641 45.4983C39.7218 45.6305 39.5404 45.713 39.3472 45.7333L33.0498 46.3965C32.9472 46.6126 32.7812 46.7923 32.5739 46.9118C32.3666 47.0313 32.1279 47.0848 31.8894 47.0652C31.651 47.0457 31.4242 46.954 31.2391 46.8024C31.054 46.6508 30.9195 46.4465 30.8534 46.2166C30.7873 45.9867 30.7928 45.742 30.8691 45.5153C30.9454 45.2886 31.0889 45.0904 31.2806 44.9473C31.4723 44.8041 31.703 44.7227 31.942 44.7138C32.1811 44.705 32.4172 44.7691 32.6189 44.8977Z" fill="#FFB6B6"/>
<path d="M40.9147 37.625L39.9607 36.8955C39.7028 36.7976 39.3494 37.0756 39.2874 37.3444L37.9406 42.8436L40.7464 44.8638L41.1392 44.2465L40.9147 37.625Z" fill="#3F3D56"/>
<g opacity="0.2">
<path d="M46.3881 40.3072C46.15 40.4018 45.9073 40.4842 45.6609 40.5541C45.5823 40.5777 45.5015 40.6002 45.4219 40.6215C44.8966 40.7672 44.3569 40.8545 43.8124 40.8819C43.5781 40.8918 43.3434 40.8854 43.1099 40.8628C42.8593 40.8378 42.6117 40.7889 42.3703 40.7169C42.3624 40.7146 42.3535 40.7124 42.3456 40.7101C41.8438 40.5677 41.3837 40.3063 41.0045 39.9481C40.9197 39.8656 40.8406 39.7775 40.7677 39.6844C40.5581 39.4277 40.4044 39.1302 40.3162 38.8107C40.2281 38.4913 40.2076 38.157 40.2559 37.8292C40.2653 37.7698 40.278 37.711 40.2941 37.653C40.3364 37.4951 40.3923 37.3411 40.4613 37.1929C40.4916 37.1233 40.5253 37.0548 40.5612 36.9875L41.8294 36.5588H44.2445L45.9112 37.0178L46.0234 37.0245L46.0256 37.0492L46.0773 37.0638L46.0515 37.2793L46.3881 40.3072Z" fill="black"/>
</g>
<path d="M40.3785 30.1003C39.863 30.0372 39.2973 30.0818 38.8955 30.4109C38.4937 30.74 38.3641 31.4241 38.7445 31.7777C39.0813 32.0907 39.6079 32.0171 40.059 32.1061C40.4476 32.1932 40.7957 32.4082 41.0477 32.7165C41.2997 33.0249 41.4409 33.409 41.4488 33.8071C41.4421 34.949 40.3462 35.8137 40.1494 36.9384C40.0151 37.7061 40.3388 38.5139 40.8985 39.0562C41.4583 39.5984 42.2277 39.8914 43.0029 39.9708C43.7782 40.0502 44.5621 39.929 45.3155 39.7298C46.0721 39.5298 46.8169 39.246 47.4517 38.7884C48.0865 38.3308 48.6069 37.6857 48.8107 36.9301C49.0146 36.1746 48.8682 35.3083 48.343 34.7282C47.7416 34.0639 46.741 33.8355 46.2208 33.1058C45.6376 32.2879 45.8534 31.1232 45.3814 30.2364C45.0662 29.6444 44.4695 29.2406 43.8335 29.0279C43.1975 28.8152 42.5183 28.7732 41.8479 28.7526C41.4956 28.7417 41.1324 28.7381 40.8041 28.8666C40.4759 28.9951 40.1873 29.2878 40.1703 29.6399C40.1533 29.992 40.3785 30.1003 40.3785 30.1003Z" fill="#2F2E41"/>
<path d="M66.1846 74H23.425C23.3953 74 23.3667 73.9882 23.3457 73.9671C23.3246 73.9461 23.3128 73.9175 23.3128 73.8878C23.3128 73.858 23.3246 73.8295 23.3457 73.8084C23.3667 73.7874 23.3953 73.7755 23.425 73.7755H66.1846C66.2143 73.7755 66.2429 73.7874 66.2639 73.8084C66.285 73.8295 66.2968 73.858 66.2968 73.8878C66.2968 73.9175 66.285 73.9461 66.2639 73.9671C66.2429 73.9882 66.2143 74 66.1846 74Z" fill="#CACACA"/>
</g>
<defs>
<clipPath id="clip0_23_115">
<rect width="66.2968" height="74" fill="white"/>
</clipPath>
</defs>
</svg>
