<svg width="233" height="191" viewBox="0 0 233 191" fill="none" xmlns="http://www.w3.org/2000/svg">
<path d="M210.982 190.115H161.578V188.438C161.578 186.981 162.101 185.584 163.032 184.554C163.962 183.524 165.225 182.945 166.541 182.945H206.019C207.335 182.945 208.597 183.524 209.528 184.554C210.459 185.584 210.982 186.981 210.982 188.438V190.115V190.115Z" fill="#E6E6E6"/>
<path d="M185.124 183.28L186.626 182.611C170.906 139.431 172.421 84.9566 185.709 38.2271C187.287 32.8128 187.401 27.006 186.037 21.5211C184.672 16.0361 181.888 11.1123 178.027 7.35542C170.314 -0.261346 159.681 -2.11686 150.275 2.5125C140.99 7.08279 139.71 15.0435 139.71 22.9655H141.33C141.33 14.5092 142.963 8.07334 150.933 4.1503C159.749 -0.188263 169.717 1.55194 176.949 8.69301C180.575 12.2215 183.19 16.8461 184.471 21.9978C185.753 27.1495 185.647 32.6035 184.164 37.6888C170.722 84.9579 169.296 139.807 185.124 183.28Z" fill="#E6E6E6"/>
<path d="M140.925 49.4047C144.056 49.4047 146.595 46.5959 146.595 43.131C146.595 39.6661 144.056 36.8573 140.925 36.8573C137.794 36.8573 135.256 39.6661 135.256 43.131C135.256 46.5959 137.794 49.4047 140.925 49.4047Z" fill="#E6E6E6"/>
<path d="M132.194 54.0679V42.1807H133.864V54.0679C134.344 54.2824 134.74 54.6746 134.987 55.1773C135.233 55.68 135.314 56.2619 135.215 56.8233C135.117 57.3847 134.845 57.8907 134.446 58.2544C134.047 58.6181 133.546 58.8171 133.029 58.8171C132.512 58.8171 132.012 58.6181 131.613 58.2544C131.214 57.8907 130.942 57.3847 130.843 56.8233C130.745 56.2619 130.825 55.68 131.072 55.1773C131.318 54.6746 131.715 54.2824 132.194 54.0679Z" fill="#E6E6E6"/>
<path d="M124.12 33.0482C124.123 30.3156 125.105 27.6958 126.851 25.7636C128.597 23.8313 130.964 22.7444 133.434 22.7413H148.822C151.292 22.7413 153.661 23.8272 155.408 25.7601C157.154 27.693 158.136 30.3146 158.136 33.0482C158.136 35.7817 157.154 38.4033 155.408 40.3362C153.661 42.2691 151.292 43.355 148.822 43.355H133.434C130.964 43.3519 128.597 42.265 126.851 40.3328C125.105 38.4005 124.123 35.7807 124.12 33.0482V33.0482Z" fill="#2AAE97"/>
<path d="M102.438 96.8746C103.983 75.0006 111.883 64.5787 106.825 58.043C101.98 51.7826 88.3318 53.0758 79.5669 59.0831C55.926 75.2863 47.2648 139.866 77.6871 171.418C106.596 201.4 161.384 191.797 173.56 167.257C176.401 161.531 178.657 151.493 174.5 145.414C164.177 130.322 126.645 157.658 109.958 140.56C100.069 130.427 101.591 108.879 102.438 96.8746Z" fill="#3F3D56"/>
<path d="M120.51 86.0075C119.936 86.2998 119.487 86.8285 119.26 87.4811C119.033 88.1337 119.045 88.8587 119.293 89.5019C119.345 89.6318 119.407 89.7566 119.478 89.8751L114.404 97.3727L116.936 101.561L122.884 90.4581C123.305 90.0945 123.606 89.5867 123.739 89.014C123.872 88.4413 123.83 87.8359 123.62 87.2924C123.497 86.9843 123.321 86.706 123.102 86.4733C122.882 86.2405 122.623 86.0579 122.34 85.9359C122.056 85.8139 121.754 85.7548 121.45 85.7621C121.146 85.7693 120.846 85.8428 120.568 85.9783C120.549 85.9877 120.529 85.9975 120.51 86.0075Z" fill="#FFB6B6"/>
<path d="M120.506 98.9344C120.838 99.2603 119.917 99.6625 118.943 99.028C118.664 98.8443 118.545 98.768 118.513 98.8165C118.435 98.9379 118.892 99.8324 118.77 101.819C118.695 103.005 116.915 105.234 114.895 107.408C112.163 110.348 108.986 113.184 108.986 113.184L107.87 112.196L96.1744 101.819L94.2006 98.7957C94.3813 97.6018 94.6528 96.4269 95.0121 95.2835C95.5069 93.7009 96.0951 92.1558 96.7728 90.6584C97.1363 89.8436 97.5091 89.067 97.8663 88.3528L104.132 95.9943L109.384 102.395C109.384 102.395 110.912 99.6694 112.097 98.9275C112.248 98.8207 112.42 98.7554 112.598 98.7368C113.795 98.6744 113.867 97.9532 112.479 96.3826C111.091 94.812 112.842 96.2786 114.077 95.8556C115.311 95.4326 114.077 95.8556 114.337 94.7981C114.597 93.7407 118.059 91.6188 118.059 91.6188L118.203 91.761L120.819 94.3162L121.568 95.0478C121.568 95.0478 120.75 97.5302 120.525 98.0538C120.299 98.5773 120.177 98.605 120.506 98.9344Z" fill="#2AAE97"/>
<path d="M189.471 147.098L189.598 143.274L176.329 140.91L176.141 146.554L189.471 147.098Z" fill="#FFB6B6"/>
<path d="M187.062 148.249L186.936 142.126L189.302 142.223L193.12 136.562C193.309 136.282 193.573 136.077 193.875 135.975C194.177 135.874 194.5 135.882 194.797 135.998C195.094 136.114 195.35 136.332 195.528 136.62C195.705 136.909 195.795 137.253 195.783 137.601L195.54 144.875L193.159 146.033L195.482 146.618L195.391 149.361L187.062 148.249Z" fill="#2F2E41"/>
<path d="M114.791 148.587L156.819 149.766C156.819 149.766 174.968 150.926 179.226 147.861L183.717 147.233L183.96 139.934C183.96 139.934 181.214 139.957 179.635 139.143C178.057 138.329 179.154 137.333 177.649 138.312C176.143 139.291 176.302 139.409 175.139 138.959C173.975 138.509 120.607 129.507 120.607 129.507L114.791 148.587Z" fill="#2F2E41"/>
<path d="M170.173 145.419L172.617 142.712L164.342 130.992L160.735 134.988L170.173 145.419Z" fill="#FFB6B6"/>
<path d="M167.699 143.064L171.37 138.48L173.045 140.332L179.324 139.056C179.634 138.993 179.954 139.041 180.238 139.194C180.521 139.346 180.753 139.595 180.9 139.904C181.046 140.213 181.1 140.566 181.053 140.911C181.005 141.256 180.86 141.575 180.637 141.822L175.989 146.971L173.531 146.028L174.875 148.206L173.122 150.147L167.699 143.064Z" fill="#2F2E41"/>
<path d="M98.2092 123.116L98.6271 133.864C99.1189 146.516 111.711 154.174 121.475 147.568C121.654 147.446 121.835 147.32 122.016 147.19C122.016 147.19 125.718 146.09 125.605 144.347C125.493 142.605 126.397 141.758 127.198 142.233C127.998 142.708 138.475 126.253 138.475 126.253C138.475 126.253 160.245 138.269 165.047 141.098C165.047 141.098 169.562 133.285 169.235 133.367C168.908 133.449 142.304 112.844 142.304 112.844C142.304 112.844 137.97 107.99 132.594 111.195C132.482 111.666 132.577 111.682 132.577 111.682L114.818 127.696L112.308 122.422L98.2092 123.116Z" fill="#2F2E41"/>
<path d="M114.954 109.679C114.92 110.176 114.856 110.669 114.763 111.156C114.635 111.861 114.429 112.546 114.149 113.195C114.149 113.195 114.149 113.919 112.896 116.346C111.642 118.773 113.209 117.733 114.149 119.536C115.089 121.335 114.149 120.507 113.106 121.665C112.805 122.002 112.592 122.422 112.488 122.881C112.384 123.34 112.392 123.822 112.513 124.276C112.513 124.276 99.0536 124.286 96.5471 123.246C94.0407 122.206 93.4705 116.346 95.7169 115.767C97.9602 115.188 95.037 114.613 93.718 113.278C92.3989 111.943 95.037 109.759 95.037 109.759C95.037 109.759 93.9498 107.682 94.0407 100.71C94.0535 100.068 94.1069 99.4288 94.2005 98.7958C94.3812 97.6019 94.6526 96.427 95.0119 95.2836C95.5068 93.701 96.095 92.1559 96.7727 90.6585C97.1361 89.8437 97.509 89.0671 97.8662 88.3529C97.9226 88.2419 97.9758 88.1344 98.0322 88.027C98.7121 86.6956 99.3325 85.6069 99.7429 84.91C100.059 84.3692 100.25 84.0641 100.25 84.0641L102.531 79.6747L110.145 83.6237L109.712 90.0829L111.025 94.9542L111.63 97.1975L112.097 98.9275L112.817 101.608C112.817 101.608 112.62 101.618 112.855 101.975C113.937 103.567 114.639 105.436 114.894 107.408C114.985 108.161 115.005 108.922 114.954 109.679V109.679Z" fill="#2AAE97"/>
<path d="M136.941 110.375L136.798 110.324L118.576 103.831L125.29 79.4527C125.424 78.9673 125.656 78.5218 125.968 78.1498C126.28 77.7777 126.664 77.4889 127.091 77.3051C127.519 77.1213 127.978 77.0472 128.435 77.0885C128.892 77.1298 129.335 77.2854 129.73 77.5435L141.375 85.157C142.296 85.7589 142.998 86.7002 143.356 87.8164C143.714 88.9325 143.707 90.1524 143.335 91.263L136.941 110.375Z" fill="#2F2E41"/>
<path d="M137.015 111.925L118.646 105.379L125.361 81.0013C125.494 80.5158 125.726 80.0703 126.038 79.6983C126.35 79.3263 126.734 79.0375 127.161 78.8536C127.589 78.6698 128.048 78.5957 128.505 78.637C128.963 78.6783 129.405 78.8339 129.8 79.0921L142.001 85.833C143.834 87.031 143.791 90.132 142.94 92.6763L137.015 111.925Z" fill="#2AAE97"/>
<path d="M135.176 113.689C134.753 113.953 134.285 114.117 133.801 114.17C133.318 114.224 132.83 114.165 132.368 113.998L120.627 109.814C119.727 109.489 118.977 108.786 118.538 107.857C118.098 106.927 118.005 105.845 118.278 104.84L124.164 83.4701C124.282 83.0432 124.475 82.6465 124.733 82.3034C124.991 81.9603 125.308 81.6776 125.666 81.472C126.024 81.2664 126.416 81.1419 126.818 81.1059C127.22 81.07 127.624 81.1232 128.008 81.2625L140.175 85.6834C140.755 85.894 141.29 86.2311 141.75 86.6746C142.21 87.1182 142.586 87.6593 142.853 88.266C143.121 88.8726 143.277 89.5326 143.31 90.2068C143.344 90.881 143.255 91.5558 143.049 92.1914L136.755 111.608C136.473 112.49 135.912 113.229 135.176 113.689V113.689Z" fill="#3F3D56"/>
<path d="M109.714 79.7496C114.359 79.7496 118.124 75.5831 118.124 70.4435C118.124 65.304 114.359 61.1375 109.714 61.1375C105.07 61.1375 101.305 65.304 101.305 70.4435C101.305 75.5831 105.07 79.7496 109.714 79.7496Z" fill="#FFB6B6"/>
<path d="M81.2775 79.8898C82.0492 81.5452 83.3145 82.8542 84.859 83.5949C85.4753 83.9056 86.1234 84.1326 86.789 84.2708C86.9772 83.4451 87.2784 82.6561 87.6821 81.9312C87.5476 82.7483 87.5476 83.5855 87.6821 84.4026C88.6962 84.4944 89.7166 84.3542 90.6796 83.9908C91.6254 83.6349 92.4833 83.0399 93.1851 82.2531C93.8869 81.4663 94.4133 80.5094 94.7227 79.4582C95.3926 76.9915 94.671 74.3568 94.6142 71.782C94.5556 69.2069 95.6606 66.127 97.9706 65.8084C99.7298 65.5654 99.5123 65.7541 100.776 67.1294C99.0082 69.303 103.319 78.93 105.632 78.5046C106.94 78.2641 107.902 77.1152 108.161 77.155C109.485 80.7443 105.501 85.8348 108.661 87.5059L108.426 87.1625C106.772 84.1389 111.666 79.032 110.012 76.0084C109.551 75.1625 109.072 74.1709 109.357 73.2352C109.628 72.3455 110.999 72.064 111.288 72.8737C110.818 71.0178 112.131 68.8394 113.875 68.65C115.424 68.4809 115.335 68.9695 116.812 69.4153C117 68.7112 117.272 68.0378 117.62 67.4125C117.503 68.1258 117.488 68.8554 117.577 69.5738C118.11 69.6442 118.649 69.518 119.11 69.2148C120.474 68.3099 120.515 65.9743 119.578 64.5527C118.639 63.1309 117.067 62.4289 115.55 61.8977C115.536 58.3478 106.904 56.6484 105.317 59.9488C105.153 57.2765 102.385 55.4763 100 55.9303C97.6157 56.3842 95.7345 58.5002 94.5875 60.8587C93.4408 63.2153 92.8715 65.854 92.0319 68.3642C91.1924 70.8744 89.9924 73.3774 87.9821 74.8667C85.9721 76.3542 82.985 76.4893 81.3067 74.5613C80.924 75.3845 80.7219 76.2959 80.7168 77.2217C80.7117 78.1475 80.9038 79.0615 81.2775 79.8898V79.8898Z" fill="#2F2E41"/>
<path d="M89.9063 122.446C90.0803 122.292 90.269 122.159 90.4692 122.051C93.688 120.278 103.698 115.677 111.525 115.866C126.584 116.229 145.749 134.621 141.289 146.972C137.895 156.37 121.022 161.716 108.705 157.44C91.4498 151.449 84.639 127.093 89.9063 122.446Z" fill="#3F3D56"/>
<path d="M27.3879 190.151C22.4671 189.123 18.1112 164.591 27.7929 152.508C31.1099 148.369 35.2475 146.567 40.7513 144.89C72.4292 135.239 96.5905 144.437 99.8374 146.683C103.077 148.923 108.756 182.683 101.494 187.462C97.4077 190.151 89.3087 191.495 85.2959 188.358C79.3913 183.743 89.3022 171.77 84.8909 163.711C79.8851 154.567 53.5252 151.486 40.3096 160.575C26.2099 170.271 55.2928 195.976 27.3879 190.151Z" fill="#F2F2F2"/>
<path d="M60.2881 148.44H41.4887C36.8479 143.518 33.5297 138.775 36.1863 134.838C36.1863 133.706 36.5926 132.62 37.3158 131.82C38.039 131.02 39.0198 130.57 40.0426 130.57H61.7342C62.7569 130.57 63.7378 131.02 64.461 131.82C65.1842 132.62 65.5904 133.706 65.5905 134.838C66.6019 139.324 64.7949 143.859 60.2881 148.44Z" fill="#CCCCCC"/>
<path d="M56.9121 125.198C56.7337 125.207 56.5571 125.155 56.4062 125.049C56.2554 124.944 56.1375 124.789 56.0686 124.607C55.9998 124.425 55.9832 124.223 56.0211 124.03C56.0591 123.837 56.1498 123.662 56.2809 123.528L56.3406 123.265C56.3327 123.244 56.3248 123.223 56.3169 123.202C56.1372 122.732 55.8361 122.332 55.4514 122.051C55.0667 121.77 54.6155 121.621 54.1546 121.623C53.6937 121.625 53.2436 121.778 52.8608 122.062C52.478 122.346 52.1796 122.749 52.003 123.22C51.2975 125.1 50.3992 126.984 50.178 128.972C50.0806 129.851 50.1217 130.742 50.2995 131.605C48.6423 127.605 47.7818 123.257 47.7763 118.857C47.7759 117.752 47.8314 116.649 47.9423 115.552C48.034 114.652 48.1613 113.759 48.324 112.872C49.2122 108.06 51.1192 103.55 53.8884 99.7118C55.2287 98.9026 56.3126 97.6581 56.9941 96.1462C57.2409 95.6027 57.4154 95.0225 57.5121 94.4237C57.3609 94.4456 56.942 91.8975 57.0561 91.7412C56.8454 91.3874 56.4682 91.2115 56.2381 90.8663C55.0937 89.1492 53.5169 89.449 52.6938 91.7824C50.9353 92.7645 50.9183 94.3932 51.9973 95.9597C52.6837 96.9563 52.778 98.3048 53.3803 99.3717C53.3183 99.4595 53.2539 99.5445 53.1919 99.6323C52.0592 101.244 51.072 102.975 50.2444 104.8C50.4456 102.755 50.2054 100.687 49.5435 98.7656C48.8726 96.9747 47.6152 95.4663 46.5079 93.9181C45.1778 92.0584 42.4504 92.87 42.216 95.2274C42.2138 95.2503 42.2116 95.2731 42.2094 95.2959C42.3739 95.3986 42.5349 95.5076 42.6924 95.6228C42.8903 95.7692 43.0437 95.9782 43.1324 96.2226C43.221 96.467 43.241 96.7354 43.1895 96.9925C43.138 97.2497 43.0175 97.4836 42.8438 97.6637C42.6702 97.8437 42.4514 97.9616 42.2161 98.0017L42.1921 98.0058C42.2507 98.6618 42.3542 99.3119 42.5019 99.9505C41.0813 106.03 44.1482 108.244 48.5273 108.343C48.6239 108.398 48.7181 108.453 48.8148 108.505C47.9833 111.113 47.4617 113.829 47.2632 116.586C47.1508 118.212 47.1575 119.846 47.283 121.471L47.2756 121.413C46.9583 119.606 46.0872 117.975 44.8094 116.797C42.9116 115.072 40.2302 114.436 38.1828 113.05C37.9652 112.895 37.7122 112.812 37.4536 112.812C37.195 112.811 36.9416 112.892 36.7234 113.046C36.5051 113.199 36.331 113.418 36.2217 113.678C36.1123 113.937 36.0723 114.225 36.1062 114.509C36.109 114.529 36.1118 114.549 36.1146 114.57C36.4198 114.707 36.717 114.866 37.0044 115.044C37.1689 115.147 37.3299 115.256 37.4874 115.371C37.6853 115.517 37.8386 115.726 37.9273 115.971C38.016 116.215 38.0359 116.484 37.9845 116.741C37.933 116.998 37.8125 117.232 37.6388 117.412C37.4652 117.592 37.2464 117.71 37.0112 117.75L36.987 117.754C36.9697 117.757 36.9548 117.76 36.9375 117.762C37.459 119.14 38.1909 120.409 39.1013 121.512C39.9895 126.819 43.8045 127.322 47.8853 125.777H47.8878C48.3356 127.93 48.9843 130.026 49.8236 132.03H56.7388C56.7636 131.945 56.7859 131.858 56.8082 131.773C56.1681 131.817 55.5255 131.775 54.8947 131.646C55.4078 130.95 55.9209 130.248 56.4339 129.551C56.4454 129.538 56.4561 129.524 56.4662 129.51C56.7264 129.153 56.9891 128.799 57.2494 128.443L57.2495 128.442C57.2634 127.349 57.1501 126.259 56.9123 125.198L56.9121 125.198Z" fill="#CCCCCC"/>
<path d="M80.4982 147.325C80.6129 147.695 80.8304 148.015 81.1196 148.239C81.4088 148.463 81.7548 148.58 82.1078 148.573L89.0044 148.377C89.36 148.369 89.7038 148.234 89.9845 147.992C90.2651 147.75 90.4675 147.415 90.5614 147.035L91.5373 135.486C91.8836 135.66 92.2605 135.746 92.6406 135.737C93.3074 135.719 93.9403 135.408 94.4 134.873C94.8597 134.338 95.1085 133.623 95.0918 132.885C95.0751 132.147 94.7941 131.447 94.3107 130.938C93.8274 130.429 93.1812 130.154 92.5143 130.173C92.3624 130.172 92.2109 130.189 92.0624 130.225C91.9008 130.031 91.7045 129.877 91.4859 129.773C91.2674 129.669 91.0315 129.616 90.7935 129.619L80.185 129.922C80.097 129.925 80.0094 129.938 79.9233 129.958C79.6907 130.006 79.47 130.108 79.2762 130.259C79.0824 130.409 78.9199 130.603 78.7997 130.829C78.6795 131.055 78.6044 131.306 78.5794 131.567C78.5543 131.827 78.58 132.09 78.6547 132.339L80.4982 147.325ZM91.7375 134.702L92.4319 131.95C92.5109 131.632 92.5128 131.297 92.4372 130.978C92.4709 130.978 92.5007 130.96 92.5344 130.96C93.0105 130.95 93.471 131.148 93.815 131.512C94.1591 131.877 94.3585 132.377 94.3696 132.904C94.3808 133.431 94.2027 133.941 93.8745 134.323C93.5463 134.705 93.0946 134.927 92.6186 134.941C92.3108 134.951 92.0061 134.869 91.7375 134.702V134.702Z" fill="#CCCCCC"/>
<path d="M79.9233 129.958C80.1494 131.388 82.6904 132.393 85.7458 132.218C88.5555 132.075 90.8528 130.983 91.2737 129.69C91.1179 129.639 90.956 129.615 90.7936 129.619L80.185 129.922C80.097 129.925 80.0095 129.937 79.9233 129.958V129.958Z" fill="white"/>
<path d="M0.369346 190.692L232.631 190.798C232.729 190.798 232.823 190.755 232.892 190.678C232.961 190.601 233 190.497 233 190.389C233 190.281 232.961 190.177 232.892 190.1C232.823 190.023 232.729 189.98 232.631 189.98L0.369346 189.875C0.271389 189.875 0.177445 189.918 0.108179 189.994C0.0389125 190.071 0 190.175 0 190.283C0 190.392 0.0389125 190.496 0.108179 190.573C0.177445 190.649 0.271389 190.692 0.369346 190.692V190.692Z" fill="#CACACA"/>
<path d="M130.637 99.3467C130.006 99.3722 129.408 99.6695 128.971 100.175C128.535 100.681 128.294 101.355 128.3 102.055C128.303 102.197 128.317 102.338 128.341 102.478L121.052 107.24L121.934 112.183L131.282 104.465C131.797 104.309 132.251 103.968 132.573 103.496C132.895 103.024 133.067 102.447 133.062 101.856C133.056 101.519 132.99 101.188 132.868 100.879C132.746 100.571 132.571 100.292 132.351 100.059C132.132 99.8259 131.874 99.6427 131.59 99.5201C131.307 99.3975 131.005 99.3378 130.701 99.3444C130.68 99.3448 130.659 99.3456 130.637 99.3467Z" fill="#FFB6B6"/>
<path d="M124.666 110.7C124.471 110.411 124.387 110.29 124.343 110.323C124.229 110.399 124.339 111.42 123.536 113.2C122.406 115.701 110.556 119.531 110.556 119.531L109.097 116.575L102.68 103.586L100.468 93.1748C100.391 92.8117 100.353 92.4397 100.356 92.0668C102.328 90.531 104.423 89.1969 106.613 88.0811C107.489 88.6306 108.156 89.5104 108.493 90.5597L112.911 104.266L114.673 109.739C114.673 109.739 117.783 107.278 118.911 107.73C120.037 108.184 120.357 107.547 119.621 105.507C118.885 103.467 119.989 105.567 121.275 105.7C122.563 105.836 121.275 105.7 121.884 104.835C122.492 103.969 126.426 103.482 126.426 103.482L126.51 103.675L128.035 107.146L128.471 108.143C128.471 108.143 126.855 110.084 126.465 110.47C126.073 110.86 125.952 110.833 126.144 111.277C126.333 111.719 125.344 111.699 124.666 110.7Z" fill="#2AAE97"/>
</svg>
