<svg width="14" height="19" viewBox="0 0 14 19" fill="none" xmlns="http://www.w3.org/2000/svg">
<path d="M12.6565 2.66453H10.0852C9.82081 2.16581 9.47398 1.71538 9.05941 1.33227H12.6565C12.8332 1.33227 13.0026 1.26208 13.1276 1.13716C13.2525 1.01224 13.3227 0.842802 13.3227 0.666133C13.3227 0.489463 13.2525 0.32003 13.1276 0.195106C13.0026 0.0701818 12.8332 0 12.6565 0H0.666133C0.489463 0 0.32003 0.0701818 0.195106 0.195106C0.0701818 0.32003 0 0.489463 0 0.666133C0 0.842802 0.0701818 1.01224 0.195106 1.13716C0.32003 1.26208 0.489463 1.33227 0.666133 1.33227H5.69544C6.23143 1.33274 6.76059 1.45254 7.24451 1.68298C7.72844 1.91342 8.15499 2.24872 8.49319 2.66453H0.666133C0.489463 2.66453 0.32003 2.73471 0.195106 2.85964C0.0701818 2.98456 0 3.15399 0 3.33066C0 3.50733 0.0701818 3.67677 0.195106 3.80169C0.32003 3.92661 0.489463 3.9968 0.666133 3.9968H9.18597C9.27873 4.32404 9.32581 4.66253 9.32586 5.00266C9.32764 5.96851 8.94656 6.89569 8.26611 7.58115C7.58565 8.2666 6.66127 8.65444 5.69544 8.65973H1.42552C1.29751 8.65989 1.17225 8.69693 1.06474 8.76643C0.957233 8.83593 0.872025 8.93493 0.819317 9.05159C0.766609 9.16825 0.748632 9.29763 0.767539 9.42424C0.786446 9.55085 0.841435 9.66933 0.925925 9.76551L8.69969 18.6517C8.7561 18.7218 8.8261 18.7796 8.90548 18.8219C8.98486 18.8641 9.07197 18.8899 9.16156 18.8976C9.25115 18.9052 9.34138 18.8947 9.42679 18.8666C9.5122 18.8385 9.59104 18.7933 9.65854 18.7339C9.72605 18.6745 9.78083 18.6021 9.81958 18.5209C9.85833 18.4398 9.88025 18.3516 9.88402 18.2618C9.88779 18.172 9.87333 18.0823 9.84152 17.9982C9.8097 17.9141 9.76118 17.8373 9.69889 17.7724L2.89768 9.99199H5.7021C6.43982 9.98603 7.16709 9.81698 7.8318 9.49696C8.49652 9.17693 9.08223 8.71385 9.54696 8.14089C10.0117 7.56792 10.344 6.89927 10.5199 6.18282C10.6959 5.46637 10.7113 4.71987 10.5649 3.9968H12.6565C12.8332 3.9968 13.0026 3.92661 13.1276 3.80169C13.2525 3.67677 13.3227 3.50733 13.3227 3.33066C13.3227 3.15399 13.2525 2.98456 13.1276 2.85964C13.0026 2.73471 12.8332 2.66453 12.6565 2.66453Z" fill="black" fill-opacity="0.2"/>
</svg>
