<svg width="19" height="19" viewBox="0 0 19 19" fill="none" xmlns="http://www.w3.org/2000/svg">
<path d="M16.7192 7C16.7192 5.14348 15.9534 3.36301 14.5901 2.05025C13.2269 0.737498 11.3779 1.14209e-07 9.45 1.14209e-07C7.54577 -0.000330898 5.71744 0.718882 4.3581 2.00301C2.99876 3.28714 2.21695 5.03363 2.18077 6.867V6.867C1.60239 6.867 1.04771 7.08825 0.638733 7.48208C0.229759 7.8759 0 8.41005 0 8.967V11.767C0 12.324 0.229759 12.8581 0.638733 13.2519C1.04771 13.6458 1.60239 13.867 2.18077 13.867H3.63462C4.21299 13.867 4.76768 13.6458 5.17665 13.2519C5.58563 12.8581 5.81538 12.324 5.81538 11.767V8.967C5.81538 8.41005 5.58563 7.8759 5.17665 7.48208C4.76768 7.08825 4.21299 6.867 3.63462 6.867C3.67068 5.40496 4.29926 4.01451 5.38597 2.9929C6.47268 1.97129 7.9313 1.39959 9.45 1.4C10.9923 1.4 12.4715 1.99 13.5621 3.0402C14.6527 4.09041 15.2654 5.51479 15.2654 7C14.687 7 14.1323 7.22125 13.7233 7.61508C13.3144 8.0089 13.0846 8.54305 13.0846 9.1V11.9C13.0866 12.3629 13.2473 12.8121 13.5417 13.178C13.8362 13.5438 14.2479 13.8057 14.7129 13.923C14.1634 14.8844 13.245 15.6004 12.1542 15.918C11.9795 15.5546 11.7005 15.2468 11.3502 15.031C10.9999 14.8152 10.5928 14.7003 10.1769 14.7H8.72308C8.1447 14.7 7.59001 14.9212 7.18104 15.3151C6.77207 15.7089 6.54231 16.243 6.54231 16.8C6.54231 17.357 6.77207 17.8911 7.18104 18.2849C7.59001 18.6788 8.1447 18.9 8.72308 18.9H10.1769C10.6586 18.8977 11.1259 18.742 11.5059 18.457C11.8859 18.1721 12.1573 17.7741 12.2777 17.325C13.1707 17.1151 13.9993 16.7043 14.6956 16.1263C15.3918 15.5483 15.9359 14.8196 16.2831 14H16.7192C17.2976 14 17.8523 13.7788 18.2613 13.3849C18.6702 12.9911 18.9 12.457 18.9 11.9V9.1C18.9 8.54305 18.6702 8.0089 18.2613 7.61508C17.8523 7.22125 17.2976 7 16.7192 7V7ZM4.36154 8.967V11.767C4.36154 11.9527 4.28495 12.1307 4.14863 12.262C4.0123 12.3933 3.82741 12.467 3.63462 12.467H2.18077C1.98798 12.467 1.80308 12.3933 1.66676 12.262C1.53043 12.1307 1.45385 11.9527 1.45385 11.767V8.967C1.45385 8.78135 1.53043 8.6033 1.66676 8.47202C1.80308 8.34075 1.98798 8.267 2.18077 8.267H3.63462C3.82741 8.267 4.0123 8.34075 4.14863 8.47202C4.28495 8.6033 4.36154 8.78135 4.36154 8.967ZM10.1769 17.5H8.72308C8.53028 17.5 8.34539 17.4263 8.20906 17.295C8.07274 17.1637 7.99615 16.9857 7.99615 16.8C7.99615 16.6143 8.07274 16.4363 8.20906 16.305C8.34539 16.1737 8.53028 16.1 8.72308 16.1H10.1769C10.3697 16.1 10.5546 16.1737 10.6909 16.305C10.8273 16.4363 10.9038 16.6143 10.9038 16.8C10.9038 16.9857 10.8273 17.1637 10.6909 17.295C10.5546 17.4263 10.3697 17.5 10.1769 17.5ZM17.4462 11.9C17.4462 12.0857 17.3696 12.2637 17.2332 12.395C17.0969 12.5263 16.912 12.6 16.7192 12.6H15.2654C15.0726 12.6 14.8877 12.5263 14.7514 12.395C14.615 12.2637 14.5385 12.0857 14.5385 11.9V9.1C14.5385 8.91435 14.615 8.7363 14.7514 8.60503C14.8877 8.47375 15.0726 8.4 15.2654 8.4H16.7192C16.912 8.4 17.0969 8.47375 17.2332 8.60503C17.3696 8.7363 17.4462 8.91435 17.4462 9.1V11.9Z" fill="#00B9B9"/>
</svg>
