<svg width="20" height="19" viewBox="0 0 20 19" fill="none" xmlns="http://www.w3.org/2000/svg">
<rect width="18.9024" height="18.9024" transform="translate(0.670715)" fill="white"/>
<path d="M10.2164 10.0656C10.1613 10.0577 10.0904 10.0577 10.0274 10.0656C8.64125 10.0183 7.5386 8.88416 7.5386 7.4901C7.5386 6.06454 8.6885 4.90677 10.1219 4.90677C11.5475 4.90677 12.7053 6.06454 12.7053 7.4901C12.6974 8.88416 11.6026 10.0183 10.2164 10.0656Z" stroke="#00B9B9" stroke-width="1.41768" stroke-linecap="round" stroke-linejoin="round"/>
<path d="M15.4304 15.2637C14.0284 16.5475 12.1697 17.3272 10.1219 17.3272C8.07418 17.3272 6.21544 16.5475 4.81351 15.2637C4.89227 14.5234 5.36483 13.7988 6.20756 13.2317C8.36559 11.7983 11.894 11.7983 14.0363 13.2317C14.8791 13.7988 15.3516 14.5234 15.4304 15.2637Z" stroke="#00B9B9" stroke-width="1.41768" stroke-linecap="round" stroke-linejoin="round"/>
<path d="M10.122 17.3272C14.4718 17.3272 17.998 13.801 17.998 9.45121C17.998 5.10141 14.4718 1.5752 10.122 1.5752C5.77215 1.5752 2.24594 5.10141 2.24594 9.45121C2.24594 13.801 5.77215 17.3272 10.122 17.3272Z" stroke="#00B9B9" stroke-width="1.41768" stroke-linecap="round" stroke-linejoin="round"/>
</svg>
